<svg xmlns="http://www.w3.org/2000/svg" width="154" height="154" viewBox="0 0 154 154"><g opacity="0.046" style="mix-blend-mode:darken;isolation:isolate"><path d="M451.794,85.055V205.805a4.512,4.512,0,0,0,4.512,4.512h9.085a4.512,4.512,0,0,0,4.512-4.512V85.055a4.512,4.512,0,0,0-4.512-4.512h-9.085A4.512,4.512,0,0,0,451.794,85.055Z" transform="translate(-315.903 -56.317)"/><path d="M361.426,4.512V125.262a4.512,4.512,0,0,0,4.512,4.512h9.085a4.512,4.512,0,0,0,4.512-4.512V4.512A4.512,4.512,0,0,0,375.023,0h-9.085A4.512,4.512,0,0,0,361.426,4.512Z" transform="translate(-252.716)"/><path d="M271.173,85.051l-.1,120.751a4.512,4.512,0,0,0,4.512,4.516h9.081a4.512,4.512,0,0,0,4.512-4.512V85.055a4.512,4.512,0,0,0-4.512-4.512h-8.979A4.512,4.512,0,0,0,271.173,85.051Z" transform="translate(-189.538 -56.317)"/><path d="M90.322,85.055V205.805a4.512,4.512,0,0,0,4.512,4.512h9.085a4.512,4.512,0,0,0,4.512-4.512V85.055a4.512,4.512,0,0,0-4.512-4.512H94.834A4.512,4.512,0,0,0,90.322,85.055Z" transform="translate(-63.155 -56.317)"/><path d="M180.69,4.512V125.262a4.512,4.512,0,0,0,4.512,4.512h9.085a4.512,4.512,0,0,0,4.512-4.512V4.512A4.512,4.512,0,0,0,194.287,0H185.2A4.512,4.512,0,0,0,180.69,4.512Z" transform="translate(-126.342)"/><path d="M0,4.512V125.262a4.512,4.512,0,0,0,4.512,4.512h9.057a4.512,4.512,0,0,0,4.512-4.512V4.512A4.512,4.512,0,0,0,13.569,0H4.512A4.512,4.512,0,0,0,0,4.512Z"/></g></svg>