<svg xmlns="http://www.w3.org/2000/svg" width="196.791" height="355.245" viewBox="0 0 196.791 355.245"><g transform="translate(-974.03 -6111.988)"><g transform="translate(996.475 6112.921)"><path d="M680.565,172.275c.173,3.5.475,8.6,1.037,14.687,1.382,15.162,2.2,28.25,5.7,38.617,2.635,7.819,8.855,22.462,24.406,37.192a46.892,46.892,0,0,1-13.909,21.6,105.129,105.129,0,0,1-23.024-32.959c-8.682-19.784-8.9-37.8-9.071-51.144a170.508,170.508,0,0,1,1.728-26.479c-1.555-1.469-3.931-3.758-6.911-6.479-5.443-4.924-7.516-6.523-7.171-7.214.3-.6,2.549-.562,11.879,2.765-8.034-10.324-11.62-15.853-10.756-16.674.778-.734,5.1,2.376,13,9.33-5.875-14.6-6.825-18.963-6.047-19.352s3.8,3.11,12.268,17.149c-1.339-11.317-.907-13.866-.216-14.039,1.209-.259,3.888,6.782,4.665,8.9a70.592,70.592,0,0,1,3.326,11.793c7.3-5.745,8.769-5.227,9.114-4.881,1.253,1.123-2.073,6.825-2.894,8.25A37.251,37.251,0,0,1,680.565,172.275Z" transform="translate(-653.315 -136.134)" fill="#fff" stroke="#2e186a" stroke-miterlimit="10" stroke-width="2"/><path d="M672.842,137.8c-.734.389,1.987,7.646,5.529,13.823.994,1.685,1.6,2.505,6.825,10.367,2.117,3.2,3.844,5.788,5.011,7.516a128.471,128.471,0,0,0-3.585,25.054,114.459,114.459,0,0,0,4.233,38.4,108.894,108.894,0,0,0,21.814,39.913l9.978-8.942a93.973,93.973,0,0,1-23.5-35.335c-4.1-11.145-5.227-21.857-6.22-31.188A190.581,190.581,0,0,1,691.8,173.48a28.734,28.734,0,0,0,7.9-9.46c.518-1.037,3.369-6.523,1.944-7.732-1.512-1.3-7,2.851-9.287,4.622-5.054-16.717-7.084-20.475-7.9-20.3-.475.086-.6,1.469-.778,3.672a27.639,27.639,0,0,0,1.166,10.453C684.807,154.819,684.807,154.819,672.842,137.8Z" transform="translate(-664.339 -137.08)" fill="#666" opacity="0.15"/><path d="M720.327,189.7a21.372,21.372,0,0,0-12.181,16.847,100.869,100.869,0,0,0,.043,20.432c2.721,26.609,15.205,46.134,23.283,56.544a138.4,138.4,0,0,1-19.87-81.209,48.244,48.244,0,0,0,5.4-6.782A49.887,49.887,0,0,0,720.327,189.7Z" transform="translate(-684.179 -166.562)" fill="#2e186a" opacity="0.2"/><path d="M703.7,197.1" transform="translate(-681.936 -170.765)" fill="#fff" stroke="#161616" stroke-miterlimit="10" stroke-width="2"/></g><g transform="translate(1089.359 6126.379)"><path d="M876.36,278.265c-2.981,1.382-5.486,2.333-6.955,5.054-2.894,5.313.95,12.4,1.9,14.168a23.851,23.851,0,0,0,8.51,8.9A89.773,89.773,0,0,0,911.824,283.1c14.341-16.458,18.488-33.909,20.648-43.283a113.94,113.94,0,0,0,2.635-31.145c2.117-3.672,5.184-8.855,9.114-15.075,3.456-5.529,5.356-8.423,4.622-9.2-.562-.562-2.721-.086-10.367,5.4,2.765-10.756,3.672-16.328,2.678-16.717-.95-.346-3.628,4.017-8.034,13.132q.972-18.661-.907-18.92c-1.3-.216-3.672,6.566-7.127,20.259-2.03-9.46-3.5-14.125-4.449-14.039-1.123.13-1.469,6.825-1.123,20.043-6.523-3.585-10.238-4.881-11.145-3.8-1.253,1.512,2.937,7.473,12.57,17.97a72.767,72.767,0,0,1-1.382,18.186c-.778,3.844-6.307,30.885-25.14,41.6C888.325,271.008,882.667,275.327,876.36,278.265Z" transform="translate(-868.345 -167.288)" fill="#fff" stroke="#2e186a" stroke-miterlimit="10" stroke-width="2"/><path d="M944.708,180.489c-.691-.216-1.857,3.758-6.609,10.583a13.2,13.2,0,0,0-2.073,3.542c-1.166,3.758.907,6.134.821,9.287-.086,2.246-1.253,5.4-6.609,9.2a62.662,62.662,0,0,1,2.2,13.434c1.166,22.246-10.5,38.531-14.557,45.313-3.844,6.436-15.335,23.11-43.283,33.348a11.854,11.854,0,0,0,3.672,6.436,10.6,10.6,0,0,0,4.406,2.376,86.733,86.733,0,0,0,22.116-13.261,88.227,88.227,0,0,0,22.462-28.38c12.225-23.24,12.225-45.918,11.4-57.235,2.462-3.888,4.622-7.3,6.307-9.978,6.047-9.59,7.948-12.656,7.214-13.391-.389-.389-1.685-.216-5.875,2.635-1.425.864-2.851,1.771-4.276,2.635C945.1,184.117,945.312,180.662,944.708,180.489Z" transform="translate(-871.898 -174.782)" fill="#666" opacity="0.16"/><path d="M992.774,231.9c-9.935,6.091-12.268,11.274-12.484,14.989-.086,1.469.173,1.857.475,5.356,0,0-.259,6.393-.173,14.384.13,11.4-4.579,21.728-10.324,34.255A156.485,156.485,0,0,1,956.1,325.549a97.656,97.656,0,0,0,14.557-18.4c14.773-24.406,14.773-49.287,13.909-61.252C987.288,241.187,990.009,236.522,992.774,231.9Z" transform="translate(-918.193 -203.99)" fill="#666" opacity="0.28"/><path d="M960.7,220.257c9.633,4.924,12.354,5.745,12.656,5.313.259-.432-1.339-2.117-2.808-3.067a20.837,20.837,0,0,0-3.067-1.469c-2.937-1.253-3.715-1.339-4.276-1.339A5.106,5.106,0,0,0,960.7,220.257Z" transform="translate(-920.806 -197.055)" fill="#666" opacity="0.11"/></g><g transform="translate(974.03 6317.874)"><path d="M663.249,841.63c-.346,2.16,1.641,4.708,5.529,9.849a77.967,77.967,0,0,0,5.227,6.134c-1.944,3.5-5.356,11.015-3.672,20,.518,2.894,1.425,7.689,4.017,8.294,4.492,1.08,11.188-11.145,13.823-16.933a63,63,0,0,0,4.924-16.631c-4.492-6.047-9.028-12.095-13.521-18.142C670.636,834.978,663.811,837.828,663.249,841.63Z" transform="translate(-636.491 -737.614)" fill="#161616" stroke="#161616" stroke-miterlimit="10" stroke-width="2"/><path d="M680.985,622.307c2.851,21.469-1.555,29.935-6.523,33.563-4.492,3.283-8.942,2.2-19.568,5.27a81.614,81.614,0,0,0-21.123,9.633,64.325,64.325,0,0,0,17.8,36.069,22.517,22.517,0,0,1-25.27,12.4c-6.911-6.393-17.538-18.272-22.333-35.766-1.944-7.127-4.32-16.328-.821-26.609,2.2-6.436,5.615-10.065,12.484-17.322,2.246-2.376,12.052-12.527,29.417-21.771,10.151-5.4,15.292-8.121,21.382-6.868C674.16,612.588,678.955,619.068,680.985,622.307Z" transform="translate(-601.355 -610.602)" fill="#ec615b"/><path d="M682.679,634.7c-7,4.233-16.717,10.41-27.948,18.488-19.438,14-28.337,21.469-31.533,29.244-3.11,7.559-.907,21.382,27.17,48.812a17.156,17.156,0,0,0,6.263-2.678,17.639,17.639,0,0,0,6.263-7.775,65.6,65.6,0,0,1-17.8-36.069,59.215,59.215,0,0,1,22.16-9.892c8.38-1.771,15.162-1.08,20.345-6.436,2.635-2.721,3.672-5.832,4.622-8.682a35.135,35.135,0,0,0,.864-18.747C689.634,638.933,686.135,636.817,682.679,634.7Z" transform="translate(-613.157 -624.291)" fill="#666" opacity="0.21"/><path d="M714.265,648.459a64.384,64.384,0,0,1-4.579,13.089C702,677.617,689.341,686.515,682.3,690.662a56.3,56.3,0,0,1,14.212-6.868c1.209-.389,2.462-.734,15.723-4.19,6.047-1.6,7.775-2.03,9.59-3.758,1.08-1.037,2.851-3.153,4.233-10.842a69.5,69.5,0,0,0,.907-16.8Z" transform="translate(-647.335 -631.959)" fill="#666" opacity="0.16"/><path d="M673.743,747.7a57.371,57.371,0,0,0,9.719,45.831,19.425,19.425,0,0,0,4.881-3.974,19.91,19.91,0,0,0,3.067-4.708A63.7,63.7,0,0,1,673.743,747.7Z" transform="translate(-641.759 -688.479)" fill="#666" opacity="0.17"/></g><g transform="translate(1004.656 6316.448)"><path d="M733,832.817c2.851,4.017,5.745,7.991,8.6,12.009-1.555,4.1-5.486,16.242.3,25.831.994,1.641,2.765,4.579,5.227,4.622,5.227.086,9.071-12.873,9.849-15.378a50.541,50.541,0,0,0,1.857-19.4c-1.944-12.484-11.015-19.222-17.235-17.84C735.894,823.919,733.3,831.953,733,832.817Z" transform="translate(-706.76 -729.536)" fill="#161616" stroke="#161616" stroke-miterlimit="10" stroke-width="2"/><path d="M751.928,619.007c3.672,23.153-3.8,31.188-6.523,33.563-2.549,2.2-5.011,3.067-18.79,7.646-5.14,1.728-12.7,4.233-21.944,7.257a64.325,64.325,0,0,0,17.8,36.069,22.517,22.517,0,0,1-25.27,12.4c-6.911-6.393-17.538-18.272-22.332-35.767-1.944-7.127-4.32-16.328-.821-26.609,2.2-6.436,5.615-10.065,12.484-17.322,2.246-2.376,12.052-12.527,29.417-21.771,10.151-5.4,15.291-8.121,21.382-6.868C745.146,609.245,749.9,615.768,751.928,619.007Z" transform="translate(-672.255 -607.302)" fill="#ec615b"/><path d="M735.819,632.2a68.578,68.578,0,0,1-9.287,18.488c-12.872,18.056-27.386,19.136-31.533,29.244-3.11,7.559-.907,21.382,27.17,48.812a27.246,27.246,0,0,0,6.091-3.413,26.421,26.421,0,0,0,6.479-7.041,69.056,69.056,0,0,1-10.281-13.866,70.1,70.1,0,0,1-7.991-22.808c9.806-3.326,17.71-5.788,22.98-7.43,10.54-3.2,15.939-4.579,20.13-9.892a26.659,26.659,0,0,0,4.363-9.114,36.015,36.015,0,0,0,.95-16.717C755.214,636.433,745.538,634.317,735.819,632.2Z" transform="translate(-684.568 -621.445)" fill="#666" opacity="0.21"/><path d="M779.76,645.916A60.238,60.238,0,0,1,775.181,659c-8.9,18.186-24.751,27.084-32.181,30.583,7.516-2.376,14.3-4.536,20.216-6.436,0,0,3.067-.994,10.583-3.672,9.59-3.456,11.231-4.32,12.872-5.961,2.894-2.937,3.672-6.22,4.838-11.015a47.175,47.175,0,0,0,.907-16.8C788.226,645.786,783.993,645.873,779.76,645.916Z" transform="translate(-712.441 -629.114)" fill="#666" opacity="0.16"/><path d="M745.543,745.2a57.371,57.371,0,0,0,9.719,45.831,19.423,19.423,0,0,0,4.881-3.974,19.91,19.91,0,0,0,3.067-4.708A63.7,63.7,0,0,1,745.543,745.2Z" transform="translate(-713.17 -685.633)" fill="#666" opacity="0.17"/></g><g transform="translate(1025.928 6229.726)"><path d="M749.318,413.967c-8.38,6.22-12.354,15.767-13.261,18.013a45.554,45.554,0,0,0-2.894,11.4,50.408,50.408,0,0,0,.518,15.9A57.652,57.652,0,0,1,721.5,498.243a77.484,77.484,0,0,0,30.756,14.3,76.044,76.044,0,0,0,28.337.777,310.735,310.735,0,0,0,10.324-35.766,320.043,320.043,0,0,0,5.831-34.73,20.749,20.749,0,0,1-10.065-10.065c-.173-.389-4.147-9.762.259-15.378,2.635-3.326,6.35-2.937,6.35-3.974C793.292,410.641,766.942,400.922,749.318,413.967Z" transform="translate(-721.5 -406.985)" fill="#fe7624"/><path d="M787.209,408.983c-.864,1.555-1.166,5.7-1.166,8.035a30.432,30.432,0,0,0,.562,6h0c0,3.844,4.147,22.851,1.253,40.907-3.326,20.734-14.514,36.717-19.957,43.671a65.64,65.64,0,0,0,19.136,5.529,66.845,66.845,0,0,0,19.827-.475c3.11-8.9,6.047-18.7,8.639-29.373a320.189,320.189,0,0,0,7.084-40.345c-2.246-1.469-9.33-6.479-11.058-15.162-.475-2.505-1.339-6.739,1.209-10.54a12.061,12.061,0,0,1,7.257-4.838C803.148,406.089,789.541,404.75,787.209,408.983Z" transform="translate(-747.857 -406.537)" fill="#fe7624" opacity="0.13"/><path d="M828.713,462.4a101.17,101.17,0,0,1-1.641,27.3c-5.4,27.343-20.777,45.615-29.071,54.082a55.018,55.018,0,0,0,25.918.432,263.015,263.015,0,0,0,14.3-55.594c.691-4.838,1.253-9.546,1.641-14.168A28.891,28.891,0,0,1,828.713,462.4Z" transform="translate(-764.955 -438.269)" fill="#fe7624" opacity="0.17"/><path d="M800.9,423.28a12.532,12.532,0,0,0,10.756,6.7c7,.173,12.656-5.831,11.836-7.948C822.93,420.559,818.654,419.7,800.9,423.28Z" transform="translate(-766.602 -414.614)" fill="#fe7624" opacity="0.14"/></g><g transform="translate(1036.908 6167.19)"><path d="M758.314,296.5c-1.382-.13-2.678,7.3-5.659,18.79-4.665,18.1-7.473,22.764-4.536,28.985.518,1.08,2.592,5.4,7.127,7.127,4.752,1.814,11.62.6,14.946-3.456,7.559-9.244-7.387-28.51-10.583-48.121C759.437,298.96,759.092,296.584,758.314,296.5Z" transform="translate(-746.918 -281.494)" fill="#2e186a"/><path d="M800.991,397.237a18.888,18.888,0,0,1,.432,7,20.415,20.415,0,0,1-1.123,4.536,25.591,25.591,0,0,0,8.121.907,24.7,24.7,0,0,0,9.028-2.246,42.237,42.237,0,0,1-1.814-4.752,44.677,44.677,0,0,1-1.814-8.38,11.023,11.023,0,0,1-6.091,3.628A11.235,11.235,0,0,1,800.991,397.237Z" transform="translate(-777.241 -337.051)" fill="#fff" stroke="#2e186a" stroke-miterlimit="10" stroke-width="2"/><path d="M770.651,292.34c-4.276,11.231-3.974,26.479,4.579,37.365a28.722,28.722,0,0,0,3.5,3.758,34.987,34.987,0,0,0,13.3-1.21,19.947,19.947,0,0,0,6.047-2.592,19.3,19.3,0,0,0,7.387-10.238,4.567,4.567,0,0,0,3.2,1.253c3.888-.259,7.9-7.473,5.529-12.311a8.6,8.6,0,0,0-5.184-4.06c-.864-3.413-4.017-13.952-13.952-19.87-2.549-1.512-10.194-6.047-16.717-2.937C774.02,283.528,772.335,287.934,770.651,292.34Z" transform="translate(-758.866 -272.369)" fill="#fff" stroke="#2e186a" stroke-miterlimit="10" stroke-width="2"/><g transform="translate(24.03 58.992)"><path d="M803.435,402.121a1.8,1.8,0,0,0-.432.173.64.64,0,0,0,.173,1.253c3.585.346,8.035-2.03,10.929-3.974.691-.475.043-1.6-.648-1.123-2.721,1.814-6.911,4.1-10.281,3.8.043.432.13.864.173,1.253a1.8,1.8,0,0,0,.432-.173c.778-.259.432-1.512-.346-1.209Z" transform="translate(-802.549 -398.334)" fill="#2e186a"/></g><g transform="translate(24.231 59.924)"><path d="M803.828,403.951a34.878,34.878,0,0,0,8.078-2.16c.778-.3.432-1.555-.346-1.253a35.464,35.464,0,0,1-8.078,2.16c-.821.13-.475,1.382.346,1.253Z" transform="translate(-803.014 -400.492)" fill="#2e186a"/></g><g transform="translate(24.603 61.199)"><path d="M804.49,404.936a8.212,8.212,0,0,0,2.894-.216.65.65,0,0,0-.346-1.253,7.2,7.2,0,0,1-2.549.173c-.821-.086-.821,1.209,0,1.3Z" transform="translate(-803.875 -403.442)" fill="#2e186a"/></g><g transform="translate(32.594 39.28)"><path d="M822.991,354a.649.649,0,0,0,0-1.3.649.649,0,0,0,0,1.3Z" transform="translate(-822.375 -352.7)" fill="#2e186a"/></g><g transform="translate(35.931 39.193)"><path d="M831.4,353.234v-.086a.648.648,0,0,0-1.3,0v.086a.664.664,0,0,0,.648.648.7.7,0,0,0,.648-.648Z" transform="translate(-830.1 -352.5)" fill="#2e186a"/></g><g transform="translate(34.581 41.785)"><path d="M827.591,359.8a.649.649,0,0,0,0-1.3.649.649,0,0,0,0,1.3Z" transform="translate(-826.975 -358.5)" fill="#2e186a"/></g><g transform="translate(12.422 36.343)"><path d="M776.291,347.2a.649.649,0,0,0,0-1.3.649.649,0,0,0,0,1.3Z" transform="translate(-775.675 -345.9)" fill="#2e186a"/></g><g transform="translate(15.472 35.392)"><path d="M783.369,345a.649.649,0,0,0,0-1.3.649.649,0,0,0,0,1.3Z" transform="translate(-782.737 -343.7)" fill="#2e186a"/></g><g transform="translate(14.722 38.416)"><path d="M781.648,352a.649.649,0,0,0,0-1.3.649.649,0,0,0,0,1.3Z" transform="translate(-781 -350.7)" fill="#2e186a"/></g><path d="M765.291,289.9a14.422,14.422,0,0,1-2.894-8.726,14.715,14.715,0,0,1,1.641-6.393,20.157,20.157,0,0,1,7.3-7.819,24.994,24.994,0,0,1,12.4-5.1c7.9-.778,13.909,3.11,18.056,5.831a37.089,37.089,0,0,1,12.4,13.477,49.548,49.548,0,0,1,3.11,8.207c1.166,3.715,1.166,4.752,3.11,13.3,1.9,8.423,2.16,8.726,1.987,10.583a19.367,19.367,0,0,1-5.27,11.317c-5.788,5.875-13.3,5.572-15.853,5.486-3.456-.13-4.924-1.08-5.486-1.469-3.413-2.462-3.628-7.084-3.628-8.035a19.061,19.061,0,0,0,4.752-3.844,19.348,19.348,0,0,0,4.536-9.46c3.326.993,6.652-.3,8.034-2.721,1.944-3.542-.777-8.682-3.844-9.114a4.29,4.29,0,0,0-3.456,1.3,42.269,42.269,0,0,0-8.207-12.4,43.108,43.108,0,0,0-14.557-10.022,25.216,25.216,0,0,0-7.646,5.1A23.9,23.9,0,0,0,765.291,289.9Z" transform="translate(-755.709 -261.767)" fill="#2e186a"/><path d="M782.6,363.6" transform="translate(-767.187 -319.612)" fill="#5222d0"/><path d="M811.172,306.2a28.3,28.3,0,0,1,4.406,15.378c-.259,16.674-16.285,26-17.279,26.522,1.037.173,11.145,1.771,18.186-5.4a19.527,19.527,0,0,0,5.184-10.238,7.1,7.1,0,0,0,4.276.086,6.133,6.133,0,0,0,4.147-3.542,5.694,5.694,0,0,0,.216-2.851,6.632,6.632,0,0,0-1.512-3.974,4.6,4.6,0,0,0-2.419-1.641,4.5,4.5,0,0,0-3.672,1.21,42.423,42.423,0,0,0-4.752-8.423A50.045,50.045,0,0,0,811.172,306.2Z" transform="translate(-776.105 -287.006)" fill="#666" opacity="0.14"/><path d="M819.944,411.275c-1.3-3.672-2.592-7.387-3.844-11.058,2.117-.691,4.276-1.425,6.393-2.117,1.166,3.8,2.289,7.646,3.456,11.447C823.962,410.152,821.975,410.713,819.944,411.275Z" transform="translate(-786.216 -339.209)" fill="#666" opacity="0.18"/><path d="M825.5,362.6a30,30,0,0,1-21.3,17.365c1.253.086,8.812.6,14.428-4.06a19.93,19.93,0,0,0,4.665-5.788,25.87,25.87,0,0,0,1.512-4.147A33.562,33.562,0,0,0,825.5,362.6Z" transform="translate(-779.456 -319.044)" fill="#666" opacity="0.21"/><path d="M826.715,410.927c-1.253-3.8-2.462-7.646-3.715-11.447,1.08-.346,2.16-.734,3.24-1.08,1.166,3.8,2.376,7.6,3.542,11.4C828.788,410.149,827.752,410.538,826.715,410.927Z" transform="translate(-790.136 -339.379)" fill="#666" opacity="0.18"/><g transform="translate(20.712 27.829)"><path d="M797.906,326.627c-1.166,4.622-2.117,9.287-2.894,14-.13.778-.389,1.685.432,2.117.95.518,3.24-.216,4.233-.432.821-.173.475-1.425-.346-1.253a9.4,9.4,0,0,1-2.592.475c-.864-.13-.648.043-.389-.95.346-1.469.518-3.067.821-4.536.6-3.024,1.253-6.047,1.987-9.028.216-.821-1.037-1.166-1.253-.389Z" transform="translate(-794.868 -326.191)" fill="#2e186a"/></g><g transform="translate(12.102 30.197)"><path d="M775.74,334.147a4.25,4.25,0,0,1,6.35-.13c.432.475,1.123-.216.691-.691a5.212,5.212,0,0,0-7.732.13c-.389.475.3,1.166.691.691Z" transform="translate(-774.934 -331.674)" fill="#2e186a"/></g><g transform="translate(29.928 31.402)"><path d="M816.936,336.207a4.918,4.918,0,0,1,6.825,1.512c.346.518,1.166.043.821-.475a5.9,5.9,0,0,0-8.164-1.857c-.518.3,0,1.166.518.821Z" transform="translate(-816.203 -334.464)" fill="#2e186a"/></g><g transform="translate(14.845 23.658)"><path d="M782.025,318.075a4.865,4.865,0,0,1,4.795.086.474.474,0,1,0,.475-.821,5.882,5.882,0,0,0-5.788-.086c-.518.259-.043,1.123.518.821Z" transform="translate(-781.284 -316.536)" fill="#2e186a"/></g><g transform="translate(30.576 24.403)"><path d="M818.307,319.314a7.592,7.592,0,0,1,5.831,1.469c.518.389.994-.475.475-.821a8.737,8.737,0,0,0-6.566-1.6c-.6.13-.346,1.037.259.95Z" transform="translate(-817.703 -318.261)" fill="#2e186a"/></g><g transform="translate(17.056 45.774)"><path d="M786.747,371.391a14.128,14.128,0,0,0,13.52-2.851c.475-.389-.216-1.08-.691-.691a13.049,13.049,0,0,1-12.57,2.592c-.6-.216-.864.734-.259.95Z" transform="translate(-786.403 -367.734)" fill="#2e186a"/></g></g></g></svg>