<svg xmlns="http://www.w3.org/2000/svg" width="220.509" height="235.346" viewBox="0 0 220.509 235.346"><g transform="translate(-141.482 -4170.248)"><g transform="translate(254.807 4170.249) rotate(56)" opacity="0.043"><g transform="translate(0 0)"><path d="M191.518,104.882c-.012-.266-1.355-.869-1.694-1.066l-4.2-2.426L179.406,97.8a25,25,0,0,0,4.336-13.481c.007-2.123,0-4.246,0-6.369V60.135a20.88,20.88,0,0,0-1.212-7.644c-1.707-4.436-5.016-8.059-8.677-10.994-9.209-7.372-20.66-11.2-32.285-12.439A87.121,87.121,0,0,0,121.341,29a135.626,135.626,0,0,0-17.725,3.995c-.131-2.266,0-4.586,0-6.857q0-3.442,0-6.883c0-2.283.1-4.588,0-6.867-.222-4.98-5.443-8.013-9.585-9.6a49.277,49.277,0,0,0-16-2.737A90.543,90.543,0,0,0,39.866,7.415q-2.359.983-4.677,2.063c-.751.348-1.5.7-2.242,1.065-.515.251-1.919,1.289-2.515,1.247-.542-.035-1.47-.848-1.928-1.111l-9.12-5.268L15.76,3.32c-.6-.348-.569-.424-1.122-.266A19.077,19.077,0,0,0,11.1,5.1Q8.769,6.446,6.434,7.792L4.11,9.135a6.84,6.84,0,0,1,0,2.128c0,.7-.033,1.461.037,2.151.141,1.386.039,2.886.039,4.281s.1,2.9-.039,4.28-.037,2.886-.037,4.281v4.26c0,.181.081.372.076.554,0,.028,0,.249,0,.254a7.023,7.023,0,0,1-.5.793A22.461,22.461,0,0,0,0,43.984c-.01,1.641.01,3.281.01,4.923V66.031c0,1.42-.034,2.84,0,4.258.15,6.541,4.034,11.959,9.091,15.8C21.151,95.243,37.948,97.7,52.675,96.509A122.921,122.921,0,0,0,65.084,94.8c-.138,2.744,0,5.532,0,8.283s0,5.519,0,8.278c0,1.388,0,2.773,0,4.159,0,.687,0,1.374,0,2.061-.038,6.1,6.524,9.376,11.425,11.417,13.819,5.751,29.859,4.559,44.257,2.034a107.267,107.267,0,0,0,21.764-6.045,78.3,78.3,0,0,0,8.984-4.3c.934-.524,1.059-.19,1.953.326L174.2,132.977l4.283,2.472c.519.3,1.541,1.2,2.154,1.243s1.673-.85,2.222-1.168l5.554-3.207q1.591-.917,3.183-1.837a8.838,8.838,0,0,1-.076-2.512c0-.81-.044-1.69.039-2.492a25.978,25.978,0,0,0,0-4.985c-.167-1.636.038-3.357.038-5.005s-.076-3.322-.076-4.982a50.033,50.033,0,0,0,.039-5.006C191.535,105.288,191.56,105.1,191.518,104.882ZM25.51,49.018c.431-.294,1.146-1.02,1.638-.939a4.77,4.77,0,0,1,1.141.658c.737.425,1.471.85,2.209,1.275A27.827,27.827,0,0,1,25.51,49.018Zm80.752,48.34c-1.2-.69-.832-2.855-.8-4.064q4.449,2.57,8.9,5.138C111.8,98.535,108.579,98.7,106.262,97.358Zm49.369-13.284q-7-4.041-14-8.085c6.074-.027,13.229,1.123,18.519,4.285C158.7,81.609,157.186,82.869,155.631,84.074Z" fill="#29394e"/><path d="M163.069,88.377q19.4-14.268,20.6-27.722,1.169-13.465-16.605-23.729a63.21,63.21,0,0,0-24.945-7.8q-14.142-1.563-24.577.5-10.455,2.045-38.311,10.354L37.416,15.83c13.258-5.983,21.6-8.008,24.949-6.074.611.354,1.313,1.529,2.137,3.526,1.471,3.739,3.448,6.3,5.893,7.709a24.757,24.757,0,0,0,13.528,3.036,28.891,28.891,0,0,0,13.651-3.654q6.293-3.633,6.041-8.1Q103.323,7.8,97.5,4.422,88.677-.667,70.268.1,51.881.878,30.434,11.8L14.969,2.868,4.108,9.138l15.466,8.93Q1.83,28.434.16,41.563-1.461,54.689,13.4,63.286q12.261,7.081,30.448,7.808,18.228.745,50.857-9.65l50.173,28.968a81.75,81.75,0,0,1-23.821,7.4q-11.352,1.541-14.8-.448c-1.066-.615-1.379-2.061-.956-4.342q1.139-5.8-5.157-9.443-5.511-3.184-14.058-3.266a29.505,29.505,0,0,0-15.326,3.82c-3.588,2.071-5.465,4.724-5.68,7.98s2.057,6.23,6.793,8.964q14.43,8.334,39.218,5.675,24.767-2.682,41.117-12.1l28.522,16.465,10.861-6.268ZM21.516,47.346q-7.1-4.094-5.7-11.445t11.2-13.536l38.46,22.2Q33.654,54.345,21.516,47.346ZM155.627,84.08,109.006,57.162q24.964-7.676,35.306-6.7t15.6,4.024a15.522,15.522,0,0,1,7.968,11.538Q169.086,73.659,155.627,84.08Z" fill="#aec199"/></g></g><g transform="translate(141.482 4170.249)"><g transform="translate(113.325 0) rotate(56)" opacity="0.043"><g transform="translate(0 0)"><path d="M191.518,104.882c-.012-.266-1.355-.869-1.694-1.066l-4.2-2.426L179.406,97.8a25,25,0,0,0,4.336-13.481c.007-2.123,0-4.246,0-6.369V60.135a20.88,20.88,0,0,0-1.212-7.644c-1.707-4.436-5.016-8.059-8.677-10.994-9.209-7.372-20.66-11.2-32.285-12.439A87.121,87.121,0,0,0,121.341,29a135.626,135.626,0,0,0-17.725,3.995c-.131-2.266,0-4.586,0-6.857q0-3.442,0-6.883c0-2.283.1-4.588,0-6.867-.222-4.98-5.443-8.013-9.585-9.6a49.277,49.277,0,0,0-16-2.737A90.543,90.543,0,0,0,39.866,7.415q-2.359.983-4.677,2.063c-.751.348-1.5.7-2.242,1.065-.515.251-1.919,1.289-2.515,1.247-.542-.035-1.47-.848-1.928-1.111l-9.12-5.268L15.76,3.32c-.6-.348-.569-.424-1.122-.266A19.077,19.077,0,0,0,11.1,5.1Q8.769,6.446,6.434,7.792L4.11,9.135a6.84,6.84,0,0,1,0,2.128c0,.7-.033,1.461.037,2.151.141,1.386.039,2.886.039,4.281s.1,2.9-.039,4.28-.037,2.886-.037,4.281v4.26c0,.181.081.372.076.554,0,.028,0,.249,0,.254a7.023,7.023,0,0,1-.5.793A22.461,22.461,0,0,0,0,43.984c-.01,1.641.01,3.281.01,4.923V66.031c0,1.42-.034,2.84,0,4.258.15,6.541,4.034,11.959,9.091,15.8C21.151,95.243,37.948,97.7,52.675,96.509A122.921,122.921,0,0,0,65.084,94.8c-.138,2.744,0,5.532,0,8.283s0,5.519,0,8.278c0,1.388,0,2.773,0,4.159,0,.687,0,1.374,0,2.061-.038,6.1,6.524,9.376,11.425,11.417,13.819,5.751,29.859,4.559,44.257,2.034a107.267,107.267,0,0,0,21.764-6.045,78.3,78.3,0,0,0,8.984-4.3c.934-.524,1.059-.19,1.953.326L174.2,132.977l4.283,2.472c.519.3,1.541,1.2,2.154,1.243s1.673-.85,2.222-1.168l5.554-3.207q1.591-.917,3.183-1.837a8.838,8.838,0,0,1-.076-2.512c0-.81-.044-1.69.039-2.492a25.978,25.978,0,0,0,0-4.985c-.167-1.636.038-3.357.038-5.005s-.076-3.322-.076-4.982a50.033,50.033,0,0,0,.039-5.006C191.535,105.288,191.56,105.1,191.518,104.882ZM25.51,49.018c.431-.294,1.146-1.02,1.638-.939a4.77,4.77,0,0,1,1.141.658c.737.425,1.471.85,2.209,1.275A27.827,27.827,0,0,1,25.51,49.018Zm80.752,48.34c-1.2-.69-.832-2.855-.8-4.064q4.449,2.57,8.9,5.138C111.8,98.535,108.579,98.7,106.262,97.358Zm49.369-13.284q-7-4.041-14-8.085c6.074-.027,13.229,1.123,18.519,4.285C158.7,81.609,157.186,82.869,155.631,84.074Z" fill="#29394e"/><path d="M163.069,88.377q19.4-14.268,20.6-27.722,1.169-13.465-16.605-23.729a63.21,63.21,0,0,0-24.945-7.8q-14.142-1.563-24.577.5-10.455,2.045-38.311,10.354L37.416,15.83c13.258-5.983,21.6-8.008,24.949-6.074.611.354,1.313,1.529,2.137,3.526,1.471,3.739,3.448,6.3,5.893,7.709a24.757,24.757,0,0,0,13.528,3.036,28.891,28.891,0,0,0,13.651-3.654q6.293-3.633,6.041-8.1Q103.323,7.8,97.5,4.422,88.677-.667,70.268.1,51.881.878,30.434,11.8L14.969,2.868,4.108,9.138l15.466,8.93Q1.83,28.434.16,41.563-1.461,54.689,13.4,63.286q12.261,7.081,30.448,7.808,18.228.745,50.857-9.65l50.173,28.968a81.75,81.75,0,0,1-23.821,7.4q-11.352,1.541-14.8-.448c-1.066-.615-1.379-2.061-.956-4.342q1.139-5.8-5.157-9.443-5.511-3.184-14.058-3.266a29.505,29.505,0,0,0-15.326,3.82c-3.588,2.071-5.465,4.724-5.68,7.98s2.057,6.23,6.793,8.964q14.43,8.334,39.218,5.675,24.767-2.682,41.117-12.1l28.522,16.465,10.861-6.268ZM21.516,47.346q-7.1-4.094-5.7-11.445t11.2-13.536l38.46,22.2Q33.654,54.345,21.516,47.346ZM155.627,84.08,109.006,57.162q24.964-7.676,35.306-6.7t15.6,4.024a15.522,15.522,0,0,1,7.968,11.538Q169.086,73.659,155.627,84.08Z" fill="#aec199"/></g></g></g></g></svg>