<svg xmlns="http://www.w3.org/2000/svg" width="296.446" height="255.612" viewBox="0 0 296.446 255.612"><g transform="translate(4.954 1.002)"><path d="M606.5,736.5q.972,64.6,1.987,129.243,82.03,18.531,164.016,37.019-.13-74.773-.3-149.545Q689.329,744.794,606.5,736.5Z" transform="translate(-606.5 -649.487)" fill="#fff" stroke="#2e186a" stroke-miterlimit="10" stroke-width="2"/><path d="M1111.131,710.2q-.324,71.274-.648,142.548-59.676,17.559-119.394,35.075-.194-75.615-.389-151.187Q1050.894,723.483,1111.131,710.2Z" transform="translate(-824.74 -634.548)" fill="#fff" stroke="#161616" stroke-miterlimit="10" stroke-width="2"/><path d="M772.043,715.749q-81.965-8.488-163.843-16.976L716.147,671.3q88.25,8.488,176.543,17.019Q832.367,701.991,772.043,715.749Z" transform="translate(-607.466 -612.451)" fill="#fff" stroke="#2e186a" stroke-miterlimit="10" stroke-width="2"/><path d="M914.687,689.051,872.614,686.2q-41.468,15.162-82.894,30.324-.389,68.747-.821,137.494c12.4,2.981,24.795,5.918,37.192,8.9q-.778-71.209-1.6-142.375Q869.591,704.861,914.687,689.051Z" transform="translate(-710.11 -620.915)" fill="#2e186a" stroke="#161616" stroke-miterlimit="10" stroke-width="2"/><path d="M892.189,858.9c11.447-3.5,22.937-7,34.384-10.5q-.583-71.209-1.209-142.375-84.1-9.914-168.249-19.827c-9.719,2.419-19.4,4.838-29.114,7.3q82.289,12.764,164.621,25.486Q892.426,788.964,892.189,858.9Z" transform="translate(-675.516 -620.915)" fill="#2e186a" stroke="#161616" stroke-miterlimit="10" stroke-width="2"/><path d="M1033.062,543.527c3.974,1.641,4.622,11.922,2.462,19.957-8.294,30.8-61.987,43.283-64.535,38.574-1.08-2.03,8.164-5.875,27.6-25.14C1020.016,555.665,1027.835,541.41,1033.062,543.527Z" transform="translate(-813.495 -539.753)" fill="#fff" stroke="#161616" stroke-miterlimit="10" stroke-width="2"/><path d="M858.042,569.651c1.037,4.881,3.585,10.54,19.957,26.263,10.972,10.54,16.5,15.81,18.056,14.773,3.153-2.16-7.3-22.937-17.235-37.754-5.1-7.6-14.039-20.864-18.574-19.136C857.005,555.008,856.746,563.56,858.042,569.651Z" transform="translate(-748.972 -545.618)" fill="#fff" stroke="#161616" stroke-miterlimit="10" stroke-width="2"/><ellipse cx="11.49" cy="12.138" rx="11.49" ry="12.138" transform="translate(138.79 58.849)" fill="#2e186a" stroke="#161616" stroke-miterlimit="10" stroke-width="2"/><path d="M954.9,601.126c6.523-6.35,13.132-13.089,19.741-20.129,14.6-15.551,27.6-30.885,39.136-45.745,2.505-.3,7.43-.6,9.5,2.2,3.024,4.017-1.771,11.965-4.017,15.723C1007.815,572.228,971.4,592.487,954.9,601.126Z" transform="translate(-804.404 -535.063)" fill="#2e186a" stroke="#161616" stroke-miterlimit="10" stroke-width="2"/><path d="M864.457,551.982c1.6-1.469,6.566,1.512,9.5,3.283,24.363,14.644,27.343,49.287,27.818,55.594C881.908,585.2,860.44,555.74,864.457,551.982Z" transform="translate(-752.751 -544.45)" fill="#2e186a" stroke="#161616" stroke-miterlimit="10" stroke-width="2"/><g transform="translate(8.412 109.043)"><path d="M626.591,788.8c19.7.346,39.481.259,59.136,1.166,19.87.907,39.568,3.672,59.179,7.084,11.058,1.944,22.117,4.06,33.175,6.22.821.173,1.166-1.08.346-1.253-19.352-3.758-38.747-7.473-58.315-10.108-19.784-2.635-39.568-3.5-59.524-3.844-11.317-.173-22.678-.389-34-.562a.649.649,0,0,0,0,1.3Z" transform="translate(-625.975 -787.5)" fill="#161616"/></g><g transform="translate(176.062 99.79)"><path d="M1014.869,790.45a775.264,775.264,0,0,1,100.993-23.11c.821-.13.475-1.382-.346-1.253a778.505,778.505,0,0,0-100.993,23.11.651.651,0,0,0,.346,1.253Z" transform="translate(-1014.085 -766.078)" fill="#161616"/></g><g transform="translate(117.407 183.027)"><path d="M878.3,959.391v39.222a.649.649,0,0,0,1.3,0V959.391a.649.649,0,0,0-1.3,0Z" transform="translate(-878.3 -958.775)" fill="#161616"/></g><g transform="translate(121.684 214.399)"><path d="M888.2,1032.048v19.611a.649.649,0,0,0,1.3,0v-19.611a.648.648,0,0,0-1.3,0Z" transform="translate(-888.2 -1031.4)" fill="#161616"/></g><g transform="translate(211.1 149.723)"><path d="M1095.2,882.291v31.36a.649.649,0,0,0,1.3,0v-31.36a.649.649,0,0,0-1.3,0Z" transform="translate(-1095.2 -881.675)" fill="#161616"/></g><g transform="translate(213.433 193.222)"><path d="M1100.6,982.99v21.166a.649.649,0,0,0,1.3,0V982.991a.649.649,0,0,0-1.3,0Z" transform="translate(-1100.6 -982.375)" fill="#161616"/></g><g transform="translate(55.55 148.039)"><path d="M735.1,878.391v16.976a.649.649,0,0,0,1.3,0V878.391a.649.649,0,0,0-1.3,0Z" transform="translate(-735.1 -877.775)" fill="#161616"/></g><g transform="translate(51.879 169.593)"><path d="M726.6,928.291v13.736a.649.649,0,0,0,1.3,0V928.291a.649.649,0,0,0-1.3,0Z" transform="translate(-726.6 -927.675)" fill="#161616"/></g><path d="M1109.048,855.7q-58.574,17.818-117.148,35.68V742.611q58.9-13.477,117.8-26.911Q1109.437,785.678,1109.048,855.7Z" transform="translate(-825.422 -637.672)" fill="#666" opacity="0.21"/><path d="M1111.129,912.837q-59.676,16.328-119.308,32.656Q991.432,880.375,991,815.3q26.371,24.168,52.786,48.38,33.434-11.08,66.911-22.16Q1110.956,877.157,1111.129,912.837Z" transform="translate(-824.91 -694.248)" fill="#666" stroke="#2e186a" stroke-width="1" opacity="0.21"/><path d="M1038.809,548.988c-2.117-.432-4.363,14.125-11.749,26.091-6.7,10.842-20.043,23.542-49.46,30.885a85.975,85.975,0,0,0,16.371-3.11c7.041-2.03,36.76-10.669,44.579-33.866C1041.746,559.4,1040.537,549.333,1038.809,548.988Z" transform="translate(-817.299 -542.968)" fill="#666" opacity="0.14"/><path d="M872.4,763.2q18.726,12.7,37.494,25.4c-11.49-1.987-22.937-3.931-34.427-5.918a572.357,572.357,0,0,0,6.782,77.019c2.894,18.445,6.479,35.594,10.453,51.317-6.091-1.685-12.225-3.369-18.315-5.1Q873.415,834.582,872.4,763.2Z" transform="translate(-757.541 -664.654)" fill="#666" opacity="0.2"/><path d="M879.4,749.5q27.538-3.952,55.118-7.9-12.117-1.62-24.233-3.2c-5.572,2.073-10.151,3.5-13.348,4.449a96.8,96.8,0,0,0-9.417,2.981A76.413,76.413,0,0,0,879.4,749.5Z" transform="translate(-761.517 -650.566)" fill="#666" opacity="0.13"/></g></svg>