<svg xmlns="http://www.w3.org/2000/svg" width="376.28" height="707.491" viewBox="0 0 376.28 707.491"><g transform="matrix(1, 0.017, -0.017, 1, -586.901, -429.266)"><path d="M694.1,1067.7c4-5,6.4-7.3,7.3-6.7q3.45,2.1-24.7,60.7-69.15,3.3-70.1-3.4-.75-5.85,51.3-19.4l22.8-48.3C685.2,1056.3,689.6,1062,694.1,1067.7Z" fill="#2e186a"/><path d="M717.5,748.9c-3.8,26.9-8.2,54.3-13,82.1-14.2,81.6-31.5,158.9-50.8,231.6a46.731,46.731,0,0,0,22.1,13.5,50.439,50.439,0,0,0,31.2-1.8q33.9-118.5,67.7-237.1c29.7-32.4,24-74.3,1.3-89.5C761,737.7,737.8,739.1,717.5,748.9Z" fill="#2e186a"/><path d="M718.7,750.6c2.9.3,1.1,45.2-1.2,85.6a1025.95,1025.95,0,0,1-42.6,239.3,40.616,40.616,0,0,1-7.4-2.8,41.312,41.312,0,0,1-13.2-10.4c6.1-21.8,14.9-54.6,24-94.8C706.8,841.6,714.6,750.3,718.7,750.6Z" fill="#2e186a" opacity="0.15"/><path d="M701.8,855.5c-2.2,26.4-5.4,54.2-9.9,83.2a1202.731,1202.731,0,0,1-27.7,131.2,13.146,13.146,0,0,1-5-2,12.721,12.721,0,0,1-4.5-5.2q12-49.95,23.6-100.8Q690.45,908.2,701.8,855.5Z" fill="#2e186a" opacity="0.13"/><path d="M885.6,1064.7c-4.4-5-7.1-7.3-8.1-6.7q-3.75,2.1,27.1,60.7c50.7,2.2,76.3,1.1,77-3.4q.9-5.85-56.4-19.4c-8.4-16.1-16.7-32.2-25.1-48.3C895.3,1053.3,890.5,1059,885.6,1064.7Z" fill="#2e1a64"/><path d="M755.9,772.8c-3.7,17.8,4.7,32.5,7.8,37.4q49.5,132.3,98.9,264.7a65.479,65.479,0,0,0,30.6-3.1,61.6,61.6,0,0,0,27.3-19,828.885,828.885,0,0,1-39.7-101.1c-19.9-62.5-46.7-122.9-65.7-185.7-3.2-10.5-8.6-28.9-20.8-31.2C780.1,732.2,760.2,751.8,755.9,772.8Z" fill="#2e1a64"/><path d="M786.9,735.4c-6.9,5,5.9,31.7,12,45,14.7,32.1,22.3,67,36.4,99.4,15.2,34.9,37.5,91.4,69,186.2a40.356,40.356,0,0,0,7.8-4.9,38.51,38.51,0,0,0,7.8-8.5c-7.9-17.1-19.3-43-31.3-75.3-4.3-11.5-4.8-13.6-9.5-28-5-15.3-12.8-38.5-14.4-43.2-7.5-21.6-7.5-18.7-21.6-57-3-8.1-7.1-19.3-12-33.9-2.4-7.1-4.2-12.8-5.5-16.9-.2-.6-6.8-21.1-16.1-45.4-2.4-6.4-5-12.7-11.5-16C797.6,736.6,790.3,732.9,786.9,735.4Z" fill="#2e1a64" opacity="0.1"/><path d="M835.7,828.5c-.6.2,12.8,41.9,76.9,232.1,2.6-2.5,5.2-5,7.8-7.6-3.9-8.7-10-22.5-17-39.7-16.1-39.3-23-62.2-41-112.7C852.4,872.5,836.3,828.3,835.7,828.5Z" fill="#2e1a64" opacity="0.12"/><path d="M864,456.1c-2.3.2-3.9-6.6-6.4-6.5-2,.1-3.4,4.6-3.5,5.2-1.2,4.1-.6,8.3,3.5,19.3,1.2,3.2,2.8,7.3,4.9,12a237.219,237.219,0,0,1-6.7,31.3c-4.5,15.7-12.1,41.5-32.2,68.1a180.84,180.84,0,0,1-29,30.3,60.316,60.316,0,0,0-4.9,25.4c.1,3.3.5,18.2,6,19.6,3.7.9,8.1-4.5,10.3-7.2,22.4-28.3,33.7-42.4,38.2-50.6,10.5-18.8,19-34.1,26.2-57.1a243.515,243.515,0,0,0,9.2-42.3c2.3-3.8,5.5-9.2,9.2-15.8,10.1-18,13.7-26.1,15.9-35.1,2.3-9.3,2.7-17.3.4-18.2-1.7-.6-3.8,2.5-5.7,1.7-2.8-1.2.2-9.5-2.8-11.3-1.1-.7-3.3-.6-7.8,2.4-3.1-6.5-5.1-7.7-6.4-7.6-2.7.4-4,7.8-4.6,16.2-.8-4.1-2.8-12.7-5.3-12.7-2.1,0-4.3,6.3-4.9,11.3-.9,6.9,1.1,11.9-1.4,18.9C865.7,454.4,865,455.9,864,456.1Z" fill="#fff"/><path d="M860.5,484.8c-.3,13.2-4.5,25.9-8.5,38.4a287.471,287.471,0,0,1-13.7,34.7c-10,20.8-23.5,39.8-41.2,54.7-1.5,1.2.7,3.4,2.1,2.1,18.4-15.4,32.2-35.3,42.4-56.9a284.925,284.925,0,0,0,13.5-34.6c4-12.4,8.1-25.1,8.3-38.3.2-2-2.8-2-2.9-.1Z" fill="#161616"/><path d="M878.3,502.2c-2.7,31.6-16.5,61.3-30.5,89.3-12.8,25.6-28.3,50.5-51.4,68-1.5,1.2,0,3.8,1.5,2.6,23.6-17.9,39.5-43,52.5-69.1,14.3-28.5,28.1-58.7,30.9-90.8.1-1.9-2.9-1.9-3,0Z" fill="#161616"/><path d="M863,483.2c-3.4-7.3-6.6-15.8-7.1-23.9-.1-1.1-.3-5.8.5-6.4,2.5-1.7,3.2,1.2,3.8,2.4,1.1,2.1,1.9,3.6,4,4.8a1.5,1.5,0,0,0,1.5-2.6c-3.5-2-3.2-7.5-7.2-9-3.4-1.3-4.6,1.5-5.3,4.4-2.4,10.3,2.8,22.6,7,31.8a1.591,1.591,0,0,0,2.8-1.5Z" fill="#161616"/><path d="M866.4,459.2c3.4-7.8,2.6-15.8,2.9-24.1.1-1.9-.3-6.3.8-7.8,2-2.5,3.5,2.8,4,4.5a49.789,49.789,0,0,1,1.3,16.3c-.2,1.9,2.8,1.9,3,0,.3-3.8-.1-30.3-8.6-26-3.5,1.8-3.3,8.9-3.4,12-.3,7.9.8,16-2.5,23.5-.8,1.8,1.8,3.4,2.5,1.6Z" fill="#161616"/><path d="M878.7,448.3c.6-3.6,1.1-7.2,1.4-10.9.3-4.1-.3-8.7,1-12.6,1.1-3.6,1.7-4.3,3.2-1.1a22.5,22.5,0,0,1,1.8,7.1c.5,4.5.9,9.8-.5,14.2-.6,1.9,2.3,2.6,2.9.8,1.6-5.3,1.2-11.8.3-17.2-.5-2.9-2.1-10.5-6-10.5-3.4,0-4.8,5.7-5.1,8.1-1,7-.8,14.2-1.9,21.2-.3,2,2.6,2.8,2.9.9Z" fill="#161616"/><path d="M889.6,445.7a73.9,73.9,0,0,0,.4-9.4c.1-2.7-.1-9.9,3.3-9.6,2.5.2,2.3,2.3,2.5,4.5.1,1.5.1,3.1.1,4.6a58.328,58.328,0,0,1-.9,11c-.4,1.9,2.5,2.7,2.9.8,1-4.9,4.4-25-4.6-25.2-8.3-.2-6.1,18.8-6.7,23.4-.2,1.8,2.8,1.8,3-.1Z" fill="#161616"/><path d="M900.3,436.9c1.2-.1,2.3-.2,3.5-.3a23.246,23.246,0,0,1,.5,2.8,47.076,47.076,0,0,1,.3,5.3,39.2,39.2,0,0,1-1.5,9.6,81,81,0,0,1-7.3,17.5c-5.5,10.4-11.4,20.7-17.1,31-.9,1.7,1.7,3.2,2.6,1.5,4.8-8.7,9.7-17.4,14.5-26.1,4.5-8.1,9-16.6,10.9-25.8,1-5,3.1-16.5-2.1-20-3.3-2.3-7.6.8-7.2,4.6.1,1.8,3.1,1.8,2.9-.1Z" fill="#161616"/><path d="M895.2,425.6c-1.5.1-1.9,6.3-2.9,13.7-1.6,13-3.4,27.6-9.6,39.8a61.542,61.542,0,0,1-12.1,16.3,254.245,254.245,0,0,1-6.1,29.3c-5.6,21-13.8,50.8-37,78.7a158.761,158.761,0,0,1-30.3,28c-.4,9.8-.8,19.5-1.3,29.3a162.5,162.5,0,0,0,24.5-22.9c12.2-14.1,20.1-30.1,35.4-61.5,12.2-25.1,15.5-34.8,17.5-41.8a199.334,199.334,0,0,0,6.7-31.9,246.386,246.386,0,0,0,15.3-27.7c6.1-13,15.9-34,9.9-39.2-1.7-1.4-4.2-1.3-6.1-1C898.2,430.5,896.6,425.5,895.2,425.6Z" fill="#353535" opacity="0.08"/><path d="M891.4,484.2c-5.3,5.6-10.6,11.3-15.9,16.9a147.28,147.28,0,0,1-3.5,20.4,151.3,151.3,0,0,1-12.1,31.9c-5.9,11.8-13.6,29.8-21,56.7,3.3-5.7,20.8-36.1,30.6-62.1,3.7-10,5.7-15.2,7.3-23.3,2-9.7,1.5-14.2,4.1-22A57.818,57.818,0,0,1,891.4,484.2Z" fill="#353535" opacity="0.1"/><path d="M613.6,434.2c-3.2.9-3.3,9.6-2.8,14.5a46.79,46.79,0,0,0,5.7,18c6.4,11.8,12.6,22.9,18.9,33.6a220.475,220.475,0,0,0,5,28.4c4.9,20,11.2,33.6,19.9,52.3,13.8,29.5,22,46.4,39.5,64.4a172.96,172.96,0,0,0,16.7,14.9c1.5-1.7,10.7-12.3,8.9-27.4A35.358,35.358,0,0,0,714,611.1a143.8,143.8,0,0,1-19.6-19.7c-15.8-19.6-22.4-39.2-32-68.6-2.6-8-6.1-19.3-9.6-33.2,1.9-6.2,3.5-11.1,4.6-14.2,3.3-9.5,5.4-14.3,3.9-20.4-.4-1.6-1.2-4.6-3.2-5.2-2.3-.6-5.8,2.2-8.5,7.3a166.949,166.949,0,0,1-2.5-20.1c-.4-7.4-.2-12.8-1.8-13.2-1.7-.4-4.3,5.6-4.6,6.2a27.077,27.077,0,0,0-2.1,14.2c.8-18.6-1.3-23.3-3.6-23.9-1.9-.5-4.3,2-5,2.8-4.7,5-2.3,12.3-2.1,12.8-2.1-11.1-4.3-11.8-5-11.8-1.8-.1-3.6,3.9-4.3,6.2a13.035,13.035,0,0,0,0,6.6C617,435.4,615.1,433.8,613.6,434.2Z" fill="#fff"/><path d="M651.9,485c.3,12.8,4,25.2,7.8,37.4a297.424,297.424,0,0,0,13.4,35.5c9.9,21.5,23.3,41.4,41.2,56.9,1.5,1.3,3.6-.9,2.1-2.1-17.3-15-30.3-34-40-54.7a269.718,269.718,0,0,1-13.3-34.7c-4-12.5-8-25.2-8.3-38.4,0-1.8-3-1.8-2.9.1Z" fill="#2e186a"/><path d="M634.7,502.5c2.6,31.6,15.8,61.3,29.4,89.6,12.6,26.3,28.1,51.9,51.3,70.1,1.5,1.2,3.6-.9,2.1-2.1-22.7-17.7-37.7-42.5-50.2-68-13.7-28.2-27.1-58-29.7-89.5-.1-2-3.1-2-2.9-.1Z" fill="#2e186a"/><path d="M655,485c4.2-9.4,9.5-22.1,6.6-32.6-.7-2.6-2-4.7-5-3.5-3.9,1.5-3.5,7-7,9a1.5,1.5,0,0,0,1.5,2.6,8.7,8.7,0,0,0,3.4-3.7c.4-.8.8-2.6,1.5-3.2,3.9-2.9,3.2,3.4,3.2,5.2-.2,8.4-3.5,17.2-6.9,24.8-.7,1.6,1.9,3.1,2.7,1.4Z" fill="#2e186a"/><path d="M651.6,457.9c-3.1-7.2-2.2-15-2.4-22.6-.1-3.2.3-11-3.4-12.9-8.3-4.3-8.8,22.3-8.5,26,.2,1.9,3.2,1.9,3,0a50.462,50.462,0,0,1,1-15.5c.3-1.3,1.4-7.3,3.9-6.2,1.1.5,1,7.4,1,8.6.2,8.3-.5,16.3,2.8,24.1.8,1.8,3.4.3,2.6-1.5Z" fill="#2e186a"/><path d="M640,447.7c-1.1-7-.9-14.1-1.9-21-.3-2.5-1.6-8.2-5.1-8.3-3.6-.1-5.2,7.1-5.7,9.7-1.1,5.7-1.5,12.4.1,18a1.506,1.506,0,0,0,2.9-.8c-1.2-4-.9-8.6-.6-12.8a27.751,27.751,0,0,1,1.5-7.5c1.5-3.8,2.1-4.6,3.5,0,1.1,3.7.6,8,.9,11.8a116.966,116.966,0,0,0,1.5,11.7c.3,1.9,3.2,1.1,2.9-.8Z" fill="#2e186a"/><path d="M629.5,445.9c-.6-4.5,1.6-23.7-6.6-23.4-8.8.3-5.4,20.4-4.5,25.2.4,1.9,3.3,1.1,2.9-.8a57.657,57.657,0,0,1-.9-11c0-2.7-.8-8.8,2.4-9.1,3.3-.3,3.1,7,3.2,9.6.1,3.2,0,6.3.4,9.4.3,2,3.4,2.1,3.1.1Z" fill="#2e186a"/><path d="M619.2,437.1c.4-3.7-3.7-6.9-7-4.6-4.9,3.4-3.1,14.3-2.2,19.1,1.6,8.9,5.6,17.1,9.9,25.1,4.9,9.3,10,18.5,14.9,27.7.9,1.7,3.5.2,2.6-1.5-5.7-10.6-11.6-21.1-17.1-31.8a75.452,75.452,0,0,1-6.6-16.7,43.617,43.617,0,0,1-1.4-9.6c0-1.2,0-2.4.1-3.7a15.828,15.828,0,0,1,.5-3.8c.1-1.5,1.3-1.6,3.4-.3-.3,2,2.7,2,2.9.1Z" fill="#2e186a"/><path d="M623.7,425c2.8,1,.8,13,.3,17.5-1.1,10.3,1.2,25.9,17.5,48.1a301.348,301.348,0,0,0,29.3,82.2,296.858,296.858,0,0,0,43.7,61.8c1,8.8,1.9,17.6,2.9,26.5a123.554,123.554,0,0,1-23.3-21c-7.4-8.7-11.8-16.3-18.2-28.4-16.5-31.3-24.8-47-30.6-66a249.69,249.69,0,0,1-9.2-44,162.514,162.514,0,0,1-16.9-26.8c-7-13.9-8.8-22.7-8.6-30.6.2-9,1.8-10.2,2.5-10.5,1.5-.6,3.5.6,4.8,1.6-.1-.5-1.1-5,1.9-8.3C620.3,426.7,622.3,424.5,623.7,425Z" fill="#2e186a" opacity="0.09"/><path d="M615.7,460.7c1-.5,7.1,8.1,11.5,15.3a146.747,146.747,0,0,1,15.6,35.7c6.6,22.9,15.1,42.3,32.2,81,5.2,11.7,13.1,28.7,24.2,48.8a146.8,146.8,0,0,1-12.7-13.4c-4.3-5.1-18.4-22.4-33.1-62.1a381.427,381.427,0,0,1-17.2-62.1c-3.4-5.8-8.1-14.1-13.1-24.5C620.9,474.7,614.6,461.3,615.7,460.7Z" fill="#2e186a" opacity="0.09"/><path d="M757.7,602.4a92.63,92.63,0,0,0-17.8,0c-9.4,1-17.8,1.8-24.1,7.3-4.7,4.1-6.1,9.2-8.7,19.3a87.421,87.421,0,0,0-3.3,24.7c.4,20,8,22.6,12,46.8,2,11.7,1.8,20.8,1.7,31.7a237.749,237.749,0,0,1-3.3,36.3,79.55,79.55,0,0,0,19.9,11.6,74.994,74.994,0,0,0,41.1,4.6A71.383,71.383,0,0,0,813.4,765c-7-18.9-7.7-34.1-7.1-44.4.8-12.5,3.4-15.2,7.1-42.1,2.8-20,2.7-28.3,2.5-32.8-.7-18-1.1-27.1-7.1-33.2C802.9,606.5,787.8,605.1,757.7,602.4Z" fill="#fe7624"/><path d="M752.7,601.7a90.912,90.912,0,0,0-22.1,1.2c-6.2,1.1-12.6,2.2-16.7,7.3-7.5,9.2-10.7,21.9-11.3,33.5-1.5,29.6,13.2,56.6,18.2,85.2.3,1.9,3.2,1.1,2.9-.8-4.5-25.8-16.9-49.9-18.1-76.3-.5-12.1,1.3-24.5,7.5-35.1,2.1-3.6,4.4-7.1,8.5-8.6a66.6,66.6,0,0,1,8.8-2.2,91.775,91.775,0,0,1,22.2-1.3c2,.2,2-2.8.1-2.9Z" fill="#fe7624"/><path d="M713.9,700.1a225.306,225.306,0,0,1-1,66.1c-.3,1.9,2.6,2.7,2.9.8a223.959,223.959,0,0,0,1.1-66.9c-.3-1.9-3.3-1.9-3,0Z" fill="#fe7624"/><path d="M765,604.4c13.4-.8,29.9.8,41.3,8.8,6.9,4.9,7.2,13.1,7.9,20.8a120.265,120.265,0,0,1,.5,20.8c-2,27.3-13,53.2-12.9,80.8a1.5,1.5,0,0,0,3,0c-.1-31.1,14.1-60.4,13.1-91.6-.4-11.9,0-27.2-11.4-34.2-11.9-7.3-27.8-9.2-41.5-8.4-2,.1-2,3.1,0,3Z" fill="#fe7624"/><path d="M804.9,705.6a226.857,226.857,0,0,0,7,58,1.5,1.5,0,0,0,2.9-.8,225.067,225.067,0,0,1-6.9-57.2,1.5,1.5,0,0,0-3,0Z" fill="#fe7624"/><path d="M713.1,769c13.6,11.3,30.9,18.1,48.7,18.2,20.1.1,36.9-9.7,52.4-21.6,1.5-1.2,0-3.8-1.5-2.6-14.7,11.2-30.4,20.8-49.3,21.1a74.164,74.164,0,0,1-48.1-17.3c-1.6-1.2-3.7.9-2.2,2.2Z" fill="#fe7624"/><path d="M788.8,603.7a135.85,135.85,0,0,1,9.1,32.9c3.9,28.3-2.7,50-10.6,75.1a340.11,340.11,0,0,1-33.2,73.4,73.2,73.2,0,0,0,19.9-.9,77.86,77.86,0,0,0,38.9-19.9c-.7-5-1.9-12.8-3.6-22.2-2.7-14.7-3.6-15.8-3.9-21.1-.4-6.5.7-5.7,6.6-33.2a240.275,240.275,0,0,0,5-33.4c.1-1.1.1-2.2.2-3.3.5-16.5.7-26.6-6.3-35.2C804.2,607.7,794.5,604.8,788.8,603.7Z" fill="#fe7624" opacity="0.11"/><path d="M817.7,651.6c-.7-.2-4.2,5.3-12.4,27.2a638.985,638.985,0,0,0-28.7,103.7,62.941,62.941,0,0,0,17.2-4.9,57.255,57.255,0,0,0,18.4-13.3,160.8,160.8,0,0,1-6.3-45.1C806,681.8,819.3,652.1,817.7,651.6Z" fill="#fe7624" opacity="0.08"/><path d="M721.6,529.6c-3.9,8-2.8,16.1-1.9,19.9-.4,0-5.1-.2-7.6,3.2-3,4-.2,9,.3,9.8.7,1.2,1.6,2.9,3.5,3.4,3,.9,5.8-1.7,6-1.9a53.514,53.514,0,0,0,7.9,13.5A57.459,57.459,0,0,0,747,592.1c.2,4.8.4,9.5.5,14.3a13.7,13.7,0,0,0,6.8,3.4c6.7,1.3,11.9-3.1,12.5-3.7q-.15-9-.3-18a48.467,48.467,0,0,0,8.5-8.5,45.94,45.94,0,0,0,8.7-19.9,15.671,15.671,0,0,0,5.2.8c2.2,0,5-.1,6.3-1.9,1.4-2-.1-4.9-1.6-8-1.5-2.9-2.6-3.3-3-3.4a4.9,4.9,0,0,0-3.8.8,34.068,34.068,0,0,0-1.9-15.9c-.7-1.9-4.7-12.1-14.4-17.5C754.6,506,729.6,513.3,721.6,529.6Z" fill="#fff"/><path d="M719.8,529.8c-5.9,25.9,3.7,59.3,33.1,64.9,1.9.4,2.7-2.5.8-2.9-27.8-5.3-36.5-36.8-31-61.2.4-1.9-2.5-2.7-2.9-.8Z" fill="#2e186a"/><path d="M753.3,594.6c4.1,1.2,9.7-2.7,13-4.9a43.767,43.767,0,0,0,11.4-10.9c7.7-10.3,10.6-23.3,9.4-35.9-.2-1.9-3.2-1.9-3,0,1.1,10.9-.9,22-6.8,31.3a45.516,45.516,0,0,1-9.2,10.4c-2.9,2.4-10,8.2-14,7.1a1.5,1.5,0,0,0-.8,2.9Z" fill="#2e186a"/><path d="M744.5,592.2a24.969,24.969,0,0,1,1.2,12.7c-.3,1.9,2.6,2.7,2.9.8a27.84,27.84,0,0,0-1.2-14.3c-.6-1.8-3.5-1.1-2.9.8Z" fill="#2e186a"/><path d="M765.2,588.8a42.775,42.775,0,0,0,1.2,15.1,1.5,1.5,0,0,0,2.9-.8,43.075,43.075,0,0,1-1.1-14.3c.2-1.9-2.8-1.9-3,0Z" fill="#2e186a"/><path d="M745.8,606.8c6.9,7.7,21.3,7.5,23.8-4.2.4-1.9-2.5-2.7-2.9-.8-2.1,9.5-13.3,8.9-18.8,2.9-1.3-1.4-3.4.7-2.1,2.1Z" fill="#2e186a"/><path d="M746.4,594.2c5.8,5.3,14.9,4.1,18.6-3,.9-1.7-1.7-3.2-2.6-1.5a8.744,8.744,0,0,1-13.9,2.4c-1.4-1.3-3.5.8-2.1,2.1Z" fill="#2e1a64"/><path d="M752.4,596.4a10.709,10.709,0,0,1,4,.4,1.5,1.5,0,0,0,.8-2.9,15.7,15.7,0,0,0-4.8-.5c-1.9.1-1.9,3.1,0,3Z" fill="#2e186a"/><path d="M720.1,564.3c-4.1,3.3-7.7-1.3-8.1-5.2-.5-3.8,2.8-8.5,7-5.9,1.6,1,3.1-1.6,1.5-2.6-6.2-3.9-12.2,2.7-11.5,8.9.8,6.6,7.3,11.7,13.2,6.9,1.5-1.2-.6-3.3-2.1-2.1Z" fill="#2e186a"/><path d="M787.6,549.7c3.2-3,6.3,2.7,6.2,5.3a4.906,4.906,0,0,1-2.2,4.1c-1.1.7-3.7,1.6-4.6.2-1-1.6-3.6-.1-2.6,1.5,1.5,2.5,4.9,2.6,7.4,1.6a7.827,7.827,0,0,0,4.9-7c.3-5.5-6-12.8-11.3-7.8-1.3,1.3.8,3.5,2.2,2.1Z" fill="#2e186a"/><path d="M747.4,529.5a94.613,94.613,0,0,1-.3,20.6c-.4,4.7,2.1,6.7,5.8,9.7,1.5,1.2,3.6-.9,2.1-2.1-2.6-2.2-4.9-3.7-4.8-7.7a59.28,59.28,0,0,1,.7-5.9,71.121,71.121,0,0,0-.4-14.6c-.3-1.9-3.3-1.9-3.1,0Z" fill="#2e186a"/><path d="M730.7,543.7c-.1-2.2,3.1-3.6,4.9-3.5,2.1,0,3.2,1.7,4.3,3.3s3.7.1,2.6-1.5c-2-2.9-4.3-5.3-8.1-4.7-3.2.6-6.9,2.9-6.8,6.5a1.553,1.553,0,0,0,3.1-.1Z" fill="#2e186a"/><path d="M765,541a6.01,6.01,0,0,1,11.3,1.4c.4,1.9,3.3,1.1,2.9-.8-1.8-8.2-12.9-9.5-16.8-2.2-.8,1.7,1.7,3.3,2.6,1.6Z" fill="#2e186a"/><path d="M727.8,533.1a10.893,10.893,0,0,1,7.7-4.7c1.9-.2,1.9-3.2,0-3a13.932,13.932,0,0,0-10.3,6.2c-1.1,1.6,1.5,3.1,2.6,1.5Z" fill="#2e186a"/><path d="M765,527.5a12.631,12.631,0,0,1,9.5,3.3c1.4,1.3,3.6-.8,2.1-2.1a16.123,16.123,0,0,0-11.7-4.2c-1.9.1-1.9,3.1.1,3Z" fill="#2e186a"/><path d="M731.5,551.4v-.2a1.5,1.5,0,0,0-3,0v.2a1.538,1.538,0,0,0,1.5,1.5,1.473,1.473,0,0,0,1.5-1.5Z" fill="#2e186a"/><path d="M736.1,550.7h.2a1.5,1.5,0,0,0,0-3h-.2a1.538,1.538,0,0,0-1.5,1.5,1.612,1.612,0,0,0,1.5,1.5Z" fill="#2e186a"/><path d="M735.9,557.3h.2a1.5,1.5,0,0,0,0-3h-.2a1.5,1.5,0,0,0,0,3Z" fill="#2e186a"/><path d="M768.3,548.5h.2a1.5,1.5,0,0,0,0-3h-.2a1.538,1.538,0,0,0-1.5,1.5,1.612,1.612,0,0,0,1.5,1.5Z" fill="#2e186a"/><path d="M777.1,548.3a1.5,1.5,0,0,0,0-3,1.5,1.5,0,0,0,0,3Z" fill="#2e186a"/><path d="M773.8,553.1a1.5,1.5,0,0,0,0-3,1.5,1.5,0,0,0,0,3Z" fill="#2e186a"/><path d="M740.7,566.2a14.2,14.2,0,0,0,26-2.5c.6-1.8-2.3-2.6-2.9-.8-3.1,9.6-15.7,10.4-20.5,1.8-.9-1.7-3.5-.2-2.6,1.5Z" fill="#2e186a"/><path d="M705,541.7a70.444,70.444,0,0,0-11.1,27.7c-1.5,9.1-4.1,25,5.9,37.6,2.7,3.4,12.6,14.5,26.2,12.7,9.1-1.2,18.8-8,20.6-17.5a18.182,18.182,0,0,0-1-10.4,46.661,46.661,0,0,1-18-15.1,41.212,41.212,0,0,1-5.8-11.5,6.538,6.538,0,0,1-4.3,1.5,6.4,6.4,0,0,1-4.6-2.4c-3.1-3.5-2.8-10.7,1.3-13.1a8.085,8.085,0,0,1,5.8-.5,32.788,32.788,0,0,1,3-19.9c2.8-5.6,7.1-9.7,17-15.9,8.2-5.1,11.8-4.7,13.1-4.5,4.4.8,7.1,4.3,8.5,6.1,6.3,8,14.5,18.3,24.3,31a7.133,7.133,0,0,1,5.8-.3,7.37,7.37,0,0,1,3.4,3.9,7.193,7.193,0,0,1,.9,4.6,7.056,7.056,0,0,1-4.9,5.4,7.281,7.281,0,0,1-6.2-1,47.819,47.819,0,0,1-6.2,15.6,49.289,49.289,0,0,1-11.5,12.7,22.269,22.269,0,0,0,1,11.8c3,8.2,10.8,13.4,18,15,13.5,2.9,24.4-7.2,27.2-9.9,9.6-9,15.4-24.1,10.5-38.6-3.7-10.8-11.9-16.7-15.1-18.8a148.423,148.423,0,0,0-11.1-21c-9-14.1-15.2-23.6-26.5-27.1a33.189,33.189,0,0,0-17.4-.3,33.906,33.906,0,0,0-15.7,0C721.5,503.6,708.9,520.2,705,541.7Z" fill="#2e186a"/><path d="M773.6,530.6c-.8.3.8,5.5,1.6,10.7.1.7,1.8,13.6-3,25.9-5.4,13.8-16.6,21.2-21.5,24,3.1.7,6.3,1.4,9.4,2.2.9,5.4,1.7,10.9,2.6,16.3,2-2.4,4.1-4.8,6.1-7.2a24.58,24.58,0,0,0,5,6.5,26.234,26.234,0,0,0,15.2,6.7c9.6.9,16.7-4.3,20.7-7.2A37.5,37.5,0,0,0,823,563.2a53.563,53.563,0,0,1-9.8,19.8c-1.4,1.8-14,17.5-21.8,14.8-6.7-2.3-9-18.1-5.7-38.8a5.6,5.6,0,0,0,4.1,2c2.9-.1,4.2-3,4.4-3.3,1.4-3-.3-6.3-2-8.1a8.962,8.962,0,0,0-6.1-2.8,60.552,60.552,0,0,1-5.2-5.9C776.1,535,774.3,530.4,773.6,530.6Z" fill="#2e186a" opacity="0.08"/><path d="M749.4,552.8c.8-1.3,5.2-1.6,6.5,1.1,1,2.1-.3,4.9-1.7,5.2C752,559.7,748.3,554.5,749.4,552.8Z" fill="#353535" opacity="0.09"/><path d="M726.3,595.1c-2.1,3.6-6.3,6.9-10.5,6.5-2.5-.2-5.3-1.7-15-17.2-3.2-5.1-5.7-9.5-7.4-12.4a39.7,39.7,0,0,0,3,29.1c1.7,3.3,5.7,10.6,14.2,15.2a25.625,25.625,0,0,0,12.8,3.7c9.9-.1,16.3-6.7,17.6-8.1,2.3-2.3,5.6-5.8,6.1-11.3a16,16,0,0,0-2.6-10.2c-3-4.6-6.2-4.1-11.3-8.5-6.5-5.6-8.3-12.5-9.1-12.2C722.9,570.4,732,585.3,726.3,595.1Z" fill="#353535" opacity="0.09"/><path d="M785.3,553c-.6-.2-2.4,6.1-7.6,14.6a86.586,86.586,0,0,1-23.1,24.8,41.922,41.922,0,0,0,19.6-11.7C785,569.1,786.2,553.3,785.3,553Z" fill="#2e186a" opacity="0.13"/></g></svg>