<svg xmlns="http://www.w3.org/2000/svg" width="1952.542" height="585.375" viewBox="0 0 1952.542 585.375"><g transform="translate(-580.911 -379.178) rotate(-16)"><g transform="translate(497.842 1028.198)"><path d="M408.161,1030.721c110.764,0,213.738,21.3,322.222,28.255,105.444,6.694,209.749-4.347,313.483-11.823,52.247-3.738,105.064-6.694,158.072-5.477,54.717,1.3,105.444,8.085,155.221,18.17,45.028,9.215,89.105,19.909,136.793,26.081,45.407,5.912,92.145,6.172,138.5,2.434,109.054-8.781,209.368-35.992,322.032-35.731,3.61,0,3.61-2.608,0-2.608-98.6-.261-188.47,20.343-281.945,31.558-48.637,5.825-99.365,8.955-149.142,4.781-50.347-4.173-96.7-14.779-142.682-24.516-45.6-9.65-91.765-18.083-141.922-21.213-51.677-3.217-103.924-1.826-155.411,1.3-104.494,6.173-208.419,19.213-314.433,16.257-122.543-3.478-236.727-29.994-360.41-29.994-3.99-.087-3.99,2.521-.38,2.521Z" transform="translate(-405.499 -1028.198)" fill="rgba(46,24,106,0.32)"/></g><g transform="translate(344.304 1030.267)"><g transform="translate(0 0)"><path d="M328.133,1041.464a684.556,684.556,0,0,1,69.726-8.346c3.61-.261,2.09-2.782-1.52-2.521a638.769,638.769,0,0,0-69.726,8.346c-3.42.609-1.9,3.13,1.52,2.521Z" transform="translate(-324.685 -1030.578)" fill="rgba(46,24,106,0.32)"/></g></g><g transform="translate(302.884 1051.235)"><g transform="translate(0 0)"><path d="M307.094,1067.219c127.293-25.647,264.656,3.3,389.1,18,36.478,4.347,73.716,7.563,111.524,8.52,3.61.087,3.61-2.521,0-2.608-137.172-3.391-261.806-38.426-400.688-36.34-35.338.522-70.3,3.738-102.594,10.259-3.42.609-.57,2.869,2.66,2.173Z" transform="translate(-302.884 -1054.697)" fill="rgba(46,24,106,0.32)"/></g></g><g transform="translate(892.816 1081.521)"><path d="M617.018,1119.585c29.258-2,57-6.433,84.925-10.78,27.738-4.26,55.667-7.911,84.165-10.606a1445.633,1445.633,0,0,1,179.16-5.39c34.768,1.13,69.346,3.564,103.164,7.129,3.61.348,5.13-2.173,1.52-2.521-117.414-12.432-241.667-10.172-356.421,6.868-32.488,4.781-64.217,10.432-98.225,12.78-3.42.261-1.9,2.782,1.71,2.521Z" transform="translate(-613.391 -1089.532)" fill="rgba(46,24,106,0.32)"/></g><g transform="translate(1575.76 1070.875)"><path d="M974.27,1121.55c39.518,9.3,84.736,9.476,127.863,6.781,49.967-3.043,98.984-9.129,147.432-15.736,96.325-13.128,192.27-29.124,293.534-31.906,55.667-1.565,111.714,1.13,163.961,10.259,3.42.609,4.94-1.913,1.52-2.521-191.319-33.558-385.109,17.822-570.918,34.514-52.627,4.695-110.954,7.911-160.351-3.738-3.42-.7-6.27,1.565-3.04,2.347Z" transform="translate(-972.855 -1077.287)" fill="rgba(46,24,106,0.32)"/></g><g transform="translate(2157.403 1051.106)"><path d="M1281.85,1057.2c43.128-.522,85.875,3.3,125.393,11.476,3.23.7,6.27-1.565,2.85-2.26-40.278-8.346-83.975-12.345-128.243-11.823-3.8.087-3.8,2.695,0,2.608Z" transform="translate(-1279 -1054.548)" fill="rgba(46,24,106,0.32)"/></g></g></svg>