<svg xmlns="http://www.w3.org/2000/svg" width="902.767" height="714.113" viewBox="0 0 902.767 714.113">
  <g id="Group_854" data-name="Group 854" transform="translate(-891.233 -178.801)">
    <g id="Group_853" data-name="Group 853">
      <g id="Group_852" data-name="Group 852">
        <g id="Group_58" data-name="Group 58" transform="translate(-92.808 11)">
          <g id="Group_49" data-name="Group 49" transform="translate(1052.808 167.801)">
            <g id="Group_51" data-name="Group 51" transform="translate(0 0)">
              <g id="Group_48" data-name="Group 48" transform="translate(0)">
                <path id="Path_220" data-name="Path 220" d="M221.031,736.886c45.268,45.385,156.4,28.757,204.549,0,156.328-93.338,430.2-248.725,442.609-473.828,5.275-95.669-83.592-145.917-120.708-160.65C658.366,67,560.541,56.386,463.963,52.288c-100.836-4.28-209.076-.947-299.823,45.767-34.411,17.684-66.866,40.431-89.078,71.392-22.557,31.471-35.543,68.952-39,106.778C30.523,337.237,47.8,398.412,73.949,454.4s61,107.817,92.991,161C187.829,650.051,182.976,698.659,221.031,736.886Z" transform="translate(-35.03 -50.918)" fill="#92e3a9"/>
              </g>
              <g id="Group_50" data-name="Group 50" transform="translate(0)">
                <path id="Path_221" data-name="Path 221" d="M221.031,736.886c45.268,45.385,156.4,28.757,204.549,0,156.328-93.338,430.2-248.725,442.609-473.828,5.275-95.669-83.592-145.917-120.708-160.65C658.366,67,560.541,56.386,463.963,52.288c-100.836-4.28-209.076-.947-299.823,45.767-34.411,17.684-66.866,40.431-89.078,71.392-22.557,31.471-35.543,68.952-39,106.778C30.523,337.237,47.8,398.412,73.949,454.4s61,107.817,92.991,161C187.829,650.051,182.976,698.659,221.031,736.886Z" transform="translate(-35.03 -50.918)" fill="#fff" opacity="0.7"/>
              </g>
            </g>
          </g>
          <path id="Path_192" data-name="Path 192" d="M388.166,224.325a34.2,34.2,0,0,1-10.109,1.536,10.041,10.041,0,0,1-7.45-4.241,4.883,4.883,0,0,1,2.292-6.877c3.805-1.582,10.04,2.407,12.447,5.2C385.461,220.175,388.235,224.3,388.166,224.325Z" transform="translate(1290.396 168.324)" fill="rgba(254,118,36,0.89)"/>
          <path id="Path_196" data-name="Path 196" d="M438.346,216.566s-7.221-6.671-8.894-10.728c-1.421-3.439-2.292-8.23-.252-11.645a6.625,6.625,0,0,1,9.582-2.292c4.585,3.324,4.241,13.41,2.659,18.155C441.3,210.583,438.415,216.726,438.346,216.566Z" transform="translate(1365.379 137.755)" fill="rgba(254,118,36,0.89)"/>
          <path id="Path_200" data-name="Path 200" d="M410.927,206.789s-9.6-2.155-13.089-4.814c-2.957-2.292-6.1-5.983-6.075-9.926a6.625,6.625,0,0,1,7.152-6.877c5.548.6,10.384,9.444,11.462,14.35C410.4,200.027,411.019,206.812,410.927,206.789Z" transform="translate(1318.548 130.545)" fill="rgba(254,118,36,0.89)"/>
          <g id="developer_outline" data-name="developer/outline" transform="translate(1042.075 317.525)">
            <g id="Group_711" data-name="Group 711" transform="translate(-7 -0.23)">
              <path id="handle_2_" d="M13.028.035a13.1,13.1,0,0,1,2.551.058A1.449,1.449,0,0,1,15.2,2.965a10.289,10.289,0,0,0-1.978-.039,11.14,11.14,0,0,0,1.624,22.221,1.449,1.449,0,0,1,.221,2.889,14.038,14.038,0,1,1-2.036-28Z" transform="translate(108.813 363.062)" fill="#2e186a"/>
              <path id="ug" d="M0,0V41.433A14.468,14.468,0,0,0,14.487,55.92H38.922A14.468,14.468,0,0,0,53.409,41.433V0Z" transform="translate(125.649 353.179)" fill="#2e186a"/>
            </g>
            <path id="Path" d="M123.186,0a1.449,1.449,0,0,1,.085,2.895l-.085,0H60.94C24.955,2.9-.6,31.528,3.288,67.165l.127,1.082L15.2,162.22a1.449,1.449,0,0,1-2.862.445l-.013-.084L.54,68.607C-4.158,31.121,22.309.616,59.8.009L60.94,0Z" transform="translate(139.658 190.983)" fill="#2e186a"/>
            <path id="hoodie_4_" d="M126.5.016a1.449,1.449,0,0,1,1.5.763l1.689,3.233a1.448,1.448,0,0,1,.134.374l.017.1,2.028,14.584a1.449,1.449,0,0,1-.2.955l-.055.084-7.726,10.865a1.449,1.449,0,0,1-2.412-1.6l.051-.076,7.393-10.4L127,5.133l-1.1-2.1-.155.024c-18.823,2.943-30.6,8.316-36,15.694l-.165.229c-4.692,6.611-4.332,14.913.561,24.7a1.449,1.449,0,0,1-1.018,2.07c-31.8,6.211-57.68,32.879-73.12,71.169C2.1,151.418-1.026,190.695,7.982,215.9l1.463,4.133c3.1,8.7,4.974,12.932,7.769,16.69,3.592,4.829,8.045,7.276,14.189,7.334a1.449,1.449,0,1,1-.027,2.9c-7.088-.067-12.373-2.972-16.487-8.5l-.233-.317c-2.815-3.872-4.723-8.143-7.689-16.425l-1.653-4.665-.061-.171c-9.269-25.94-6.085-65.929,8.073-101.038C28.784,77.5,54.617,50.435,86.611,43.319l.14-.031-.1-.214c-4.4-9.767-4.5-18.426.413-25.539l.16-.229C93.207,8.881,106.092,3.052,126.5.016Z" transform="translate(179.058 160.657)" fill="#2e186a"/>
            <g id="tshirt" transform="translate(292.059 189.873)">
              <g id="Group" transform="translate(0 0)">
                <path id="Path-2" data-name="Path" d="M31.727,39.984v-.29c2.27.241,4.491.241,6.664-1.594,5.312-4.588,7.2-5.988,7.2-5.988s.483.579,1.352,1.545C48,31.727,49.063,29.7,50.173,27.67,27.236,9.9,9.706.918,9.706.918L8.4,0,0,10.286S13.714,19.7,31.727,39.984Z" fill="#fe7624"/>
                <path id="Path-3" data-name="Path" d="M62.1,179.495S25.4,80.789,30.085,50.222C32.644,33.513,28.636,14.632,23.131,0L12.6.676,0,30.423a22.169,22.169,0,0,0,2.463.483S1.98,34.045.773,41.192c-.821,4.781.579,5.312,1.642,8.644a9.575,9.575,0,0,1,1.3,8.644c-.386,1.256-1.3,13.232-3.38,29.457q5.795,12.242,11.01,26.125c22.262,59.349,19.944,65.819,19.944,65.819Z" transform="translate(80.5 27.187)" fill="#fe7624"/>
              </g>
            </g>
            <path id="hoodie" d="M.079.98a1.449,1.449,0,0,1,1.84-.9c14.674,5.027,24.916,12.965,31.6,23.33,4.844,7.513,7.422,15.332,9.131,25.213l.07.409.978.746c46.753,35.805,80.16,76.178,102.358,118.537l.676,1.3a278.891,278.891,0,0,1,19.15,46.426,187.5,187.5,0,0,1,6.209,26.113,1.449,1.449,0,1,1-2.864.438l-.113-.724a187.093,187.093,0,0,0-6-24.977,276,276,0,0,0-18.952-45.942C121.934,128.053,88.144,87.164,40.509,50.99a1.449,1.449,0,0,1-.553-.918c-1.648-9.99-4.123-17.727-8.873-25.093C24.755,15.165,15.042,7.637.98,2.82A1.449,1.449,0,0,1,.079.98Z" transform="translate(388.301 163.023)" fill="#2e186a"/>
            <path id="string" d="M2.084,0a1.932,1.932,0,0,1,1.861,1.9l0,.125-.01.32c-.008.293-.017.638-.025,1.033A218.674,218.674,0,0,0,6.186,40.023,112.8,112.8,0,0,0,9.608,55.55a1.932,1.932,0,1,1-3.7,1.127A116.573,116.573,0,0,1,2.368,40.613,221.892,221.892,0,0,1,.034,3.936L.062,2.561l.021-.7A1.932,1.932,0,0,1,1.988,0Z" transform="translate(409.371 260.183)" fill="#2e186a"/>
            <path id="stripe" d="M6.712,0c.338,2.076.628,3.96.869,5.6C10.527,24.821,4.2,37.618,0,46.455c11.252-7.968,18.881-23.131,22.7-34.672C18.109,8.113,11.783,3.767,6.712,0Z" transform="translate(421.525 212.472)" fill="#2e186a"/>
            <path id="stripe_II" d="M30.181,0C22.31,1.594,9.368,5.553,0,11.976c6.519,3.573,38.825,22.89,65.192,34.479.193-.1,1.642-2.511,2.366-3.477C52.974,31.437,37.618,14.922,30.181,0Z" transform="translate(238.891 204.118)" fill="#2e186a"/>
            <path id="ear_3_" d="M13.5.051a1.449,1.449,0,0,1,.843,2.771l-.253.075c-.077.024-.174.054-.289.092-.394.13-.836.291-1.313.485a22,22,0,0,0-4,2.107c-5.332,3.59-7.25,8.51-3.973,15.434,2.056,4.35,4.929,6.2,8.595,6.179,2.92-.014,6.164-1.184,9.71-3.2a1.449,1.449,0,1,1,1.431,2.52c-3.94,2.237-7.6,3.558-11.127,3.575-4.8.023-8.7-2.479-11.228-7.837C-2.055,13.907.44,7.507,6.869,3.178A24.855,24.855,0,0,1,11.395.789,19.8,19.8,0,0,1,13.5.051Z" transform="translate(276.444 125.743)" fill="#2e186a"/>
            <path id="face" d="M29.547,95.875h0a1.447,1.447,0,0,1-1.284-.775,101.834,101.834,0,0,0-9.2-13.357c-3.983-5.059-7.669-9.15-9.62-10.676l-.067-.052L4.41,72.67a1.446,1.446,0,0,1-1.9-1.288l-.078-.263c-.04-.137-.087-.3-.142-.5l-.081-.3-.119-.452c-.284-1.1-.549-2.28-.789-3.516A67.649,67.649,0,0,1,.059,50.522,55.172,55.172,0,0,1,3.068,34.617C8.274,19.826,19.8,9.3,37.336,3.332l.29-.1a63.151,63.151,0,0,1,7.736-2.046A57.806,57.806,0,0,1,56.673,0c.863,0,1.726.023,2.566.07a37.819,37.819,0,0,1,8.816,1.484A28.24,28.24,0,0,1,75.59,5.06a26.13,26.13,0,0,1,6.084,5.658,31.744,31.744,0,0,1,4.463,7.941,193.058,193.058,0,0,1,7.951,25.626A252.706,252.706,0,0,1,99.072,71.84a1.449,1.449,0,0,1-1.437,1.629h-.054c-.206-.007-.426-.011-.654-.011a56.085,56.085,0,0,0-7.569.7l-.97.145c-1.38.212-2.876.465-4.445.752-1.837.336-3.735.709-5.64,1.109l-.525.111-.731.157-1.02.225-.974.262c-6.044,1.644-12.1,3.616-17.99,5.862l-.91.349a178.489,178.489,0,0,0-19.015,8.623c-1.839.974-3.547,1.927-5.077,2.832L31.7,94.8c-.162.1-.325.195-.5.3l-.439.27-.426.269A1.443,1.443,0,0,1,29.547,95.875ZM9.6,67.963a1.458,1.458,0,0,1,.67.164l.085.048c1.779,1.086,5.34,4.808,9.525,9.957A124.244,124.244,0,0,1,30.022,92.305l.053.091.511-.3c1.352-.8,2.839-1.636,4.418-2.483l.779-.415A181.314,181.314,0,0,1,55.107,80.43,195.7,195.7,0,0,1,75.29,73.855l.052-.013.861-.191.973-.21,1.221-.256c1.71-.354,3.4-.683,5.027-.98,1.592-.291,3.114-.548,4.525-.765a71.6,71.6,0,0,1,8-.864l.037,0-.12-.9a248.325,248.325,0,0,0-4.791-25.508,190.531,190.531,0,0,0-7.353-23.722l-.283-.723a28.8,28.8,0,0,0-4.023-7.176,23.335,23.335,0,0,0-5.479-5.1A25.387,25.387,0,0,0,67.121,4.3,34.954,34.954,0,0,0,59.08,2.963c-.786-.043-1.595-.065-2.405-.065a54.935,54.935,0,0,0-10.742,1.13,59.893,59.893,0,0,0-7.658,2.046l-.52.179A66.642,66.642,0,0,0,26.2,11.487a50.194,50.194,0,0,0-9.092,6.7,43.269,43.269,0,0,0-6.759,8.066A44.183,44.183,0,0,0,5.8,35.579,52.3,52.3,0,0,0,2.955,50.691,64.761,64.761,0,0,0,4.14,65.8c.251,1.292.529,2.514.826,3.632l4.177-1.393A1.449,1.449,0,0,1,9.6,67.963Z" transform="translate(291.15 58.842)" fill="#2e186a"/>
            <path id="beard" d="M11.227.075a1.449,1.449,0,0,1,1.215.137c3.784,2.31,14.8,15.9,19.525,23.89l.194.332.511-.3.606-.356c1.342-.781,2.875-1.635,4.591-2.543a181.271,181.271,0,0,1,19.325-8.765A195.1,195.1,0,0,1,76.378,6.16l1-.268.687-.155,1.192-.258.531-.113c1.819-.384,3.748-.767,5.7-1.125,1.346-.247,2.657-.472,3.92-.673l.627-.1a55.139,55.139,0,0,1,9.844-.861,1.449,1.449,0,0,1,1.357,1.163l.068.355.134.75q.047.269.1.569l.11.679c.184,1.155.365,2.43.537,3.808a106.8,106.8,0,0,1,.427,24.543q-.047.429-.1.854a1.449,1.449,0,1,1-2.876-.352q.05-.409.1-.821a104.026,104.026,0,0,0-.422-23.867l-.1-.794c-.154-1.173-.314-2.259-.475-3.249L98.6,5.491l-.146,0a63.87,63.87,0,0,0-7.66.79l-.323.049c-1.425.219-2.921.474-4.466.757-1.687.309-3.356.638-4.949.969l-1.453.307-1.169.255-.351.079-.95.256c-6.211,1.69-12.217,3.662-17.99,5.863l-.91.349a178.387,178.387,0,0,0-19.015,8.623l-.763.407c-1.5.8-2.842,1.56-4.023,2.253l-.656.388-.5.3-.758.469-.108.069a1.449,1.449,0,0,1-2.071-.541C26.805,20.4,15.882,6.616,11.651,3.2l-.193-.152L3.48,5.724l2.683,5.427,2.059,4.141c1.543,3.1,3.078,6.159,4.569,9.114l2.067,4.079c4.362,8.575,7.662,14.827,9.468,17.853C30.1,55.974,33.5,58.845,46.544,63.986a44.793,44.793,0,0,0,15.7,2.655,1.449,1.449,0,0,1,0,2.9A47.658,47.658,0,0,1,45.49,66.684l-1.2-.479c-12.42-5-16.368-8.358-22.085-17.778l-.364-.6c-1.827-3.061-5.079-9.217-9.382-17.669l-1.263-2.487c-1.964-3.877-4.019-7.975-6.08-12.118l-1.77-3.564L.149,5.515A1.449,1.449,0,0,1,.908,3.534L.989,3.5Z" transform="translate(289.064 126.757)" fill="#2e186a"/>
            <path id="hair" d="M19.265,136.029A140.5,140.5,0,0,1,3.377,112.512C-2.9,100.487-.293,85.566,10.09,76.874c8.692-7.292,17-5.36,17-5.36S12.069,56.254,23.9,36.455A29.589,29.589,0,0,1,42.927,22.74,28.591,28.591,0,0,1,72.384,33.268s11.155-43.075,59.059-31.2c4.829,1.207,11.2,6.326,14.584,10,20.427,22.262-18.012,64.274-41.385,72.677C79,94.017,62.484,93.534,52.392,89.188,59.684,91.409,59.925,132.311,19.265,136.029Z" transform="translate(272.505 0)" fill="#2e186a"/>
            <path id="nose" d="M1.492.125A1.932,1.932,0,0,1,3.943,1.159l.037.092,9.079,24.1a1.932,1.932,0,0,1-1.728,2.611l-.09,0-9.32-.048a1.932,1.932,0,0,1-.076-3.861l.1,0,6.512.034L.365,2.613A1.932,1.932,0,0,1,1.4.162Z" transform="translate(363.625 120.769)" fill="#2e186a"/>
            <circle id="mouth" cx="4.588" cy="4.588" r="4.588" transform="translate(356.237 158.484)" fill="#2e186a"/>
            <ellipse id="eye_II" cx="2.608" cy="4.056" rx="2.608" ry="4.056" transform="matrix(0.97, -0.243, 0.243, 0.97, 372.023, 117.41)" fill="#2e186a"/>
            <ellipse id="eye" cx="2.608" cy="4.056" rx="2.608" ry="4.056" transform="matrix(0.97, -0.243, 0.243, 0.97, 347.447, 123.114)" fill="#2e186a"/>
            <path id="brow_II" d="M11.7.009a1.932,1.932,0,0,1,.37,3.845A9.89,9.89,0,0,0,5.749,6.8,10.476,10.476,0,0,0,4.162,8.88l-.11.194a6.2,6.2,0,0,0-.3.6l-.014.036A1.932,1.932,0,1,1,.126,8.346a10.087,10.087,0,0,1,.695-1.4A14.314,14.314,0,0,1,2.993,4.094,13.735,13.735,0,0,1,11.7.009Z" transform="translate(333.009 102.081)" fill="#2e186a"/>
            <path id="brow" d="M2.686.7A10.782,10.782,0,0,1,8.037.126a7.607,7.607,0,0,1,5.347,3.718,1.932,1.932,0,0,1-3.3,2.01,3.759,3.759,0,0,0-2.7-1.92,7.106,7.106,0,0,0-3.436.413c-.31.108-.593.223-.841.336l-.217.1-.04.021A1.932,1.932,0,1,1,1.009,1.414l.166-.087A12.383,12.383,0,0,1,2.686.7Z" transform="translate(366.184 94.673)" fill="#2e186a"/>
            <path id="laptop" d="M287.331,0H99.578a5.315,5.315,0,0,0-5.167,4.1L68.286,114.593H.246s-3.767,19.461,18.205,19.461H258.163a5.315,5.315,0,0,0,5.167-4.1L292.5,6.519A5.307,5.307,0,0,0,287.331,0Z" transform="translate(366.518 271.918)" fill="#2e186a"/>
            <path id="handle_5_" d="M4.622.042a14.037,14.037,0,1,1,2.018,28,15.7,15.7,0,0,1-3.185-.111,1.449,1.449,0,0,1,.43-2.865,12.876,12.876,0,0,0,2.582.084A11.14,11.14,0,0,0,4.853,2.93a12.691,12.691,0,0,0-2.946.607A1.449,1.449,0,1,1,.991.788,15.606,15.606,0,0,1,4.622.042Z" transform="translate(715.322 353.056)" fill="#2e186a"/>
            <path id="spoon" d="M.53.328A1.449,1.449,0,0,1,2.509.461l.06.069L20.581,22.5a1.449,1.449,0,0,1-2.18,1.906l-.06-.069L.328,2.367A1.449,1.449,0,0,1,.53.328Z" transform="translate(666.984 333.439)" fill="#2e186a"/>
            <path id="mug_2_" d="M38.922,55.92H14.488A14.468,14.468,0,0,1,0,41.434V0H53.41V41.434A14.468,14.468,0,0,1,38.922,55.92Z" transform="translate(665.777 350.051)" fill="#2e186a"/>
            <path id="thumb_2_" d="M1.162,1.727c2.1-2.868,5.869-2.107,9.707,1.86a31.133,31.133,0,0,1,7.466,14.578,1.449,1.449,0,0,1-2.819.671A28.361,28.361,0,0,0,8.786,5.6C6.022,2.745,4.269,2.39,3.5,3.441c-.939,1.279-.815,4.191.575,6.981l.087.171c2.016,3.9,2.581,11.583,2.286,21.089a1.449,1.449,0,0,1-2.9-.09l.028-1.014c.2-8.39-.346-15.315-1.928-18.527l-.064-.127C-.342,8.2-.547,4.056,1.162,1.727Z" transform="translate(346.651 167.991)" fill="#2e186a"/>
            <path id="Oval" d="M14.052,28.105a14.056,14.056,0,0,1-5.47-27A14.056,14.056,0,0,1,19.522,27,13.965,13.965,0,0,1,14.052,28.105Zm0-25.207a11.12,11.12,0,1,0,4.342.877A11.085,11.085,0,0,0,14.052,2.9Z" transform="translate(398.394 162.975)" fill="#2e186a"/>
            <path id="sleeve" d="M67.821.274a1.449,1.449,0,0,1,1.939.22l.263.331c.176.221.384.478.624.769.687.834,1.485,1.765,2.383,2.768a98.563,98.563,0,0,0,8.476,8.41c7.341,6.422,14.65,10.678,21.441,11.778a1.449,1.449,0,0,1,1.165,1.047l.031.124c.049.208.105.512.159.915a32.429,32.429,0,0,1-.345,8.892l-.053.338c-.3,1.89.157,3.216,1.681,5.552l.762,1.151a14.515,14.515,0,0,1,2.061,4.1,10.843,10.843,0,0,1-.15,6.422l-.009.044c-.174.968-1.612,14.956-2.3,20.969l-.063.545c-1.825,15.7-4.016,30.353-6.842,44.231-3.726,18.3-8.245,33.538-13.712,44.916-6.589,13.717-14.422,21.516-23.75,22.213a1.449,1.449,0,1,1-.216-2.889c7.958-.6,15.024-7.558,21.168-20.194l.186-.385c5.344-11.125,9.8-26.156,13.484-44.24,2.732-13.414,4.869-27.576,6.655-42.723l.267-2.308c.668-5.943,2.119-20.006,2.347-20.982l.007-.027c.978-3.21.483-5-1.683-8.3l-.508-.765c-1.986-3-2.7-4.959-2.248-7.792a31.462,31.462,0,0,0,.428-8.056l-.016-.132-.268-.055c-6.926-1.469-14.1-5.726-21.254-11.923l-.335-.292a101.426,101.426,0,0,1-8.727-8.659c-.757-.846-1.445-1.642-2.061-2.377l-.379-.455-.656.525C66.509,5.006,64.9,6.348,62.9,8.055A7.641,7.641,0,0,1,58.661,9.9l-.238.025a15.68,15.68,0,0,1-3.485-.154l-.2-.024c-3.949-.464-5.576-.149-7.705,2.238l-.111.125c-1.368,1.561-8.361,12.763-19.033,30.351l-3.38,5.58-1.382,2.286c-3.242,5.368-6.61,10.965-10,16.621l-8.3,13.868L2.694,84.38A1.449,1.449,0,0,1,.161,82.975L2.6,78.884l4.393-7.348c4.372-7.3,8.76-14.607,12.953-21.553l5.165-8.537C36.194,23.173,43.185,11.973,44.736,10.2a9.635,9.635,0,0,1,5.392-3.346A12.5,12.5,0,0,1,54.4,6.793l1.067.121c2.966.325,4.13.149,5.547-1.062l1.212-1.031c1.473-1.247,2.71-2.27,3.73-3.092l.757-.6q.277-.219.506-.4l.5-.381Z" transform="translate(269.411 222.855)" fill="#2e186a"/>
            <path id="welt" d="M49.648,36.314c1.207-7.2,1.69-10.286,1.69-10.286C32.891,23.179,13.913,0,13.913,0s-1.883,1.4-7.2,5.988C4.593,7.823,2.372,7.823.054,7.582-1.588,27.719,34.582,45.634,51.676,46.5,50.614,41.674,48.731,41.771,49.648,36.314Z" transform="translate(323.732 221.986)" fill="#2e186a"/>
            <path id="line" d="M22.9.179C28.306-.506,33.07.75,36.869,4.3A1.449,1.449,0,0,1,34.89,6.419C31.768,3.5,27.866,2.471,23.261,3.054A35.982,35.982,0,0,0,9.933,8.129a60.888,60.888,0,0,0-5.468,3.648l-.423.32q-.411.313-.771.6l-.347.278q-.185.15-.331.271l-.2.167A1.449,1.449,0,0,1,.5,11.217l.2-.169q.127-.106.306-.252l.461-.37c.382-.3.8-.627,1.261-.97A63.761,63.761,0,0,1,8.46,5.635,38.689,38.689,0,0,1,22.9.179Z" transform="translate(245.507 282.783)" fill="#2e186a"/>
            <path id="hand_1_" d="M37.955,91.909a1.429,1.429,0,0,1-.647-.154l-.079-.043L.722,70.513a1.446,1.446,0,0,1-.556-1.925l1.292-2.453c.666-1.261,1.331-2.515,1.976-3.726l1.921-3.6c2.3-4.291,4.517-8.385,6.6-12.167l1.171-2.126c.408-.738.8-1.453,1.179-2.125l.416-.747c3.444-6.175,6.158-10.862,8.3-14.328a40.5,40.5,0,0,1,4.839-6.846l.122-.11C30.19,18.432,36.844,13.742,43.8,9.21l1.542-1c8.011-5.164,13-7.915,14.823-8.178l.127-.015C60.424.006,60.563,0,60.7,0a5.716,5.716,0,0,1,3.143,1A6,6,0,0,1,66.007,3.58c1.138,2.672-.042,5.492-3.156,7.542-1.137.748-2.589,1.637-4.318,2.642l-.265.154.583-.165C63.711,12.391,67.1,11.7,68.923,11.7a4.139,4.139,0,0,1,.857.074l.08.019A4.435,4.435,0,0,1,72.715,14.1a5.806,5.806,0,0,1,.4,3.921,8.645,8.645,0,0,1-4.5,5.543l-.1.052.263-.045a21.91,21.91,0,0,1,3.262-.387c.082,0,.158,0,.227.006l.063,0a3.8,3.8,0,0,1,2.9,1.731,5.454,5.454,0,0,1,.652,4.682,7.7,7.7,0,0,1-2.6,3.656,16.508,16.508,0,0,1-5.263,2.721L67.967,36l.444-.019c.337-.012.646-.019.918-.019.293,0,.552.007.769.022l.086.006a3.347,3.347,0,0,1,2.879,1.974,4.665,4.665,0,0,1,.36,2.566,6.223,6.223,0,0,1-1.113,2.793,11.277,11.277,0,0,1-5.467,3.844,29.311,29.311,0,0,1-9.422,1.555l-.246,0L39.291,91.024A1.448,1.448,0,0,1,37.955,91.909ZM60.7,2.9c-.056,0-.113,0-.167.007-.595.051-2.367.921-5.124,2.515-2.5,1.444-5.673,3.4-9.182,5.664-6.106,3.935-13.53,9-16.351,11.462a35.371,35.371,0,0,0-4.223,6.013c-2.01,3.251-4.582,7.67-7.644,13.132L16.832,43.8l-1.174,2.117c-2.4,4.335-5,9.133-7.749,14.26l-1.2,2.251-.884,1.66-.063.117L3.378,68.7,37.263,88.381,54.877,46.724a1.441,1.441,0,0,1,1.242-.882l.1,0h.128a29.249,29.249,0,0,0,8.88-1.162A12.325,12.325,0,0,0,68.1,43.356a6.631,6.631,0,0,0,1.839-1.7,3.617,3.617,0,0,0,.62-1.365,1.658,1.658,0,0,0-.075-1,.649.649,0,0,0-.534-.41c-.171-.013-.385-.02-.638-.02-1.511,0-4.5.244-8.655.706l-2.282.262-1.021.122c-1.921.232-3.922.485-5.948.753l-2.616.351c-.042,0-.085.005-.127.005a1.439,1.439,0,0,1-1.208-.662,1.424,1.424,0,0,1-.108-1.377c.3-.67,1.435-1.3,3.578-2A100.227,100.227,0,0,1,61.719,34.5l1.928-.368a21.158,21.158,0,0,0,6.633-2.278,5.845,5.845,0,0,0,2.837-3.1,2.55,2.55,0,0,0-.252-2.168,1.034,1.034,0,0,0-.734-.5c-.043,0-.094-.005-.15-.005-1.194,0-5.162.743-11.172,2.091l-1.622.368-1.142.262c-2.45.566-5.124,1.2-7.947,1.891l-.679.166-2.732.675-.155.037a1.615,1.615,0,0,1-.316.032,1.423,1.423,0,0,1-1.383-1.228,1.388,1.388,0,0,1,.945-1.594l19.654-7,.237-.078A8.313,8.313,0,0,0,68.81,19.88a5.08,5.08,0,0,0,1.484-2.5,2.943,2.943,0,0,0-.1-1.829,1.612,1.612,0,0,0-1.07-.95,1.8,1.8,0,0,0-.434-.042,44.729,44.729,0,0,0-8.5,1.84C56.012,17.565,50.807,19.2,45.541,21l-1.073.369a1.585,1.585,0,0,1-.518.091,1.44,1.44,0,0,1-1.372-1.142,1.382,1.382,0,0,1,.756-1.607l.352-.181,2.286-1.19,1.451-.765c2.294-1.215,4.441-2.379,6.38-3.459l.77-.431,1.05-.594c2.143-1.219,3.91-2.277,5.254-3.145l.382-.249c2.442-1.608,2.481-3.056,2.084-3.987A3.106,3.106,0,0,0,60.7,2.9Z" transform="translate(329.048 170.206)" fill="#2e186a"/>
            <path id="Path-4" data-name="Path" d="M791.669,0a1.449,1.449,0,0,1,.085,2.895l-.085,0H1.449A1.449,1.449,0,0,1,1.364,0l.085,0Z" transform="translate(0 405.73)" fill="#2e186a"/>
            <path id="Path-5" data-name="Path" d="M55.968,41.336,53.312,0,0,3.429l1.835,27.96c4.732-4.056,28.008-19.606,31.389-19.9s7.437,4.636,1.642,8.451S16.8,30.036,16.8,30.036c10.189-3.573,23.083-7.437,25.5-6.809,3.67.966,3.429,7.726-3.573,9.948l-19.654,7s22.89-5.747,25.98-5.505,5.795,8.258-8.6,10.962c-14.39,2.753-14.97,4.008-14.97,4.008s17.722-2.511,21.393-2.173,3.767,9.9-13.859,9.851l-.1.241,13.57-.869A14.44,14.44,0,0,0,55.968,41.336Z" transform="translate(356.285 160.126)" fill="#2e186a"/>
          </g>
          <g id="Group_57" data-name="Group 57" transform="translate(984.041 328.484)">
            <path id="Path_190" data-name="Path 190" d="M438.346,216.566s-7.221-6.671-8.894-10.728c-1.421-3.439-2.292-8.23-.252-11.645a6.625,6.625,0,0,1,9.582-2.292c4.585,3.324,4.241,13.41,2.659,18.155C441.3,210.583,438.415,216.726,438.346,216.566Z" transform="translate(381.338 -190.729)" fill="rgba(254,118,36,0.89)"/>
            <path id="Path_214" data-name="Path 214" d="M102.777,222.97s-9.628,2.063-13.892,1.077c-3.645-.825-8.046-2.911-9.651-6.51a6.6,6.6,0,0,1,3.668-9.169c5.318-1.765,13.387,4.287,16.344,8.321C99.5,217.1,102.868,222.947,102.777,222.97Z" transform="translate(-19.917 -181.597)" fill="rgba(254,118,36,0.89)"/>
            <path id="Path_216" data-name="Path 216" d="M80.7,268.863a35.048,35.048,0,0,1-4.585,9.169,10.155,10.155,0,0,1-7.771,3.645,4.883,4.883,0,0,1-4.355-5.8c.894-4.012,7.748-6.877,11.462-7.152C75.728,268.68,80.725,268.795,80.7,268.863Z" transform="translate(-38.83 -103.199)" fill="rgba(254,118,36,0.89)"/>
            <path id="Path_218" data-name="Path 218" d="M79.019,239.8s-7.29,6.6-11.462,7.909c-3.576,1.1-8.413,1.536-11.645-.779a6.625,6.625,0,0,1-1.421-9.742c3.714-4.195,13.754-3.049,18.339-1.055C73.2,236.315,79.088,239.73,79.019,239.8Z" transform="translate(-52.964 -147.628)" fill="rgba(254,118,36,0.89)"/>
            <path id="Path_230" data-name="Path 230" d="M62.568,253.068l.1,1.151h-.5l-.106-1.14a3.77,3.77,0,0,1-2.46-.707l.232-.591a3.443,3.443,0,0,0,2.175.655l-.222-2.629c-1.13-.169-2.281-.412-2.386-1.732-.084-.961.528-1.858,2.049-2.112l-.1-1.151h.5l.1,1.13a3.971,3.971,0,0,1,2.112.454l-.2.6a3.759,3.759,0,0,0-1.827-.422l.222,2.65c1.151.169,2.376.391,2.492,1.732C64.807,251.938,64.142,252.835,62.568,253.068Zm-.845-3.918-.222-2.5c-1.056.18-1.436.75-1.383,1.383S60.879,249.013,61.723,249.15Zm2.27,1.922c-.074-.792-.824-1.056-1.7-1.14l.211,2.5C63.6,252.254,64.047,251.705,63.994,251.072Z" transform="translate(562.821 -221.744)" fill="#263238" stroke="#2e186a" stroke-width="1"/>
            <g id="Group_53" data-name="Group 53" transform="translate(600.19 13.727)">
              <rect id="Rectangle_23" data-name="Rectangle 23" width="67.222" height="34.973" transform="matrix(0.909, -0.416, 0.416, 0.909, 69.794, 102.197)" fill="none" stroke="#2e186a" stroke-miterlimit="10" stroke-width="1"/>
              <path id="Path_226" data-name="Path 226" d="M415.943,126.164l-9.25-20.2a3.59,3.59,0,0,1-4.752-1.763l-49.408,22.618a3.59,3.59,0,0,1-1.763,4.752l9.25,20.2a3.58,3.58,0,0,1,4.752,1.774l49.4-22.629a3.58,3.58,0,0,1,1.774-4.752Z" transform="translate(-275.607 -24.923)" fill="none" stroke="#2e186a" stroke-miterlimit="10" stroke-width="1"/>
              <circle id="Ellipse_1" data-name="Ellipse 1" cx="9.187" cy="9.187" r="9.187" transform="translate(94.749 102.422) rotate(-37.53)" fill="none" stroke="#2e186a" stroke-miterlimit="10" stroke-width="1"/>
              <path id="Path_227" data-name="Path 227" d="M384.366,132.31l.686,1.5-.655.3-.676-1.478a5.4,5.4,0,0,1-3.664.232v-.919a4.847,4.847,0,0,0,3.252-.158l-1.552-3.421c-1.605.306-3.263.539-4.055-1.193-.57-1.246-.169-2.745,1.753-3.812l-.686-1.51.655-.3.718,1.531a5.565,5.565,0,0,1,3.02-.4v.919a5.28,5.28,0,0,0-2.672.306l1.584,3.464c1.637-.327,3.379-.623,4.224,1.13C386.826,129.712,386.372,131.244,384.366,132.31Zm-3.02-4.868-1.5-3.305c-1.3.729-1.584,1.7-1.2,2.524.444,1.035,1.5.993,2.693.781Zm3.981,1.489c-.465-1.056-1.584-.95-2.83-.707l1.489,3.263c1.436-.76,1.711-1.721,1.33-2.555Z" transform="translate(-274.233 -23.751)" fill="#263238" stroke="#2e186a" stroke-width="1"/>
              <rect id="Rectangle_24" data-name="Rectangle 24" width="47.19" height="24.544" transform="translate(0 4.23) rotate(-5.143)" fill="none" stroke="#2e186a" stroke-miterlimit="10" stroke-width="1.004"/>
              <path id="Path_228" data-name="Path 228" d="M85.09,255.8l-1.33-15.47a2.513,2.513,0,0,1-2.714-2.281L43.2,241.323a2.524,2.524,0,0,1-2.281,2.714l1.33,15.47a2.5,2.5,0,0,1,2.714,2.281l37.845-3.273A2.524,2.524,0,0,1,85.09,255.8Z" transform="translate(-38.403 -235.555)" fill="none" stroke="#2e186a" stroke-miterlimit="10" stroke-width="1"/>
              <path id="Path_229" data-name="Path 229" d="M68.58,249.081a6.42,6.42,0,1,1-2.266-4.369A6.431,6.431,0,0,1,68.58,249.081Z" transform="translate(-37.573 -235.266)" fill="none" stroke="#2e186a" stroke-miterlimit="10" stroke-width="1"/>
              <circle id="Ellipse_2" data-name="Ellipse 2" cx="9.187" cy="9.187" r="9.187" transform="translate(164.652 70.091)" fill="none" stroke="#2e186a" stroke-miterlimit="10" stroke-width="1"/>
              <path id="Path_231" data-name="Path 231" d="M444.942,109.468v1.647h-.76v-1.637a5.47,5.47,0,0,1-3.432-1.3l.412-.824a4.952,4.952,0,0,0,3.02,1.225v-3.77c-1.584-.391-3.168-.876-3.168-2.777,0-1.373.993-2.566,3.168-2.735V97.62h.718v1.637a5.565,5.565,0,0,1,2.914.9l-.359.845a5.28,5.28,0,0,0-2.555-.834v3.8c1.616.391,3.326.845,3.326,2.777C448.268,108.127,447.223,109.341,444.942,109.468Zm-.718-5.692V100.2c-1.478.127-2.112.887-2.112,1.8-.042,1.088.929,1.489,2.07,1.785Zm3,3.02c0-1.13-1.056-1.521-2.281-1.827v3.611C446.516,108.443,447.223,107.715,447.223,106.8Z" transform="translate(-270.692 -25.09)" fill="#263238" stroke="#2e186a" stroke-width="1"/>
            </g>
            <g id="Group_52" data-name="Group 52" transform="translate(161.484 147.877)">
              <path id="Path_237" data-name="Path 237" d="M44.874,194.511a13.8,13.8,0,1,1,1.257-19.482A13.8,13.8,0,0,1,44.874,194.511Z" transform="translate(-21.964 -170.34)" fill="none" stroke="#2e186a" stroke-miterlimit="10" stroke-width="1"/>
              <path id="Path_238" data-name="Path 238" d="M30.141,189.305l-1.858,1.637-.718-.813,1.848-1.616a8.184,8.184,0,0,1-1.932-5.174L28.821,183a7.392,7.392,0,0,0,1.594,4.583l4.224-3.738c-1.13-2.165-2.175-4.467,0-6.336,1.563-1.362,3.886-1.426,6.251.876l1.922-1.626.707.8-1.848,1.626a8.448,8.448,0,0,1,1.837,4.171l-1.309.433a8.1,8.1,0,0,0-1.594-3.706l-4.3,3.77c1.172,2.207,2.344,4.593.18,6.5C34.914,191.734,32.517,191.808,30.141,189.305Zm5.7-6.441,4.044-3.559c-1.605-1.542-3.168-1.531-4.139-.634-1.267,1.077-.76,2.577.063,4.192ZM35.41,189.2c1.288-1.119.686-2.693-.2-4.382l-4.044,3.559c1.658,1.7,3.2,1.763,4.255.855Z" transform="translate(-21.656 -169.992)" fill="#263238" stroke="#2e186a" stroke-width="1"/>
            </g>
            <rect id="Rectangle_38" data-name="Rectangle 38" width="47.19" height="24.544" transform="translate(211.851 91.753) rotate(-5.143)" fill="none" stroke="#2e186a" stroke-miterlimit="10" stroke-width="1.004"/>
            <path id="Path_389" data-name="Path 389" d="M85.09,255.8l-.536-6.234-.794-9.235a2.513,2.513,0,0,1-2.714-2.281L43.2,241.323a2.524,2.524,0,0,1-2.281,2.714l1.33,15.47a2.5,2.5,0,0,1,2.714,2.281l37.845-3.273A2.524,2.524,0,0,1,85.09,255.8Z" transform="translate(173.348 -148.066)" fill="none" stroke="#2e186a" stroke-miterlimit="10" stroke-width="1"/>
            <path id="Path_390" data-name="Path 390" d="M68.58,249.081a6.42,6.42,0,1,1-2.266-4.369A6.431,6.431,0,0,1,68.58,249.081Z" transform="translate(174.177 -147.777)" fill="none" stroke="#2e186a" stroke-miterlimit="10" stroke-width="1"/>
            <path id="Path_391" data-name="Path 391" d="M62.568,253.068l.1,1.151h-.5l-.106-1.14a3.77,3.77,0,0,1-2.46-.707l.232-.591a3.443,3.443,0,0,0,2.175.655l-.222-2.629c-1.13-.169-2.281-.412-2.386-1.732-.084-.961.528-1.858,2.049-2.112l-.1-1.151h.5l.1,1.13a3.971,3.971,0,0,1,2.112.454l-.2.6a3.759,3.759,0,0,0-1.827-.422l.222,2.65c1.151.169,2.376.391,2.492,1.732C64.807,251.938,64.142,252.835,62.568,253.068Zm-.845-3.918-.222-2.5c-1.056.18-1.436.75-1.383,1.383S60.879,249.013,61.723,249.15Zm2.27,1.922c-.074-.792-.824-1.056-1.7-1.14l.211,2.5C63.6,252.254,64.047,251.705,63.994,251.072Z" transform="translate(174.381 -147.688)" fill="#263238" stroke="#2e186a" stroke-width="1"/>
            <rect id="Rectangle_39" data-name="Rectangle 39" width="67.222" height="34.973" transform="matrix(0.909, -0.416, 0.416, 0.909, 118.545, 49.779)" fill="none" stroke="#2e186a" stroke-miterlimit="10" stroke-width="1"/>
            <path id="Path_392" data-name="Path 392" d="M415.943,126.164l-9.25-20.2a3.59,3.59,0,0,1-4.752-1.763l-49.408,22.618a3.59,3.59,0,0,1-1.763,4.752l9.25,20.2a3.58,3.58,0,0,1,4.752,1.774l49.4-22.629a3.58,3.58,0,0,1,1.774-4.752Z" transform="translate(-226.856 -77.341)" fill="none" stroke="#2e186a" stroke-miterlimit="10" stroke-width="1"/>
            <circle id="Ellipse_7" data-name="Ellipse 7" cx="9.187" cy="9.187" r="9.187" transform="translate(143.5 50.004) rotate(-37.53)" fill="none" stroke="#2e186a" stroke-miterlimit="10" stroke-width="1"/>
            <path id="Path_393" data-name="Path 393" d="M384.366,132.31l.686,1.5-.655.3-.676-1.478a5.4,5.4,0,0,1-3.664.232v-.919a4.847,4.847,0,0,0,3.252-.158l-1.552-3.421c-1.605.306-3.263.539-4.055-1.193-.57-1.246-.169-2.745,1.753-3.812l-.686-1.51.655-.3.718,1.531a5.565,5.565,0,0,1,3.02-.4v.919a5.28,5.28,0,0,0-2.672.306l1.584,3.464c1.637-.327,3.379-.623,4.224,1.13C386.826,129.712,386.372,131.244,384.366,132.31Zm-3.02-4.868-1.5-3.305c-1.3.729-1.584,1.7-1.2,2.524.444,1.035,1.5.993,2.693.781Zm3.981,1.489c-.465-1.056-1.584-.95-2.83-.707l1.489,3.263c1.436-.76,1.711-1.721,1.33-2.555Z" transform="translate(-225.482 -76.17)" fill="#263238" stroke="#2e186a" stroke-width="1"/>
            <path id="Path_394" data-name="Path 394" d="M438.346,216.566s-7.221-6.671-8.894-10.728c-1.421-3.439-2.292-8.23-.252-11.645a6.625,6.625,0,0,1,9.582-2.292c4.585,3.324,4.241,13.41,2.659,18.155C441.3,210.583,438.415,216.726,438.346,216.566Z" transform="matrix(0.978, -0.208, 0.208, 0.978, 315.134, 128.003)" fill="#de8439"/>
            <path id="Path_899" data-name="Path 899" d="M79.019,239.8s-7.29,6.6-11.462,7.909c-3.576,1.1-8.413,1.536-11.645-.779a6.625,6.625,0,0,1-1.421-9.742c3.714-4.195,13.754-3.049,18.339-1.055C73.2,236.315,79.088,239.73,79.019,239.8Z" transform="translate(86.812 16.607) rotate(11)" fill="rgba(254,118,36,0.89)"/>
            <g id="Group_712" data-name="Group 712" transform="translate(-8.401 -2)">
              <g id="Component_3_1" data-name="Component 3 – 1" transform="translate(41.873 219.886)">
                <path id="Path_213" data-name="Path 213" d="M162.144,364.743c-1.467-4.7-3.668-11.462-6.648-19.279-.848-2.292-1.788-4.585-2.8-7.129-1.032.344-9.376,3.026-13.479,2.59-3.691-.413-8.321-1.971-10.338-5.364a6.625,6.625,0,0,1,2.613-9.513c5.066-2.292,13.754,2.728,17.193,6.4.206.229,2.476,3.278,3.6,4.883l-1.857-4.585c-.94-2.292-1.994-4.585-3-6.762-.573-1.146-1.123-2.292-1.719-3.484s-1.215-2.292-1.834-3.393c-.963-1.673-2.017-3.347-3.072-5-2.178,1.077-8.688,4.126-12.31,4.287s-8.5-.665-11.026-3.714a6.648,6.648,0,0,1,1.123-9.811c4.585-3.095,14.052.6,17.972,3.714l1.788,1.719c-1.077-1.582-2.155-3.186-3.3-4.768-3.255-4.585-6.694-8.963-10.132-13.456l-2.132-2.82c-1.834.917-8.848,4.287-12.631,4.447s-8.528-.665-11.049-3.714a6.625,6.625,0,0,1,1.146-9.788c4.585-3.118,14.052.6,17.949,3.691.16.115,1.054,1.009,2.063,1.994-1.834-2.453-3.622-4.951-5.341-7.473a117.576,117.576,0,0,1-7.954-13.456c-.642.321-8.78,4.447-13,4.585-3.714.16-8.528-.665-11.026-3.714a6.6,6.6,0,0,1,1.123-9.788c4.585-3.118,14.052.573,17.972,3.691.275.206,3.53,3.461,4.585,4.585v-.16a86.214,86.214,0,0,1-5.341-14.213,115.033,115.033,0,0,1-2.865-13.41c-.711-4.195-1.077-8.069-1.375-11.462-.16-1.857-.252-3.576-.344-5.158h0s-3.141-5.983-3.278-6.4c-1.742-4.7-2.292-14.763,2.109-18.339a6.625,6.625,0,0,1,9.651,1.994c2.109,3.347,1.4,8.161,0,11.645s-6.877,9.169-8.23,10.659a53.552,53.552,0,0,0,.458,5.364c.367,3.416.825,7.29,1.6,11.462.206,1.123.481,2.292.711,3.461v-5.089c.619-4.951,4.745-14.167,10.247-15.2a6.625,6.625,0,0,1,7.656,6.212c.344,3.943-2.5,7.886-5.3,10.384s-10.591,5.158-12.287,5.685c.55,2.544,1.192,5.158,2.017,7.817a88.2,88.2,0,0,0,5.547,14.121c.138.252.321.5.459.756-.183-.986-.734-6.556-.711-6.877,0-5,3.163-14.6,8.528-16.23a6.648,6.648,0,0,1,8.3,5.341c.756,3.874-1.65,8.115-4.126,10.889-2.865,3.209-11.462,6.992-11.9,7.129a116.569,116.569,0,0,0,8,12.86c2.155,3.049,4.585,6.052,6.877,9.032-.183-1.307-.688-6.487-.688-6.877,0-5,3.186-14.6,8.528-16.23a6.625,6.625,0,0,1,8.3,5.341c.756,3.874-1.628,8.115-4.126,10.889-2.8,3.141-11.118,6.877-11.806,7.106l3.209,4.057c3.53,4.424,7.083,8.826,10.453,13.3,1.169,1.536,2.292,3.095,3.37,4.585-.229-1.971-.573-5.547-.573-5.868,0-5,3.186-14.6,8.528-16.23a6.625,6.625,0,0,1,8.3,5.341c.756,3.874-1.628,8.115-4.126,10.889s-9.422,6.029-11.462,6.877c1.834,2.613,3.576,5.227,5.181,7.909.642,1.169,1.4,2.292,1.971,3.484l1.788,3.416c1.146,2.292,2.292,4.585,3.209,6.877.527,1.123.986,2.292,1.467,3.3-.527-1.949-1.33-5.089-1.352-5.364-.688-4.952.917-14.923,5.96-17.353a6.625,6.625,0,0,1,9.009,4.035c1.352,3.714-.39,8.252-2.43,11.462s-9.628,8.184-10.545,8.78c1.169,2.7,2.292,5.341,3.3,7.863,3.186,7.886,5.547,14.6,7.129,19.324s2.292,7.45,2.292,7.45h0a1.957,1.957,0,1,1-3.782,1.009S163.588,369.442,162.144,364.743Z" transform="translate(-22.029 -193.887)" fill="rgba(254,118,36,0.89)"/>
                <path id="Path_217" data-name="Path 217" d="M195.821,335.308c-3.622-3.324-8.871-8-15.428-13.319-1.88-1.536-3.92-3.141-6.006-4.768-.734.825-6.579,7.358-10.338,9.009-3.416,1.513-8.184,2.5-11.645.573a6.625,6.625,0,0,1-2.522-9.513c3.186-4.585,13.3-4.585,18.064-3.141.3,0,3.805,1.6,5.57,2.292-1.261-.986-2.522-1.949-3.874-2.934-1.9-1.444-3.989-2.911-5.983-4.355l-3.232-2.132c-1.077-.734-2.292-1.33-3.3-2.017-1.65-.963-3.416-1.857-5.158-2.774-1.352,2.04-5.433,7.954-8.482,9.9s-7.7,3.714-11.462,2.292a6.625,6.625,0,0,1-3.943-9.032c2.453-5.043,12.447-6.556,17.376-5.845l2.43.6c-1.742-.825-3.461-1.673-5.249-2.476-5.066-2.292-10.293-4.378-15.519-6.533l-3.278-1.352c-1.123,1.719-5.479,8.161-8.665,10.2s-7.725,3.714-11.462,2.292a6.6,6.6,0,0,1-3.943-9.032c2.453-5.02,12.425-6.556,17.376-5.846.183,0,1.4.344,2.774.711-2.82-1.215-5.616-2.453-8.367-3.782A118.357,118.357,0,0,1,97.8,276.692c-.413.619-5.364,8.275-8.917,10.545-3.141,2.017-7.7,3.691-11.462,2.292a6.625,6.625,0,0,1-3.943-9.032c2.476-5.043,12.447-6.556,17.4-5.846.344,0,4.791,1.215,6.35,1.673h-.16A84.2,84.2,0,0,1,85.491,266.7a114.452,114.452,0,0,1-9.169-10.155c-2.7-3.278-5-6.442-6.877-9.169-1.077-1.536-2.017-2.957-2.888-4.31v.115s-5.731-3.6-6.075-3.874c-3.851-3.186-9.422-11.6-7.336-16.8a6.648,6.648,0,0,1,9.353-3.141c3.484,1.834,5.3,6.35,5.914,10.018s-1.261,11.462-1.742,13.364c.917,1.375,1.926,2.82,3.095,4.4,2.04,2.774,4.378,5.891,7.129,9.169.734.871,1.582,1.742,2.292,2.636-1.032-1.765-2.292-4.195-2.476-4.424-1.971-4.585-3.026-14.648,1.215-18.339a6.625,6.625,0,0,1,9.742,1.513c2.292,3.255,1.788,8.092.642,11.645s-6.579,9.788-7.771,11.095c1.765,1.926,3.645,3.851,5.685,5.754a87.4,87.4,0,0,0,11.9,9.4l.779.436c-.665-.779-3.92-5.3-4.126-5.639-2.43-4.378-4.585-14.236-.779-18.339a6.625,6.625,0,0,1,9.834.436c2.613,2.98,2.682,7.84,1.926,11.462-.848,4.218-6.464,11.851-6.671,12.149a117.076,117.076,0,0,0,13.364,7.083c3.393,1.536,6.877,2.98,10.43,4.378-.825-1.032-3.851-5.249-4.035-5.57-2.453-4.378-4.585-14.235-.8-18.339a6.648,6.648,0,0,1,9.857.436c2.613,2.98,2.682,7.84,1.926,11.462-.848,4.1-6.189,11.462-6.648,12.081l4.814,1.9c5.272,2.04,10.568,4.057,15.725,6.212,1.788.756,3.53,1.536,5.272,2.292-1.192-1.582-3.3-4.585-3.461-4.791-2.43-4.355-4.585-14.212-.779-18.339a6.6,6.6,0,0,1,9.834.436c2.613,2.957,2.682,7.84,1.926,11.462s-5.112,9.949-6.373,11.714c2.888,1.33,5.731,2.728,8.459,4.241,1.146.688,2.292,1.307,3.461,2.017l3.278,2.063c2.292,1.467,4.218,2.842,6.212,4.287,1.009.711,1.948,1.421,2.911,2.132-1.444-1.421-3.691-3.737-3.874-3.966-3.072-3.943-6.694-13.364-3.553-17.995a6.648,6.648,0,0,1,9.811-1.055c3.026,2.545,3.828,7.336,3.622,11.072-.206,4.1-4.2,11.943-4.585,12.883,2.292,1.765,4.585,3.484,6.877,5.135,6.74,5.25,12.149,9.857,15.886,13.135s5.823,5.25,5.823,5.25h0a1.961,1.961,0,1,1-2.774,2.774S199.466,338.632,195.821,335.308Z" transform="translate(-52.692 -165.03)" fill="rgba(254,118,36,0.89)"/>
              </g>
              <path id="Path_898" data-name="Path 898" d="M79.019,239.8s-7.29,6.6-11.462,7.909c-3.576,1.1-8.413,1.536-11.645-.779a6.625,6.625,0,0,1-1.421-9.742c3.714-4.195,13.754-3.049,18.339-1.055C73.2,236.315,79.088,239.73,79.019,239.8Z" transform="translate(-10.091 75.313)" fill="rgba(254,118,36,0.89)"/>
            </g>
          </g>
          <path id="Path_897" data-name="Path 897" d="M403.439,198.337s-5.853-1.313-7.977-2.934c-1.8-1.4-3.716-3.646-3.7-6.049a4.037,4.037,0,0,1,4.358-4.191c3.381.363,6.328,5.755,6.985,8.745C403.118,194.216,403.5,198.351,403.439,198.337Z" transform="matrix(0.966, -0.259, 0.259, 0.966, 1278.469, 545.438)" fill="#de8439"/>
        </g>
      </g>
    </g>
    <g id="Group_851" data-name="Group 851">
      <path id="Path_195" data-name="Path 195" d="M407.34,341.461c2.98-3.92,7.175-9.559,11.92-16.551,1.353-2.017,2.774-4.172,4.2-6.4-.871-.665-7.886-5.914-9.88-9.513s-3.209-7.932-1.6-11.462a6.648,6.648,0,0,1,9.284-3.37c4.86,2.774,5.731,12.837,4.7,17.72,0,.321-1.261,3.92-1.9,5.754.848-1.352,1.719-2.682,2.59-4.1,1.261-2.04,2.544-4.218,3.805-6.35l1.834-3.393c.642-1.146,1.123-2.292,1.719-3.484.8-1.719,1.559-3.553,2.292-5.387-2.155-1.169-8.413-4.585-10.614-7.565S421.323,280,422.354,276.2A6.6,6.6,0,0,1,431,271.475c5.227,2.017,7.633,11.806,7.358,16.8,0,.16-.183,1.215-.39,2.453.688-1.811,1.375-3.6,1.994-5.456,1.788-5.227,3.461-10.614,5.158-16.047.344-1.123.711-2.292,1.077-3.37-1.834-.963-8.619-4.745-10.934-7.748s-4.378-7.358-3.347-11.164a6.648,6.648,0,0,1,8.665-4.722c5.227,2.017,7.611,11.806,7.336,16.8,0,.183-.206,1.421-.459,2.82.963-2.911,1.971-5.823,3.049-8.665a116.551,116.551,0,0,1,6.4-14.258c-.642-.344-8.711-4.585-11.278-7.954-2.292-2.934-4.378-7.335-3.324-11.164a6.625,6.625,0,0,1,8.642-4.722c5.226,2.017,7.611,11.829,7.336,16.8,0,.367-.779,4.883-1.1,6.487v-.16a87.1,87.1,0,0,1,8.711-12.654,109.133,109.133,0,0,1,9.307-10.086c3.026-3,5.96-5.525,8.6-7.771,1.444-1.192,2.774-2.292,4.035-3.232h-.138s3.095-6.029,3.347-6.373c2.842-4.126,10.728-10.407,16.046-8.8a6.6,6.6,0,0,1,3.943,9.032c-1.49,3.645-5.845,5.845-9.445,6.877s-11.462-.252-13.479-.573c-1.284,1.054-2.636,2.178-4.126,3.461-2.567,2.292-5.456,4.883-8.39,7.932-.8.8-1.6,1.7-2.407,2.567,1.651-1.169,3.943-2.751,4.172-2.865,4.424-2.292,14.327-4.287,18.339-.39a6.6,6.6,0,0,1-.642,9.834c-3.026,2.544-7.909,2.5-11.462,1.673s-10.339-5.685-11.76-6.877c-1.742,1.926-3.507,3.943-5.2,6.166a83.561,83.561,0,0,0-8.321,12.677c-.138.252-.252.55-.39.8.734-.711,4.952-4.378,5.272-4.585,4.126-2.82,13.754-5.846,18.2-2.407a6.648,6.648,0,0,1,.413,9.857c-2.728,2.843-7.565,3.347-11.278,2.911-4.264-.481-12.379-5.41-12.677-5.593a118.8,118.8,0,0,0-5.891,13.937c-1.238,3.53-2.292,7.152-3.439,10.8.963-.917,4.883-4.31,5.2-4.585,4.126-2.82,13.754-5.845,18.178-2.292a6.625,6.625,0,0,1,.413,9.857c-2.705,2.865-7.565,3.347-11.278,2.911-4.172-.482-11.966-5.158-12.608-5.548-.5,1.651-.986,3.3-1.467,4.974-1.582,5.41-3.117,10.866-4.814,16.207-.6,1.834-1.238,3.622-1.88,5.433,1.49-1.307,4.218-3.668,4.47-3.851,4.126-2.82,13.754-5.823,18.178-2.292a6.625,6.625,0,0,1,.436,9.834c-2.728,2.865-7.565,3.347-11.278,2.934s-10.361-4.218-12.218-5.318c-1.077,2.98-2.292,5.937-3.484,8.78-.573,1.215-1.077,2.5-1.7,3.622l-1.765,3.439c-1.284,2.292-2.476,4.585-3.737,6.579-.619,1.077-1.238,2.063-1.857,3.095,1.284-1.559,3.37-4.012,3.6-4.195,3.645-3.416,12.722-7.863,17.605-5.135a6.648,6.648,0,0,1,1.925,9.674c-2.292,3.232-6.992,4.447-10.705,4.585-4.126.161-12.264-3.14-13.273-3.553-1.536,2.545-3.049,4.974-4.585,7.244-4.585,7.152-8.734,12.952-11.668,16.963s-4.722,6.258-4.722,6.258h0a1.971,1.971,0,0,1-3.026-2.522S404.337,345.358,407.34,341.461Z" transform="translate(1282.374 386.154)" fill="rgba(254,118,36,0.89)" style="mix-blend-mode: darken;isolation: isolate"/>
      <path id="Path_199" data-name="Path 199" d="M420.375,357.615c.619-4.883,1.421-11.874,1.994-20.287.16-2.43.3-5,.413-7.656-1.1-.115-9.811-1.123-13.342-3.232s-6.739-5.249-7.175-9.169a6.625,6.625,0,0,1,6.327-7.565c5.593,0,11.462,8.184,12.975,12.929.115.321.894,4.034,1.261,5.937,0-1.582.115-3.186.161-4.86v-7.381c0-1.284,0-2.567-.115-3.874s-.183-2.567-.275-3.851c-.16-1.926-.436-3.874-.688-5.823-2.453,0-9.651.161-13-1.215s-7.473-4.149-8.482-7.977a6.625,6.625,0,0,1,5.089-8.436c5.525-.894,12.539,6.373,14.809,10.843,0,.138.458,1.123.894,2.292-.3-1.9-.619-3.805-1.009-5.731q-1.616-8.149-3.622-16.436l-.756-3.461c-2.063,0-9.834.229-13.341-1.192s-7.473-4.149-8.5-7.977a6.625,6.625,0,0,1,5.112-8.436c5.525-.894,12.516,6.373,14.786,10.843,0,.161.55,1.33,1.032,2.659-.642-3-1.238-6.006-1.742-9.009a118.02,118.02,0,0,1-1.628-15.565c-.734,0-9.857.413-13.754-1.169-3.461-1.4-7.473-4.149-8.5-7.977A6.625,6.625,0,0,1,394.4,226.4c5.525-.894,12.539,6.373,14.808,10.82.161.321,1.765,4.585,2.292,6.166V243.2a86.805,86.805,0,0,1,1.169-15.313A116.216,116.216,0,0,1,415.63,214.5q1.685-6.155,3.53-11.049c.642-1.742,1.261-3.347,1.857-4.837H420.9c-.115,0-.367-6.762-.321-7.175.367-5,4.035-14.4,9.467-15.7a6.648,6.648,0,0,1,7.977,5.823c.527,3.92-2.132,8-4.768,10.636s-10.109,5.57-11.943,6.258c-.573,1.559-1.169,3.232-1.811,5.066-1.077,3.278-2.292,6.877-3.278,11.072-.275,1.1-.527,2.292-.8,3.439a44.575,44.575,0,0,1,2.292-4.585c2.636-4.241,10.224-10.912,15.657-9.559a6.648,6.648,0,0,1,4.378,8.826c-1.352,3.737-5.57,6.143-9.169,7.244s-11.806.275-13.571,0c-.527,2.545-1.032,5.181-1.4,7.954a83.716,83.716,0,0,0-.8,15.152c0,.275,0,.573,0,.871.252-.986,2.086-6.258,2.292-6.625,2.155-4.585,8.963-11.943,14.51-11.21a6.625,6.625,0,0,1,5.318,8.3c-.917,3.851-4.86,6.694-8.275,8.207-3.943,1.719-13.433,1.536-13.754,1.536a115.03,115.03,0,0,0,1.926,15.015c.688,3.668,1.559,7.358,2.453,11.049.367-1.261,2.063-6.166,2.292-6.51,2.155-4.585,8.963-11.966,14.511-11.232a6.648,6.648,0,0,1,5.318,8.3c-.917,3.851-4.86,6.717-8.275,8.207-3.851,1.673-12.929,1.559-13.754,1.536.413,1.7.8,3.37,1.238,5.043,1.375,5.479,2.774,10.957,3.989,16.436.413,1.88.756,3.759,1.123,5.639.619-1.88,1.788-5.3,1.926-5.57,2.155-4.585,8.963-11.966,14.51-11.232a6.648,6.648,0,0,1,5.318,8.3c-.917,3.851-4.86,6.694-8.275,8.207s-11.072,1.559-13.227,1.559c.573,3.118,1.055,6.235,1.4,9.33.115,1.353.321,2.7.367,3.989l.206,3.874v11.164c.321-1.994.917-5.158.986-5.456,1.444-4.768,7.06-13.181,12.654-13.273a6.6,6.6,0,0,1,6.51,7.381c-.321,3.943-3.782,7.358-6.877,9.376s-12.172,3.438-13.227,3.6c0,2.934-.138,5.823-.275,8.5-.39,8.528-1.032,15.588-1.559,20.631s-.94,7.794-.94,7.794h0a1.971,1.971,0,1,1-3.874-.642S419.757,362.429,420.375,357.615Z" transform="translate(1265.51 368.785)" fill="rgba(254,118,36,0.89)" style="mix-blend-mode: darken;isolation: isolate"/>
      <path id="Path_197" data-name="Path 197" d="M437.585,325.4c-1.33-3.347-3.278-8.138-5.914-13.754-.734-1.628-1.559-3.347-2.43-5.089a33.421,33.421,0,0,1-9.742,2.636,10.132,10.132,0,0,1-7.863-3.37,4.86,4.86,0,0,1,1.4-7.106c3.576-2.017,10.247,1.238,12.952,3.737.161.16,1.994,2.292,2.888,3.393-.527-1.055-1.032-2.109-1.6-3.186-.8-1.582-1.7-3.209-2.567-4.814l-1.444-2.43c-.459-.848-1.032-1.6-1.536-2.407-.779-1.169-1.651-2.292-2.522-3.507a30.442,30.442,0,0,1-8.78,3.828,10.155,10.155,0,0,1-8.3-2.132,4.883,4.883,0,0,1,.3-7.244c3.255-2.522,10.338-.321,13.364,1.742a10.959,10.959,0,0,1,1.4,1.169c-.871-1.1-1.742-2.292-2.659-3.324-2.636-3.118-5.387-6.189-8.161-9.307l-1.719-1.949a32.553,32.553,0,0,1-9.009,3.966,10.316,10.316,0,0,1-8.3-2.132,4.86,4.86,0,0,1,.3-7.244c3.232-2.522,10.316-.344,13.364,1.719l1.6,1.375c-1.467-1.719-2.911-3.439-4.31-5.2a83.822,83.822,0,0,1-6.556-9.422,34.385,34.385,0,0,1-9.284,4.1,10.224,10.224,0,0,1-8.3-2.132,4.883,4.883,0,0,1,.3-7.244c3.255-2.522,10.339-.321,13.387,1.742.206.138,2.774,2.292,3.645,3.141v-.115a63.681,63.681,0,0,1-4.585-10.27,87.55,87.55,0,0,1-2.843-9.674c-.734-3.026-1.215-5.868-1.628-8.367-.206-1.352-.39-2.59-.527-3.759h0s-2.636-4.218-2.751-4.585c-1.536-3.347-2.5-10.705.55-13.456a4.86,4.86,0,0,1,7.175.917,10.178,10.178,0,0,1,.688,8.528,32.1,32.1,0,0,1-5.456,8.275c.183,1.215.39,2.5.619,3.92.481,2.476,1.009,5.272,1.811,8.275.206.8.481,1.673.711,2.5,0-1.49-.229-3.53-.206-3.737.183-3.668,2.7-10.636,6.694-11.691a4.86,4.86,0,0,1,5.937,4.149,10.133,10.133,0,0,1-3.3,7.886,32.734,32.734,0,0,1-8.711,4.837c.55,1.834,1.169,3.714,1.9,5.616a62.733,62.733,0,0,0,4.837,10.041l.367.55c-.183-.734-.871-4.768-.894-5.066-.206-3.668,1.536-10.866,5.364-12.356a4.86,4.86,0,0,1,6.373,3.461,10.132,10.132,0,0,1-2.43,8.207,34.385,34.385,0,0,1-8.321,5.868,82.233,82.233,0,0,0,6.556,8.986c1.742,2.109,3.6,4.195,5.5,6.258-.229-.94-.871-4.722-.894-5-.206-3.668,1.536-10.866,5.387-12.356a4.86,4.86,0,0,1,6.35,3.461,10.132,10.132,0,0,1-2.43,8.207,33.215,33.215,0,0,1-8.275,5.845l2.27,3.049c2.82,3.026,5.662,6.075,8.39,9.169.94,1.054,1.811,2.155,2.7,3.232-.275-1.444-.711-4.057-.734-4.287-.206-3.668,1.536-10.866,5.387-12.356a4.86,4.86,0,0,1,6.35,3.461,10.2,10.2,0,0,1-2.407,8.207,32.276,32.276,0,0,1-7.977,5.685c1.467,1.811,2.889,3.668,4.218,5.525.527.825,1.146,1.628,1.628,2.453l1.513,2.407c.963,1.673,1.857,3.255,2.7,4.837.458.8.848,1.559,1.261,2.292-.5-1.421-1.238-3.668-1.284-3.874-.779-3.6-.138-10.98,3.439-13.043a4.883,4.883,0,0,1,6.877,2.453A10.178,10.178,0,0,1,438.25,298a33.035,33.035,0,0,1-7.267,7.015c1.009,1.926,1.971,3.805,2.843,5.593,2.774,5.616,4.86,10.407,6.281,13.754s2.155,5.341,2.155,5.341h0a1.467,1.467,0,0,1-.894,1.834,1.444,1.444,0,0,1-1.834-.894S438.8,328.765,437.585,325.4Z" transform="translate(1241.426 404.902)" fill="rgba(254,118,36,0.89)" style="mix-blend-mode: darken;isolation: isolate"/>
    </g>
  </g>
</svg>
