<svg xmlns="http://www.w3.org/2000/svg" width="30.453" height="30.227" viewBox="0 0 43.453 59.227"><path d="M438.441,351.911c-.056-3.215-.081-6.53-.075-10.129a5.772,5.772,0,0,1,4.38,2.4.564.564,0,0,0,.492.283.664.664,0,0,0,.565-.328.541.541,0,0,0-.024-.566,7.006,7.006,0,0,0-5.411-2.976v-1.028c0-.528,0-1.056,0-1.585a.56.56,0,0,0-.157-.41.618.618,0,0,0-.438-.173.578.578,0,0,0-.6.581c-.005.51-.005,1.019,0,1.528v1.017h-.106a13.522,13.522,0,0,0-3.21.388l.005-2.763a.559.559,0,0,0-.16-.41.622.622,0,0,0-.439-.172.573.573,0,0,0-.6.582l-.006,3.135c-2.97,1.088-6.011,3.5-4.9,6.76.887,2.6,3.057,3.462,4.876,3.918l-.018,9.684a6.283,6.283,0,0,1-4.784-4.55.59.59,0,0,0-.576-.414.64.64,0,0,0-.516.249.532.532,0,0,0-.061.493c1.044,3.121,2.985,4.909,5.934,5.462l-.01,5.6a.559.559,0,0,0,.16.411.622.622,0,0,0,.439.172.573.573,0,0,0,.6-.583l.011-5.444q.557.042,1.144.043c.528,0,1.088-.026,1.663-.078.3-.027.619-.073.94-.131l0,.126c.07,1.774.139,3.548.227,5.321a.627.627,0,0,0,1.058.4.544.544,0,0,0,.141-.413c-.093-1.9-.169-3.8-.242-5.7a7.569,7.569,0,0,0,4.815-3.294,4.2,4.2,0,0,0,.137-3.475C442.755,353.212,440.521,352.373,438.441,351.911Zm.257,9.536c-.108-2.958-.186-5.7-.24-8.364a8.327,8.327,0,0,1,1.727.643,4.8,4.8,0,0,1,2.447,2.816,3.22,3.22,0,0,1-.392,2.592A5.483,5.483,0,0,1,438.7,361.447Zm-2.529-9.95c-.777-.126-1.58-.257-2.335-.426l.017-8.912s.141-.046.188-.058a12,12,0,0,1,3.047-.39h.08c-.006,3.544.018,6.806.071,9.963C436.883,351.612,436.525,351.555,436.169,351.5Zm-2.338.724c.54.1,1.088.189,1.634.277.6.1,1.2.194,1.789.309.056,2.859.141,5.846.254,8.882-.307.046-.612.086-.908.114-.574.052-1.12.079-1.624.079q-.6,0-1.164-.051Zm-1.182-9.662-.015,8.192a7.476,7.476,0,0,1-1.464-.636,4.454,4.454,0,0,1-2.3-3.087,3.2,3.2,0,0,1,.981-2.719A7.853,7.853,0,0,1,432.649,342.559Z" transform="translate(-413.539 -324.463)" fill="rgba(254,118,36,0.72)"/><path d="M456.947,370.477c.117-4.039-.016-8.141-.144-12.108-.071-2.162-.141-4.324-.173-6.487-.045-3.111.009-6.271.06-9.327q.033-1.887.058-3.774c.03-2.466,0-4.629-.095-6.613-.013-.29-.019-.586-.025-.885a8.387,8.387,0,0,0-.593-3.592c-1.371-2.768-4.178-3.183-7.008-3.219-.467-.007-.935-.009-1.4-.009-2.494,0-5.028.079-7.48.156-1.668.052-3.336.105-5,.134-.725-.018-1.45-.024-2.173-.024-1.331,0-2.66.022-3.99.044-1.015.018-2.031.035-3.047.042h-.139c-.607,0-1.236-.025-1.876-.05-.663-.027-1.338-.054-2.011-.054a10.491,10.491,0,0,0-4.715.885,6.945,6.945,0,0,0-3.468,5.754c-.162,2.814-.078,5.677,0,8.447.043,1.462.086,2.924.1,4.385.027,4.465-.059,9.007-.142,13.4-.043,2.269-.085,4.537-.114,6.806-.04,3.183-.036,6.472.013,9.776.044,2.978.169,4.784,2.206,7.284,1.52,1.865,3.34,2.019,5.228,2.019.312,0,.632,0,.961-.011,0,0,.894-.011,1.149-.011,1.394,0,2.813.049,4.187.1s2.8.1,4.2.1c1.434,0,2.873.013,4.312.028s2.887.027,4.33.027h0a101.908,101.908,0,0,0,10.755-.47c2.136-.232,4.135-.624,5.121-2.864.964-2.19.939-5.1.916-7.677C456.935,371.91,456.928,371.167,456.947,370.477Zm-42.274-1.192c.033-.828.065-1.6.068-2.277.017-2.942.073-5.882.131-8.823.042-2.16.084-4.32.109-6.481.04-3.255.071-7.542-.046-11.836-.018-.7-.068-1.463-.12-2.25-.211-3.206-.449-6.84,1.2-9.3,1.421-2.125,3.919-2.413,6.173-2.413.693,0,1.387.031,2.062.059.641.027,1.264.054,1.85.054h.177c.874-.008,1.747-.024,2.62-.038,1.353-.023,2.705-.046,4.058-.046.728,0,1.456.006,2.19.023,1.727-.029,3.454-.081,5.18-.134,1.513-.046,3.025-.091,4.537-.122.464-.008.975-.036,1.514-.065.762-.041,1.58-.085,2.4-.085,2.321,0,5.124.31,6.214,2.734a10.491,10.491,0,0,1,.505,4.049c0,.4,0,.787.012,1.147.048,1.469.062,3.072.046,4.9-.014,1.435-.041,2.868-.07,4.3-.038,1.964-.076,3.928-.076,5.893,0,3.112.1,6.271.2,9.326.069,2.109.137,4.218.174,6.33.045,2.608.016,5.242-.087,7.827-.02.506-.024,1.048-.029,1.608-.028,3.631-.06,7.746-4.1,8.288a71.2,71.2,0,0,1-9.4.5c-1.034,0-2.068-.009-3.1-.018s-2.067-.018-3.1-.018l-1.318.005q-2.547.015-5.105.019c-3.695,0-6.532-.047-9.2-.154-2.734-.11-4.445-1.613-5.231-4.593A30.2,30.2,0,0,1,414.673,369.285Z" transform="translate(-413.539 -324.463)" fill="rgba(254,118,36,0.72)"/><path d="M418.737,350.189c-.087,7.333-.177,14.917.425,22.329a.61.61,0,0,0,.6.591l3,.113c5.589.21,11.369.426,17.053.426h0c4.223,0,8.009-.118,11.574-.362a.609.609,0,0,0,.592-.6c-.016-2.662-.086-5.364-.152-7.977-.088-3.4-.179-6.921-.153-10.387l.029-3.328c.042-4.665.087-9.488-.013-14.23,0-.16.011-.4.026-.676.053-.976.128-2.312-.3-2.8a1.5,1.5,0,0,0-1.158-.355c-.113,0-.7.011-.7.011-4.265-.127-8.508-.14-12.842-.144h-1.989c-4.992,0-10.3.029-15.475.39a.466.466,0,0,0-.145.038.531.531,0,0,0-.447.565C418.867,339.24,418.8,344.807,418.737,350.189ZM450.4,334.071h0l.016.016h-.008a3.983,3.983,0,0,1,.028.621c0,.115,0,.225,0,.321.071,1.4.078,2.822.084,4.2l0,.637c.019,3.271,0,6.541-.024,9.812-.041,6.063-.082,12.334.152,18.5l.013.341c.033.871.066,1.742.088,2.612,0,.178.013.315.02.425.026.359.026.359-.4.6a3.332,3.332,0,0,1-1,.1s-.8,0-.862,0c-2.674.135-5.493.2-8.619.2q-.959,0-1.917-.008c-3.506-.029-6.977-.136-9.608-.226-1.339-.046-4.791-.175-4.791-.175-.2-.008-.4-.009-.615-.01a9.221,9.221,0,0,1-1.285-.062l-.41-.056c-.932-.122-.988-.13-1.032-1.274-.237-6.151-.216-12.411-.194-18.465.019-5.846.04-11.891-.172-17.835,4.031-.264,8.32-.381,13.89-.381,2.591,0,5.182.024,7.767.05l.98.008c1,.01,2.013.044,3.024.079,1.19.04,2.38.082,3.565.082.434,0,.868-.005,1.3-.019l0-.1Z" transform="translate(-413.539 -324.463)" fill="rgba(254,118,36,0.72)"/><path d="M435.686,375.287l-.462-.014c-.3-.007-.617-.016-.938-.016-1.666,0-3.462.229-4.149,1.931a2.432,2.432,0,0,0,.05,2.349c.851,1.272,3.1,1.426,4.035,1.433.293,0,.606.014.932.026.4.015.807.03,1.219.03h0c1.863,0,3.827-.3,4.269-2.513a2.291,2.291,0,0,0-.358-1.954C439.364,375.4,437.15,375.332,435.686,375.287Zm-3.078,4.413a1.534,1.534,0,0,1-1.2-1.488,1.625,1.625,0,0,1,1.159-1.6,5.049,5.049,0,0,1,1.481-.179c.3,0,.605.013.9.026.192.008.38.016.563.02l.234,0c.176,0,.351,0,.525-.01s.346-.01.52-.01h.165a2.612,2.612,0,0,1,2.558,1.528,1.07,1.07,0,0,1-.14.983c-.428.557-1.517.829-3.329.829-.386,0-.742-.012-1.031-.022-.185-.006-.5-.013-.5-.013-.16,0-.324.006-.49.012s-.339.011-.51.011A3.46,3.46,0,0,1,432.608,379.7Z" transform="translate(-413.539 -324.463)" fill="rgba(254,118,36,0.72)"/><path d="M430.5,330.222h0c1.429-.092,2.876-.139,4.3-.139,1.768,0,3.562.072,5.33.214l.054,0a.525.525,0,0,0,.533-.534.619.619,0,0,0-.572-.667c-1.773-.143-3.571-.214-5.345-.214-1.429,0-2.88.046-4.315.138a.61.61,0,0,0-.573.654A.545.545,0,0,0,430.5,330.222Z" transform="translate(-413.539 -324.463)" fill="rgba(254,118,36,0.72)"/><path d="M442.133,330.256a.558.558,0,0,0,.438-.191.63.63,0,0,0,.145-.409.573.573,0,0,0-.583-.6.559.559,0,0,0-.439.19.635.635,0,0,0-.144.409A.573.573,0,0,0,442.133,330.256Z" transform="translate(-413.539 -324.463)" fill="rgba(254,118,36,0.72)"/><path d="M424.82,335.727l-.151,0c-.17,0-.358-.007-.555-.016-.221-.01-.456-.02-.69-.02-.8,0-1.76.112-2.058.984a10.024,10.024,0,0,0-.009,4.4c.062.432.12.849.16,1.237a.635.635,0,0,0,.648.57.576.576,0,0,0,.428-.176.523.523,0,0,0,.123-.413l-.091-.859c-.1-.94-.208-1.914-.22-2.869l-.009-.291c-.022-.565-.043-1.1.4-1.281a2.193,2.193,0,0,1,.8-.1c.206,0,.419.01.62.019.181.009.352.017.5.017l.117,0a.6.6,0,0,0,.578-.632A.554.554,0,0,0,424.82,335.727Z" transform="translate(-413.539 -324.463)" fill="rgba(254,118,36,0.72)"/><path d="M427.055,336.113a.573.573,0,0,0-.583-.6.559.559,0,0,0-.439.19.631.631,0,0,0-.144.409.573.573,0,0,0,.583.6.557.557,0,0,0,.438-.191A.628.628,0,0,0,427.055,336.113Z" transform="translate(-413.539 -324.463)" fill="rgba(254,118,36,0.72)"/></svg>