<svg xmlns="http://www.w3.org/2000/svg" width="31.259" height="31.169" viewBox="0 0 31.259 31.169"><g transform="translate(-46.847 -237.977)"><path d="M78.085,245.663c-.006-.393-.015-.784-.024-1.176-.021-.888-.043-1.807-.026-2.712a5.084,5.084,0,0,0-.33-2.3c-.56-1.146-1.846-1.258-2.88-1.348-.814-.07-1.694-.1-2.771-.1-.67,0-1.34.013-2.009.025l-.865.015q-.479.007-.958.007c-1.105,0-2.21-.024-3.314-.05-1-.023-1.993-.045-2.99-.049-2.4,0-4.831.05-7.186.094q-1.579.028-3.158.056l-.432,0c-1.221,0-2.605.006-3.44,1.019s-.8,2.578-.761,3.958c.009.322.017.63.012.914-.028,1.916-.025,3.863-.021,5.747,0,2.266.009,4.609-.043,6.913-.032,1.461-.064,3.159-.017,4.829.007.253.006.525,0,.806a7.518,7.518,0,0,0,.427,3.17c.564,1.161,1.673,1.258,2.762,1.258l.291,0-.013.2c-.045.666-.108,1.58.342,1.936a2.093,2.093,0,0,0,1.269.272c.275,0,.555-.017.8-.031.185-.01.352-.02.506-.021s.306.009.485.019c.214.012.447.024.678.024a2.023,2.023,0,0,0,1.258-.289.816.816,0,0,0,.278-.594,6.168,6.168,0,0,0,.018-.972c-.006-.193-.012-.386-.009-.572l1.725,0c2.087.01,4.214.079,6.271.145,1.756.057,3.571.116,5.356.138l0,.064c-.036.625-.086,1.481.343,1.82a2.091,2.091,0,0,0,1.269.272c.276,0,.555-.017.8-.031.185-.01.352-.02.506-.021s.306.009.485.019c.214.012.447.024.678.024a2.024,2.024,0,0,0,1.258-.289.829.829,0,0,0,.278-.594,6.242,6.242,0,0,0,.019-.978c0-.115-.007-.229-.009-.342,1.355-.115,2.2-.456,2.6-1.043a2.452,2.452,0,0,0,.3-1.276l.006-.116c.05-.871.053-1.763.056-2.624,0-.436,0-.872.01-1.306q.031-1.877.073-3.756C78.065,253.157,78.144,249.377,78.085,245.663Zm-.918,15.807c-.006.334-.007.67-.007,1.006,0,.662,0,1.346-.043,2.014-.094,1.595-1.938,1.665-3.284,1.717l-.394.017c-.8.04-1.642.061-2.564.061-1.725,0-3.484-.072-5.186-.141-1.358-.056-2.762-.113-4.137-.133C61.16,266,60.766,266,60.373,266c-1.217,0-2.438.023-3.659.048s-2.446.047-3.665.047c-1.292,0-2.422-.027-3.454-.084-1.884-.1-1.927-1.988-1.96-3.5l-.011-.421c-.045-1.3-.072-2.4-.053-3.506.064-3.859.094-7.268.091-10.422,0-1.747,0-3.807.057-5.833.046-1.745.242-3.206,2.2-3.42a13.147,13.147,0,0,1,1.433-.061H51.7s.628,0,.764,0q1.3-.02,2.6-.046c2.244-.041,4.565-.084,6.846-.089,1.408.005,2.815.018,4.224.029,1.858.015,3.717.029,5.622.032,0,0,1.116-.007,1.346-.007a12.228,12.228,0,0,1,2.649.22c1.689.378,1.621,2.086,1.561,3.593-.015.361-.028.711-.019,1.031.11,3.712.044,7.486-.02,11.135Zm-4.928,6.889h-.02c-.117,0-.24,0-.367.009-.149,0-.3.01-.454.01a3.16,3.16,0,0,1-.712-.064c-.673-.156-.651-.693-.627-1.315v0q.435,0,.869,0c.559,0,1.117,0,1.676-.015.116,0,.811,0,.811,0,.252,0,.523,0,.8-.01v.01a2.03,2.03,0,0,1-.169,1.135c-.178.237-.664.265-1.014.265-.16,0-.318-.007-.463-.012C72.448,268.364,72.334,268.359,72.238,268.359Zm-18.977,0h-.02c-.118,0-.243,0-.371.009-.15.005-.305.011-.459.011a3.03,3.03,0,0,1-.7-.065c-.482-.116-.513-.185-.606-.691a3.389,3.389,0,0,1-.017-.774l.006-.115q2.073-.02,4.146-.025c0,.085,0,.177,0,.271a2.031,2.031,0,0,1-.17,1.136c-.178.237-.664.265-1.014.265-.16,0-.318-.007-.463-.012C53.471,268.364,53.357,268.359,53.26,268.359Z" transform="translate(0 0)" fill="#2e186a"/><path d="M76.067,251c0-.605-.016-1.211-.031-1.817-.02-.777-.039-1.58-.026-2.368l0-.189a3.323,3.323,0,0,0-.447-2.173c-.613-.756-1.915-.844-2.842-.844-.339,0-.669.013-.972.024-.249.01-.479.018-.678.019h-.286c-1.146,0-2.291-.012-3.437-.023s-2.292-.023-3.48-.023c-1.685,0-3.4.034-5.055.067-.747.015-1.493.03-2.24.042-1.776.028-3.393.2-3.684,1.951a.938.938,0,0,0-.82.394,4.491,4.491,0,0,0-.2,2.173c.011.183.021.349.024.486s-.006.335-.015.536a3.2,3.2,0,0,0,.273,1.942.978.978,0,0,0,.659.3v.994c0,1.774,0,3.609-.035,5.414a.878.878,0,0,0-.711.386,4.491,4.491,0,0,0-.2,2.173c.011.183.021.349.024.486s-.006.335-.015.536a3.2,3.2,0,0,0,.273,1.942,1.034,1.034,0,0,0,.74.309c.269,1.624,1.464,1.85,2.718,1.85.293,0,.6-.013.9-.026.27-.012.539-.023.8-.026q1.085-.008,2.171-.008c2.421,0,4.872.031,7.285.092.538.015,1.077.034,1.615.054.962.036,1.957.073,2.936.073,0,0,.411,0,.595.005.2,0,.413.007.627.007a5.869,5.869,0,0,0,2.466-.386,1.423,1.423,0,0,0,.837-1.11,10.8,10.8,0,0,0,.129-2.949c-.02-.459-.039-.9-.032-1.313q.019-1.19.043-2.38C76.027,255.444,76.069,253.2,76.067,251Zm-.826,9.468a15.406,15.406,0,0,1-.083,2.707c-.188,1.212-.558,1.6-1.653,1.731a18.756,18.756,0,0,1-2.139.1h-.145c-1.513,0-3.052-.051-4.54-.1-1.19-.039-2.38-.079-3.57-.094q-1.824-.024-3.649-.023h-.624c-.233,0-.526.017-.855.037-.428.024-.913.053-1.4.053-1.733,0-2.664-.372-2.92-1.171.054-.006.105-.013.15-.02.446-.067.538-.205.6-.616a7.687,7.687,0,0,0,.029-1.533c-.009-.177-.016-.351-.02-.517,0-.227.013-.5.032-.788a4.884,4.884,0,0,0-.089-1.81.922.922,0,0,0-.85-.536c.037-1.806.036-3.641.035-5.416v-.979c.1-.01.185-.021.259-.032.446-.067.538-.205.6-.616a7.687,7.687,0,0,0,.029-1.533c-.009-.177-.016-.351-.02-.517,0-.227.013-.5.032-.788a4.884,4.884,0,0,0-.089-1.81.845.845,0,0,0-.732-.518c.249-1.1,1.4-1.249,2.615-1.249l.833.008,3.67-.061q1.446-.023,2.889-.024,1.385,0,2.771.029c.414.01.828.013,1.242.013.517,0,1.034,0,1.551-.01s1.033-.01,1.549-.01c.8,0,1.45.013,2.057.039.114.005.238.006.368.007a3.16,3.16,0,0,1,1.31.185c.774.4.781,1.029.789,1.762l0,.2c.028,1.377.043,2.762.047,4.14.007,2.118-.033,4.272-.072,6.356l-.037,2.062C75.216,259.559,75.228,260.009,75.241,260.463Zm-22.179,2.523c-.078,0-.315,0-.364-.51a3.713,3.713,0,0,1-.07-1.105c0-.153.009-.3.007-.43s-.01-.262-.019-.407c-.049-.831-.109-1.864.752-1.932.441.053.37,1.546.34,2.185-.009.167-.015.3-.013.383s.012.217.026.38a4.793,4.793,0,0,1,0,1.362,1.273,1.273,0,0,1-.376.057c-.039,0-.078,0-.138,0A.6.6,0,0,1,53.062,262.985Zm.646-14.428c-.009.167-.015.3-.013.383s.012.217.026.38a4.793,4.793,0,0,1,0,1.362,1.273,1.273,0,0,1-.376.057c-.039,0-.078,0-.138,0a.6.6,0,0,1-.149.021c-.078,0-.315,0-.364-.51a3.713,3.713,0,0,1-.07-1.105c0-.153.009-.3.007-.43s-.01-.262-.019-.407c-.049-.831-.109-1.864.752-1.932C53.81,246.425,53.738,247.918,53.708,248.557Z" transform="translate(-1.941 -2.185)" fill="#2e186a"/><path d="M79.952,256.268a3.84,3.84,0,0,0-.8-.083,2.983,2.983,0,0,0-3.063,2.156A3.5,3.5,0,0,0,78.51,262.8a4.128,4.128,0,0,0,1.127.171h0c1.479,0,2.5-1.024,2.877-2.885C82.878,258.28,81.922,256.854,79.952,256.268Zm1.817,2.829a.341.341,0,0,0-.268.117.382.382,0,0,0-.089.25.35.35,0,0,0,.356.366h.059a4.039,4.039,0,0,1-.519,1.586,2.043,2.043,0,0,1-1.648.8v-.007a1.3,1.3,0,0,1,0-.147.333.333,0,0,0-.087-.252.364.364,0,0,0-.265-.107.369.369,0,0,0-.382.353c0,.023,0,.046,0,.087-.073-.016-.147-.033-.219-.054a2.584,2.584,0,0,1-1.944-2.265l.08-.01a.309.309,0,0,0,.27-.345.4.4,0,0,0-.364-.361l0-.035c0-.067.006-.135.014-.2a2.216,2.216,0,0,1,2.1-1.933v.089a.367.367,0,0,0,.734,0v-.068l.023,0c.048,0,.1.009.138.017a2.578,2.578,0,0,1,2.093,2.122Z" transform="translate(-11.31 -7.076)" fill="#2e186a"/><path d="M93.072,241.432a.4.4,0,0,0-.114-.018.347.347,0,0,0-.336.314.36.36,0,0,0,.251.41c.819.257.831,1.623.839,2.527,0,.2,0,.376.013.52.057.888.077,1.848.061,2.932a.339.339,0,0,0,.095.251.376.376,0,0,0,.268.106.356.356,0,0,0,.371-.355,31.065,31.065,0,0,0-.247-4.938C94.149,242.319,93.9,241.69,93.072,241.432Z" transform="translate(-17.787 -1.336)" fill="#2e186a"/><path d="M90.543,241.615h.029a.351.351,0,0,0,.356-.367.358.358,0,0,0-.386-.366.35.35,0,0,0-.356.366.384.384,0,0,0,.088.251A.342.342,0,0,0,90.543,241.615Z" transform="translate(-16.842 -1.129)" fill="#2e186a"/><path d="M81.748,259.865a2.567,2.567,0,0,0,.049-.4.37.37,0,0,0-.111-.261.359.359,0,0,0-.252-.112.3.3,0,0,0-.108.02,2.221,2.221,0,0,1-.392.1,1.2,1.2,0,0,0-.26.067,1.3,1.3,0,0,0-.412-.068,1.183,1.183,0,0,0-.739.257,1.778,1.778,0,0,0-.624.974,1.425,1.425,0,0,0,.391,1.189,1.49,1.49,0,0,0,1.152.562,1.347,1.347,0,0,0,.872-.315,1.46,1.46,0,0,0,.388-1.7A2.992,2.992,0,0,1,81.748,259.865Zm-.712,1.162a.716.716,0,0,1-.636.422.7.7,0,0,1-.566-.309.712.712,0,0,1,.051-1.017.58.58,0,0,1,.416-.182.658.658,0,0,1,.525.288l.046.062.007,0A.661.661,0,0,1,81.036,261.026Z" transform="translate(-12.447 -8.204)" fill="#2e186a"/></g></svg>