<svg xmlns="http://www.w3.org/2000/svg" width="24.225" height="22.15" viewBox="0 0 24.225 22.15"><g transform="translate(-49.901 -241.416)"><path d="M76.067,251c0-.605-.016-1.211-.031-1.817-.02-.777-.039-1.58-.026-2.368l0-.189a3.323,3.323,0,0,0-.447-2.173c-.613-.756-1.915-.844-2.842-.844-.339,0-.669.013-.972.024-.249.01-.479.018-.678.019h-.286c-1.146,0-2.291-.012-3.437-.023s-2.292-.023-3.48-.023c-1.685,0-3.4.034-5.055.067-.747.015-1.493.03-2.24.042-1.776.028-3.393.2-3.684,1.951a.938.938,0,0,0-.82.394,4.491,4.491,0,0,0-.2,2.173c.011.183.021.349.024.486s-.006.335-.015.536a3.2,3.2,0,0,0,.273,1.942.978.978,0,0,0,.659.3v.994c0,1.774,0,3.609-.035,5.414a.878.878,0,0,0-.711.386,4.491,4.491,0,0,0-.2,2.173c.011.183.021.349.024.486s-.006.335-.015.536a3.2,3.2,0,0,0,.273,1.942,1.034,1.034,0,0,0,.74.309c.269,1.624,1.464,1.85,2.718,1.85.293,0,.6-.013.9-.026.27-.012.539-.023.8-.026q1.085-.008,2.171-.008c2.421,0,4.872.031,7.285.092.538.015,1.077.034,1.615.054.962.036,1.957.073,2.936.073,0,0,.411,0,.595.005.2,0,.413.007.627.007a5.869,5.869,0,0,0,2.466-.386,1.423,1.423,0,0,0,.837-1.11,10.8,10.8,0,0,0,.129-2.949c-.02-.459-.039-.9-.032-1.313q.019-1.19.043-2.38C76.027,255.444,76.069,253.2,76.067,251Zm-.826,9.468a15.406,15.406,0,0,1-.083,2.707c-.188,1.212-.558,1.6-1.653,1.731a18.756,18.756,0,0,1-2.139.1h-.145c-1.513,0-3.052-.051-4.54-.1-1.19-.039-2.38-.079-3.57-.094q-1.824-.024-3.649-.023h-.624c-.233,0-.526.017-.855.037-.428.024-.913.053-1.4.053-1.733,0-2.664-.372-2.92-1.171.054-.006.105-.013.15-.02.446-.067.538-.205.6-.616a7.687,7.687,0,0,0,.029-1.533c-.009-.177-.016-.351-.02-.517,0-.227.013-.5.032-.788a4.884,4.884,0,0,0-.089-1.81.922.922,0,0,0-.85-.536c.037-1.806.036-3.641.035-5.416v-.979c.1-.01.185-.021.259-.032.446-.067.538-.205.6-.616a7.687,7.687,0,0,0,.029-1.533c-.009-.177-.016-.351-.02-.517,0-.227.013-.5.032-.788a4.884,4.884,0,0,0-.089-1.81.845.845,0,0,0-.732-.518c.249-1.1,1.4-1.249,2.615-1.249l.833.008,3.67-.061q1.446-.023,2.889-.024,1.385,0,2.771.029c.414.01.828.013,1.242.013.517,0,1.034,0,1.551-.01s1.033-.01,1.549-.01c.8,0,1.45.013,2.057.039.114.005.238.006.368.007a3.16,3.16,0,0,1,1.31.185c.774.4.781,1.029.789,1.762l0,.2c.028,1.377.043,2.762.047,4.14.007,2.118-.033,4.272-.072,6.356l-.037,2.062C75.216,259.559,75.228,260.009,75.241,260.463Zm-22.179,2.523c-.078,0-.315,0-.364-.51a3.713,3.713,0,0,1-.07-1.105c0-.153.009-.3.007-.43s-.01-.262-.019-.407c-.049-.831-.109-1.864.752-1.932.441.053.37,1.546.34,2.185-.009.167-.015.3-.013.383s.012.217.026.38a4.793,4.793,0,0,1,0,1.362,1.273,1.273,0,0,1-.376.057c-.039,0-.078,0-.138,0A.6.6,0,0,1,53.062,262.985Zm.646-14.428c-.009.167-.015.3-.013.383s.012.217.026.38a4.793,4.793,0,0,1,0,1.362,1.273,1.273,0,0,1-.376.057c-.039,0-.078,0-.138,0a.6.6,0,0,1-.149.021c-.078,0-.315,0-.364-.51a3.713,3.713,0,0,1-.07-1.105c0-.153.009-.3.007-.43s-.01-.262-.019-.407c-.049-.831-.109-1.864.752-1.932C53.81,246.425,53.738,247.918,53.708,248.557Z" transform="translate(-1.941 -2.185)" fill="#2e186a"/><path d="M79.952,256.268a3.84,3.84,0,0,0-.8-.083,2.983,2.983,0,0,0-3.063,2.156A3.5,3.5,0,0,0,78.51,262.8a4.128,4.128,0,0,0,1.127.171h0c1.479,0,2.5-1.024,2.877-2.885C82.878,258.28,81.922,256.854,79.952,256.268Zm1.817,2.829a.341.341,0,0,0-.268.117.382.382,0,0,0-.089.25.35.35,0,0,0,.356.366h.059a4.039,4.039,0,0,1-.519,1.586,2.043,2.043,0,0,1-1.648.8v-.007a1.3,1.3,0,0,1,0-.147.333.333,0,0,0-.087-.252.364.364,0,0,0-.265-.107.369.369,0,0,0-.382.353c0,.023,0,.046,0,.087-.073-.016-.147-.033-.219-.054a2.584,2.584,0,0,1-1.944-2.265l.08-.01a.309.309,0,0,0,.27-.345.4.4,0,0,0-.364-.361l0-.035c0-.067.006-.135.014-.2a2.216,2.216,0,0,1,2.1-1.933v.089a.367.367,0,0,0,.734,0v-.068l.023,0c.048,0,.1.009.138.017a2.578,2.578,0,0,1,2.093,2.122Z" transform="translate(-11.31 -7.076)" fill="#2e186a"/><path d="M81.748,259.865a2.567,2.567,0,0,0,.049-.4.37.37,0,0,0-.111-.261.359.359,0,0,0-.252-.112.3.3,0,0,0-.108.02,2.221,2.221,0,0,1-.392.1,1.2,1.2,0,0,0-.26.067,1.3,1.3,0,0,0-.412-.068,1.183,1.183,0,0,0-.739.257,1.778,1.778,0,0,0-.624.974,1.425,1.425,0,0,0,.391,1.189,1.49,1.49,0,0,0,1.152.562,1.347,1.347,0,0,0,.872-.315,1.46,1.46,0,0,0,.388-1.7A2.992,2.992,0,0,1,81.748,259.865Zm-.712,1.162a.716.716,0,0,1-.636.422.7.7,0,0,1-.566-.309.712.712,0,0,1,.051-1.017.58.58,0,0,1,.416-.182.658.658,0,0,1,.525.288l.046.062.007,0A.661.661,0,0,1,81.036,261.026Z" transform="translate(-12.447 -8.205)" fill="#2e186a"/></g></svg>