<svg xmlns="http://www.w3.org/2000/svg" width="31.259" height="31.169" viewBox="0 0 31.259 31.169"><path d="M78.085,245.663c-.006-.393-.015-.784-.024-1.176-.021-.888-.043-1.807-.026-2.712a5.084,5.084,0,0,0-.33-2.3c-.56-1.146-1.846-1.258-2.88-1.348-.814-.07-1.694-.1-2.771-.1-.67,0-1.34.013-2.009.025l-.865.015q-.479.007-.958.007c-1.105,0-2.21-.024-3.314-.05-1-.023-1.993-.045-2.99-.049-2.4,0-4.831.05-7.186.094q-1.579.028-3.158.056l-.432,0c-1.221,0-2.605.006-3.44,1.019s-.8,2.578-.761,3.958c.009.322.017.63.012.914-.028,1.916-.025,3.863-.021,5.747,0,2.266.009,4.609-.043,6.913-.032,1.461-.064,3.159-.017,4.829.007.253.006.525,0,.806a7.518,7.518,0,0,0,.427,3.17c.564,1.161,1.673,1.258,2.762,1.258l.291,0-.013.2c-.045.666-.108,1.58.342,1.936a2.093,2.093,0,0,0,1.269.272c.275,0,.555-.017.8-.031.185-.01.352-.02.506-.021s.306.009.485.019c.214.012.447.024.678.024a2.023,2.023,0,0,0,1.258-.289.816.816,0,0,0,.278-.594,6.168,6.168,0,0,0,.018-.972c-.006-.193-.012-.386-.009-.572l1.725,0c2.087.01,4.214.079,6.271.145,1.756.057,3.571.116,5.356.138l0,.064c-.036.625-.086,1.481.343,1.82a2.091,2.091,0,0,0,1.269.272c.276,0,.555-.017.8-.031.185-.01.352-.02.506-.021s.306.009.485.019c.214.012.447.024.678.024a2.024,2.024,0,0,0,1.258-.289.829.829,0,0,0,.278-.594,6.242,6.242,0,0,0,.019-.978c0-.115-.007-.229-.009-.342,1.355-.115,2.2-.456,2.6-1.043a2.452,2.452,0,0,0,.3-1.276l.006-.116c.05-.871.053-1.763.056-2.624,0-.436,0-.872.01-1.306q.031-1.877.073-3.756C78.065,253.157,78.144,249.377,78.085,245.663Zm-.918,15.807c-.006.334-.007.67-.007,1.006,0,.662,0,1.346-.043,2.014-.094,1.595-1.938,1.665-3.284,1.717l-.394.017c-.8.04-1.642.061-2.564.061-1.725,0-3.484-.072-5.186-.141-1.358-.056-2.762-.113-4.137-.133C61.16,266,60.766,266,60.373,266c-1.217,0-2.438.023-3.659.048s-2.446.047-3.665.047c-1.292,0-2.422-.027-3.454-.084-1.884-.1-1.927-1.988-1.96-3.5l-.011-.421c-.045-1.3-.072-2.4-.053-3.506.064-3.859.094-7.268.091-10.422,0-1.747,0-3.807.057-5.833.046-1.745.242-3.206,2.2-3.42a13.147,13.147,0,0,1,1.433-.061H51.7s.628,0,.764,0q1.3-.02,2.6-.046c2.244-.041,4.565-.084,6.846-.089,1.408.005,2.815.018,4.224.029,1.858.015,3.717.029,5.622.032,0,0,1.116-.007,1.346-.007a12.228,12.228,0,0,1,2.649.22c1.689.378,1.621,2.086,1.561,3.593-.015.361-.028.711-.019,1.031.11,3.712.044,7.486-.02,11.135Zm-4.928,6.889h-.02c-.117,0-.24,0-.367.009-.149,0-.3.01-.454.01a3.16,3.16,0,0,1-.712-.064c-.673-.156-.651-.693-.627-1.315v0q.435,0,.869,0c.559,0,1.117,0,1.676-.015.116,0,.811,0,.811,0,.252,0,.523,0,.8-.01v.01a2.03,2.03,0,0,1-.169,1.135c-.178.237-.664.265-1.014.265-.16,0-.318-.007-.463-.012C72.448,268.364,72.334,268.359,72.238,268.359Zm-18.977,0h-.02c-.118,0-.243,0-.371.009-.15.005-.305.011-.459.011a3.03,3.03,0,0,1-.7-.065c-.482-.116-.513-.185-.606-.691a3.389,3.389,0,0,1-.017-.774l.006-.115q2.073-.02,4.146-.025c0,.085,0,.177,0,.271a2.031,2.031,0,0,1-.17,1.136c-.178.237-.664.265-1.014.265-.16,0-.318-.007-.463-.012C53.471,268.364,53.357,268.359,53.26,268.359Z" transform="translate(-46.847 -237.977)" fill="#2e186a"/></svg>