<svg aria-hidden="true" style="position: absolute; width: 0; height: 0; overflow: hidden;" version="1.1" xmlns="http://www.w3.org/2000/svg" xmlns:xlink="http://www.w3.org/1999/xlink">
<defs>
<symbol id="icon-12" viewBox="0 0 32 32">
<path fill="rgba(46, 24, 106, 0.62)" style="fill: var(--color1, rgba(46, 24, 106, 0.62))" d="M31.566 27.665l-6.236-6.229c-0.271-0.27-0.645-0.438-1.059-0.438-0.001 0-0.003 0-0.004 0h-1.015c1.717-2.182 2.753-4.97 2.753-7.999 0-7.178-5.819-12.998-12.998-12.998s-12.998 5.819-12.998 12.998c0 7.178 5.819 12.998 12.998 12.998 3.027 0 5.813-1.035 8.022-2.77l-0.028 0.021v1.019c0 0.001 0 0.002 0 0.004 0 0.413 0.167 0.787 0.438 1.059l6.232 6.231c0.271 0.272 0.645 0.44 1.059 0.44s0.789-0.168 1.059-0.44l1.768-1.768c0.273-0.273 0.441-0.649 0.441-1.065 0-0.413-0.166-0.787-0.436-1.059l0 0zM13.006 21.996c-4.969-0.001-8.997-4.029-8.997-8.999s4.029-8.999 8.999-8.999 8.999 4.029 8.999 8.999v0c0 0.002 0 0.004 0 0.006 0 4.967-4.027 8.994-8.994 8.994-0.004 0-0.007 0-0.011 0h0.001zM14.701 12.462l-2.813-0.844c-0.322-0.114-0.549-0.417-0.549-0.772 0-0.009 0-0.017 0-0.025l-0 0.001c-0.001-0.012-0.001-0.026-0.001-0.040 0-0.417 0.325-0.759 0.736-0.784l0.002-0h1.757c0.297 0 0.574 0.087 0.807 0.237l-0.006-0.004c0.081 0.055 0.18 0.088 0.287 0.088 0.133 0 0.255-0.051 0.346-0.134l-0 0 0.734-0.7c0.097-0.091 0.157-0.221 0.157-0.364 0-0.16-0.075-0.302-0.192-0.394l-0.001-0.001c-0.542-0.41-1.218-0.67-1.952-0.709l-0.009-0v-1.013c0-0.276-0.224-0.5-0.5-0.5h-1.003c-0 0-0.001 0-0.001 0-0.276 0-0.5 0.224-0.5 0.5 0 0 0 0 0 0v0 1.004c-1.484 0.066-2.663 1.286-2.663 2.78 0 0.013 0 0.026 0 0.038l-0-0.002c-0 0.006-0 0.014-0 0.022 0 1.255 0.818 2.319 1.949 2.689l0.020 0.006 2.813 0.844c0.322 0.114 0.549 0.417 0.549 0.772 0 0.009-0 0.017-0 0.025l0-0.001c0.001 0.012 0.001 0.026 0.001 0.040 0 0.417-0.325 0.759-0.736 0.784l-0.002 0h-1.751c-0.297-0-0.574-0.087-0.807-0.237l0.006 0.004c-0.081-0.055-0.18-0.088-0.287-0.088-0.133 0-0.255 0.051-0.346 0.134l0-0-0.734 0.7c-0.097 0.091-0.157 0.221-0.157 0.364 0 0.16 0.075 0.302 0.192 0.394l0.001 0.001c0.542 0.41 1.218 0.67 1.952 0.709l0.009 0v1.018c0 0.276 0.224 0.5 0.5 0.5h1c0.275-0.001 0.497-0.224 0.497-0.5 0-0.001 0-0.002 0-0.004v0-1.007c1.484-0.066 2.663-1.286 2.663-2.78 0-0.013-0-0.026-0-0.040l0 0.002c0-0.005 0-0.010 0-0.015 0-1.257-0.82-2.322-1.954-2.691l-0.020-0.006z"></path>
</symbol>
<symbol id="icon-Group" viewBox="0 0 32 32">
<path fill="#2e186a" style="fill: var(--color2, #2e186a)" d="M28.627 6.481l0.745 0.745 2.109-2.109c0.099-0.099 0.154-0.233 0.154-0.373s-0.055-0.274-0.154-0.373l-2.109-2.109-0.745 0.745 1.209 1.209h-6.109v1.055h6.109l-1.209 1.209z"></path>
<path fill="#2e186a" style="fill: var(--color2, #2e186a)" d="M25.463 11.445l0.745-0.745-1.209-1.209h6.109v-1.055h-6.109l1.209-1.209-0.745-0.745-2.109 2.109c-0.099 0.099-0.154 0.233-0.154 0.373s0.055 0.274 0.154 0.373l2.109 2.108z"></path>
<path fill="#2e186a" style="fill: var(--color2, #2e186a)" d="M31.020 15.38c-0.374-0.374-0.876-0.594-1.405-0.614s-1.046 0.161-1.447 0.506c-0.184-0.315-0.448-0.575-0.764-0.757s-0.675-0.277-1.039-0.277c-0.236-0.003-0.47 0.038-0.691 0.121-0.244 0.086-0.47 0.219-0.664 0.39-0.185-0.316-0.449-0.578-0.767-0.76s-0.676-0.28-1.042-0.281c-0.371 0.001-0.735 0.102-1.055 0.291v-8.727c0-0.559-0.222-1.096-0.618-1.491s-0.932-0.618-1.491-0.618c-0.371 0.001-0.735 0.102-1.055 0.291v-1.873c-0.001-0.419-0.168-0.821-0.465-1.117s-0.698-0.463-1.117-0.465h-12.655c-0.419 0.001-0.821 0.168-1.117 0.465s-0.463 0.698-0.465 1.117v10.545h-0.527c-0.699 0-1.37 0.278-1.864 0.772s-0.772 1.165-0.772 1.864v2.156l1.055 11.055v3.137c0 0.14 0.056 0.274 0.154 0.373s0.233 0.154 0.373 0.154h11.6c0.14 0 0.274-0.056 0.373-0.154s0.154-0.233 0.154-0.373v-2.998l1.964-2.805h1.134l0.596 1.673v4.129c0 0.14 0.056 0.274 0.154 0.373s0.233 0.154 0.373 0.154h10.545c0.14 0 0.274-0.056 0.373-0.154s0.154-0.233 0.154-0.373v-4.129l2.416-6.782c0.143-0.397 0.217-0.815 0.218-1.236v-2.091c0-0.277-0.054-0.552-0.16-0.808s-0.261-0.489-0.457-0.685zM12.655 30.582h-10.545v-2.109h10.545v2.109zM12.908 27.418h-10.846l-1.007-10.545v-2.109c0.001-0.419 0.168-0.821 0.465-1.117s0.698-0.463 1.117-0.465h3.691c0.42 0 0.822 0.167 1.119 0.463s0.463 0.699 0.463 1.119-0.167 0.822-0.463 1.119c-0.297 0.297-0.699 0.463-1.119 0.463h-2.636c-0.069 0-0.138 0.014-0.202 0.040s-0.122 0.065-0.171 0.114c-0.049 0.049-0.088 0.107-0.114 0.171s-0.040 0.133-0.040 0.202v6.855c0.001 0.419 0.168 0.821 0.465 1.117s0.698 0.463 1.117 0.465h9.639l-1.476 2.109zM4.745 24.255c-0.14 0-0.274-0.056-0.373-0.154s-0.154-0.233-0.154-0.373v-1.582h9.491v-1.055h-9.491v-3.691h2.109c0.699 0 1.37-0.278 1.864-0.772s0.772-1.165 0.772-1.864-0.278-1.37-0.772-1.864c-0.494-0.494-1.165-0.772-1.864-0.772h-2.109v-10.545c0-0.14 0.056-0.274 0.154-0.373s0.233-0.154 0.373-0.154h12.655c0.14 0 0.274 0.056 0.373 0.154s0.154 0.233 0.154 0.373v10.841c-0.32-0.192-0.686-0.294-1.060-0.295-0.558 0.001-1.092 0.223-1.486 0.618s-0.616 0.929-0.618 1.486v4.727c0.002 0.424 0.075 0.845 0.218 1.244l1.444 4.049-11.681 0.002zM20.036 30.582h-1.582v-3.164h1.582v3.164zM22.673 30.582h-1.582v-3.164h1.582v3.164zM25.309 30.582h-1.582v-3.164h1.582v3.164zM27.945 30.582h-1.582v-3.164h1.582v3.164zM30.582 18.961c-0.001 0.302-0.052 0.601-0.153 0.886l-2.327 6.517h-9.805l-2.326-6.509c-0.1-0.286-0.152-0.587-0.153-0.891v-4.727c0.001-0.28 0.112-0.548 0.311-0.745s0.467-0.308 0.746-0.307c0.28 0.001 0.548 0.112 0.745 0.311s0.308 0.467 0.307 0.746v4.218h1.055v-13.187c0-0.28 0.111-0.548 0.309-0.746s0.466-0.309 0.746-0.309c0.28 0 0.548 0.111 0.746 0.309s0.309 0.466 0.309 0.746v13.182h1.055v-2.636c0-0.28 0.111-0.548 0.309-0.746s0.466-0.309 0.746-0.309c0.28 0 0.548 0.111 0.746 0.309s0.309 0.466 0.309 0.746v2.636h1.055v-2.109c0-0.138 0.028-0.275 0.081-0.403s0.132-0.243 0.23-0.34c0.111-0.118 0.251-0.205 0.406-0.253 0.108-0.039 0.222-0.059 0.337-0.058 0.279 0.001 0.547 0.112 0.745 0.31s0.309 0.465 0.31 0.745v2.636h1.055v-2.109c0-0.28 0.111-0.548 0.309-0.746s0.466-0.309 0.746-0.309c0.28 0 0.548 0.111 0.746 0.309s0.309 0.466 0.309 0.746v2.088z"></path>
<path fill="#2e186a" style="fill: var(--color2, #2e186a)" d="M11.073 2.109c-1.043 0-2.062 0.309-2.929 0.889s-1.543 1.403-1.942 2.366c-0.399 0.963-0.503 2.024-0.3 3.046s0.706 1.962 1.443 2.7c0.737 0.737 1.677 1.24 2.7 1.443s2.083 0.099 3.046-0.3c0.963-0.399 1.787-1.075 2.366-1.942s0.889-1.887 0.889-2.929c0-1.398-0.556-2.74-1.544-3.728s-2.33-1.544-3.728-1.544v0zM11.073 11.6c-0.834 0-1.65-0.247-2.344-0.711s-1.234-1.122-1.554-1.893-0.403-1.619-0.24-2.437c0.163-0.818 0.564-1.57 1.154-2.16s1.342-0.992 2.16-1.154c0.818-0.163 1.666-0.079 2.437 0.24s1.43 0.86 1.893 1.554 0.711 1.509 0.711 2.343c0 0.554-0.109 1.102-0.321 1.614s-0.523 0.977-0.914 1.368c-0.392 0.392-0.857 0.702-1.369 0.914s-1.060 0.321-1.614 0.321v0z"></path>
<path fill="#2e186a" style="fill: var(--color2, #2e186a)" d="M12.655 8.436c-0.002 0.326-0.104 0.644-0.292 0.91s-0.455 0.468-0.762 0.577v0.622h-1.055v-0.622c-0.307-0.109-0.573-0.311-0.762-0.577s-0.291-0.584-0.292-0.91h1.055c0 0.104 0.031 0.206 0.089 0.293s0.14 0.154 0.237 0.194 0.202 0.050 0.305 0.030c0.102-0.020 0.196-0.071 0.27-0.144s0.124-0.168 0.144-0.27c0.020-0.102 0.010-0.208-0.030-0.305s-0.107-0.179-0.194-0.237c-0.087-0.058-0.189-0.089-0.293-0.089-0.371-0.003-0.729-0.136-1.011-0.377s-0.472-0.572-0.534-0.937c-0.063-0.365 0.005-0.741 0.191-1.062s0.479-0.566 0.828-0.692v-0.623h1.055v0.623c0.307 0.109 0.573 0.311 0.762 0.577s0.291 0.584 0.293 0.91h-1.055c0-0.104-0.031-0.206-0.089-0.293s-0.14-0.154-0.237-0.194-0.202-0.050-0.305-0.030c-0.102 0.020-0.196 0.071-0.27 0.144s-0.124 0.168-0.144 0.27c-0.020 0.102-0.010 0.208 0.030 0.305s0.107 0.179 0.194 0.237c0.087 0.058 0.189 0.089 0.293 0.089 0.419 0.001 0.821 0.168 1.117 0.465s0.463 0.698 0.465 1.117v0z"></path>
</symbol>
<symbol id="icon-hello" viewBox="0 0 30 32">
<path fill="#2e186a" style="fill: var(--color2, #2e186a)" d="M29.326 18.338h-0.468v-4.22c-0-0.317-0.077-0.63-0.223-0.912s-0.358-0.524-0.617-0.707v-0.574c-0-0.401-0.16-0.785-0.443-1.068s-0.668-0.443-1.068-0.443h-0.35l1.338-1.963c0.215-0.317 0.296-0.706 0.225-1.082s-0.289-0.709-0.605-0.925l-9.083-6.192c-0.317-0.216-0.706-0.297-1.083-0.226s-0.709 0.289-0.925 0.606l-7.839 11.504h-2.182l0.526-5.325c0.003-0.029 0.013-0.057 0.031-0.080s0.041-0.042 0.068-0.052c0.681-0.259 1.26-0.73 1.653-1.344 0.016-0.024 0.038-0.044 0.064-0.056s0.055-0.017 0.084-0.014l3.422 0.338c0.115 0.007 0.229-0.031 0.317-0.106s0.144-0.181 0.155-0.296c0.011-0.115-0.022-0.23-0.094-0.321s-0.176-0.15-0.29-0.166l-3.422-0.338c-0.193-0.020-0.388 0.014-0.562 0.099s-0.322 0.216-0.426 0.38c-0.289 0.45-0.716 0.796-1.217 0.985-0.183 0.069-0.344 0.188-0.463 0.343s-0.192 0.341-0.21 0.536l-0.535 5.415h-0.569l0.834-8.425c0.015-0.145 0.088-0.279 0.201-0.371s0.258-0.136 0.404-0.121l6.914 0.683c0.059 0.008 0.12 0.004 0.178-0.012s0.112-0.043 0.159-0.080c0.047-0.037 0.086-0.083 0.115-0.136s0.047-0.111 0.053-0.17-0-0.12-0.018-0.177c-0.018-0.057-0.047-0.11-0.086-0.156s-0.087-0.083-0.14-0.11c-0.054-0.027-0.112-0.043-0.172-0.046l-6.911-0.686c-0.189-0.019-0.38-0-0.562 0.054s-0.351 0.145-0.498 0.265c-0.147 0.12-0.269 0.268-0.359 0.436s-0.146 0.351-0.165 0.54l-0.671 6.792h-1.142c-0.401 0-0.785 0.16-1.068 0.443s-0.443 0.668-0.443 1.068v0.392c-0.345 0.159-0.638 0.413-0.843 0.733s-0.314 0.692-0.314 1.072v15.204c0 0.526 0.209 1.030 0.581 1.402s0.876 0.581 1.402 0.581h24.892c0.526-0 1.030-0.21 1.402-0.581s0.581-0.876 0.581-1.402v-4.218h0.468c0.266-0 0.521-0.106 0.709-0.294s0.294-0.443 0.294-0.709v-4.759c0-0.132-0.025-0.263-0.075-0.385s-0.124-0.233-0.217-0.327c-0.093-0.094-0.204-0.168-0.326-0.219s-0.253-0.077-0.385-0.077zM26.505 11.305c0.164 0 0.322 0.066 0.438 0.182s0.181 0.274 0.182 0.438v0.227c-0.082-0.011-0.164-0.016-0.246-0.016h-1.896l0.566-0.83h0.957zM16.761 1.134c0.041-0.060 0.093-0.112 0.154-0.151s0.129-0.067 0.2-0.081c0.034-0.007 0.069-0.010 0.104-0.010 0.111 0 0.219 0.033 0.31 0.096l9.082 6.191c0.121 0.083 0.204 0.21 0.232 0.354s-0.004 0.293-0.086 0.414l-2.855 4.189h-0.688l1.4-2.051c0.111-0.161 0.175-0.351 0.183-0.546s-0.038-0.39-0.135-0.56c-0.263-0.468-0.368-1.009-0.299-1.542 0.025-0.192-0.004-0.388-0.083-0.565s-0.207-0.328-0.368-0.436l-4.704-3.209c-0.16-0.11-0.347-0.173-0.541-0.183s-0.386 0.035-0.556 0.129c-0.47 0.258-1.011 0.358-1.542 0.285-0.194-0.026-0.391 0.002-0.57 0.082s-0.332 0.207-0.442 0.368l-5.607 8.229h-0.684l7.496-11.001zM16.958 8.71c-0.931 0.001-1.827 0.355-2.508 0.991s-1.095 1.506-1.16 2.435h-2.261l5.265-7.726c0.014-0.021 0.034-0.039 0.057-0.051s0.048-0.019 0.074-0.019h0.020c0.721 0.099 1.454-0.036 2.092-0.386 0.026-0.014 0.054-0.020 0.083-0.018s0.057 0.011 0.081 0.028l4.708 3.209c0.024 0.016 0.043 0.038 0.055 0.065s0.017 0.055 0.014 0.084c-0.092 0.724 0.052 1.458 0.41 2.093 0.014 0.026 0.020 0.054 0.018 0.083s-0.011 0.057-0.027 0.081l-1.742 2.557h-1.512c-0.065-0.929-0.479-1.799-1.16-2.434s-1.577-0.99-2.508-0.991v-0.001zM19.731 12.135h-5.543c0.062-0.693 0.381-1.337 0.894-1.806s1.183-0.73 1.879-0.73c0.695 0 1.366 0.26 1.879 0.73s0.832 1.114 0.894 1.806h-0.003zM2.049 11.925c0-0.164 0.066-0.322 0.182-0.438s0.274-0.181 0.438-0.182h1.054l-0.082 0.83h-1.592v-0.211zM0.896 14.119c0-0.289 0.115-0.566 0.32-0.771s0.482-0.319 0.771-0.32h24.889c0.289 0 0.566 0.115 0.771 0.32s0.319 0.482 0.32 0.771v1.238h-27.070v-1.238zM27.973 29.326c-0 0.289-0.115 0.566-0.32 0.771s-0.482 0.319-0.771 0.32h-24.899c-0.288-0.001-0.565-0.117-0.768-0.321s-0.318-0.481-0.319-0.769v-1.238h2.406c0.060 0.003 0.12-0.007 0.177-0.028s0.108-0.054 0.151-0.095c0.043-0.042 0.078-0.092 0.102-0.147s0.036-0.115 0.036-0.175c0-0.060-0.012-0.12-0.036-0.175s-0.058-0.105-0.102-0.147c-0.043-0.042-0.095-0.074-0.151-0.095s-0.116-0.031-0.177-0.028h-2.406v-10.95h27.077v2.092h-4.242c-0.635 0.001-1.257 0.18-1.795 0.517s-0.971 0.819-1.248 1.39l-0.006 0.012-0.013 0.030c-0.066 0.14-0.122 0.284-0.168 0.432-0.157 0.506-0.194 1.042-0.106 1.564s0.296 1.017 0.61 1.444c0.314 0.427 0.723 0.775 1.195 1.014s0.994 0.366 1.524 0.367h4.242v2.090h-21.811c-0.060-0.003-0.12 0.007-0.177 0.028s-0.108 0.054-0.151 0.095c-0.043 0.042-0.078 0.092-0.102 0.147s-0.036 0.115-0.036 0.175c0 0.060 0.012 0.12 0.036 0.175s0.058 0.105 0.102 0.147c0.043 0.042 0.095 0.074 0.151 0.095s0.116 0.031 0.177 0.028h21.811l0.007 1.236zM29.444 24.103c0 0.029-0.012 0.058-0.032 0.078s-0.049 0.032-0.078 0.032h-5.61c-0.449-0-0.889-0.122-1.274-0.351s-0.702-0.559-0.916-0.953c-0.019-0.036-0.038-0.071-0.055-0.108-0.035-0.073-0.066-0.147-0.094-0.223-0.202-0.553-0.202-1.159 0-1.712 0.028-0.076 0.059-0.15 0.094-0.223 0.017-0.036 0.036-0.072 0.055-0.108 0.214-0.394 0.53-0.724 0.916-0.953s0.826-0.351 1.274-0.351h5.602c0.029 0 0.058 0.012 0.078 0.032s0.032 0.049 0.032 0.078l0.007 4.761z"></path>
<path fill="#000" style="fill: var(--color3, #000)" d="M23.828 19.912c-0.358 0-0.708 0.106-1.006 0.305s-0.53 0.482-0.667 0.812-0.173 0.695-0.103 1.046c0.070 0.351 0.242 0.674 0.495 0.927s0.576 0.426 0.927 0.495c0.351 0.070 0.715 0.034 1.046-0.103s0.613-0.369 0.812-0.667c0.199-0.298 0.305-0.648 0.305-1.006-0-0.48-0.191-0.94-0.531-1.279s-0.799-0.53-1.279-0.531zM23.828 22.64c-0.182 0-0.359-0.054-0.51-0.155s-0.269-0.244-0.338-0.412c-0.069-0.168-0.088-0.352-0.052-0.531s0.123-0.342 0.252-0.47c0.128-0.128 0.292-0.216 0.47-0.251s0.363-0.017 0.531 0.053c0.168 0.070 0.311 0.187 0.412 0.339s0.154 0.329 0.154 0.51c-0 0.243-0.097 0.477-0.269 0.649s-0.405 0.269-0.649 0.269z"></path>
</symbol>
<symbol id="icon-icon2" viewBox="0 0 38 32">
<path fill="#2e186a" style="fill: var(--color2, #2e186a)" d="M29.868 19.986l-1.825-1.094c-0.556-0.333-1.193-0.509-1.841-0.509h-2.747c-0.562-0.001-1.122 0.071-1.666 0.215l-8.274 2.222c-0.446 0.123-0.856 0.351-1.195 0.666s-0.598 0.706-0.754 1.141l-7.28-3.939c-0.59-0.336-1.281-0.45-1.948-0.322-0.252 0.044-0.496 0.125-0.725 0.238-0.518 0.248-0.947 0.648-1.231 1.147-0.248 0.434-0.379 0.926-0.379 1.426-0.004 0.501 0.124 0.995 0.372 1.43s0.607 0.798 1.040 1.050l13.049 7.81c0.567 0.351 1.22 0.537 1.887 0.537h10.1c0.451 0 0.898-0.085 1.317-0.251l2.1-0.83v1.081h7.167v-14.337h-7.167v2.319zM27.239 30.417c-0.251 0.099-0.518 0.15-0.788 0.15h-10.1c-0.404-0-0.8-0.114-1.142-0.328l-13.066-7.816c-0.218-0.126-0.399-0.308-0.524-0.526s-0.19-0.466-0.188-0.718c0.001-0.252 0.067-0.499 0.192-0.717 0.143-0.247 0.358-0.445 0.616-0.568 0.113-0.055 0.234-0.094 0.358-0.116 0.091-0.017 0.183-0.026 0.275-0.026 0.246-0 0.487 0.064 0.7 0.186l7.894 4.266c0.009 0.044 0.009 0.087 0.021 0.131 0.165 0.609 0.526 1.146 1.027 1.529s1.114 0.591 1.744 0.592c0.399-0.037 0.794-0.107 1.181-0.211l7.446-1.993-0.37-1.385-7.422 1.984c-0.327 0.075-0.749 0.161-0.836 0.169-0.315 0-0.621-0.103-0.871-0.294s-0.431-0.459-0.514-0.762c-0.023-0.087-0.037-0.175-0.042-0.265 0 0-0.006-0.174 0-0.234 0.027-0.293 0.142-0.57 0.33-0.796s0.441-0.389 0.724-0.468l8.273-2.213c0.422-0.113 0.858-0.17 1.295-0.17h2.747c0.387 0.001 0.768 0.106 1.1 0.305l2.562 1.534v7.721l-2.622 1.039zM31.302 19.101h4.3v11.466h-4.3v-11.466z"></path>
<path fill="none" stroke="#2e186a" style="stroke: var(--color2, #2e186a)" stroke-linejoin="miter" stroke-linecap="butt" stroke-miterlimit="4" stroke-width="1.5" d="M18.535 14.25c3.728 0 6.75-3.022 6.75-6.75s-3.022-6.75-6.75-6.75c-3.728 0-6.75 3.022-6.75 6.75s3.022 6.75 6.75 6.75z"></path>
<path fill="#2e186a" style="fill: var(--color2, #2e186a)" d="M18.086 4.718v0.548c-0.308 0.111-0.567 0.326-0.731 0.609s-0.225 0.614-0.169 0.936 0.223 0.615 0.472 0.826c0.25 0.211 0.566 0.328 0.892 0.329 0.119 0.006 0.232 0.057 0.314 0.143s0.128 0.201 0.128 0.32c0 0.119-0.046 0.234-0.128 0.32s-0.195 0.138-0.314 0.143c-0.119-0.012-0.235-0.050-0.338-0.11s-0.193-0.143-0.262-0.241c-0.039-0.047-0.088-0.085-0.142-0.113s-0.113-0.045-0.174-0.050c-0.061-0.005-0.122 0.002-0.18 0.020s-0.112 0.048-0.159 0.088-0.085 0.088-0.113 0.142c-0.028 0.054-0.045 0.113-0.050 0.174s0.002 0.122 0.020 0.18c0.019 0.058 0.048 0.112 0.088 0.159 0.222 0.274 0.516 0.482 0.848 0.6v0.541c-0.003 0.063 0.007 0.125 0.029 0.184s0.056 0.112 0.099 0.158 0.095 0.082 0.153 0.106c0.058 0.025 0.12 0.037 0.183 0.037s0.125-0.013 0.183-0.037c0.058-0.025 0.11-0.061 0.153-0.106s0.077-0.099 0.099-0.158c0.022-0.059 0.032-0.121 0.029-0.184v-0.543c0.308-0.111 0.567-0.326 0.731-0.608s0.224-0.614 0.169-0.936c-0.055-0.322-0.223-0.615-0.472-0.826s-0.565-0.328-0.892-0.329c-0.119-0.006-0.232-0.057-0.314-0.143s-0.128-0.201-0.128-0.32c0-0.119 0.046-0.234 0.128-0.32s0.195-0.138 0.314-0.143c0.192 0.013 0.371 0.1 0.5 0.242 0.090 0.079 0.206 0.121 0.326 0.117s0.233-0.055 0.316-0.141c0.083-0.086 0.13-0.201 0.131-0.32s-0.045-0.235-0.127-0.322c-0.192-0.192-0.426-0.338-0.683-0.427v-0.54c0.003-0.063-0.007-0.125-0.029-0.184s-0.056-0.112-0.099-0.158c-0.043-0.045-0.095-0.082-0.153-0.106s-0.12-0.037-0.183-0.037c-0.063 0-0.125 0.013-0.183 0.037s-0.11 0.061-0.153 0.106c-0.043 0.045-0.077 0.099-0.099 0.158s-0.032 0.121-0.029 0.184v-0.004z"></path>
</symbol>
<symbol id="icon-icon3" viewBox="0 0 32 32">
<path fill="#2e186a" style="fill: var(--color2, #2e186a)" d="M26.666 23.059l-1.358-0.814c-0.414-0.248-0.888-0.378-1.37-0.379h-2.044c-0.418-0.001-0.835 0.053-1.24 0.16l-6.157 1.654c-0.332 0.092-0.637 0.261-0.889 0.495s-0.445 0.525-0.561 0.849l-5.418-2.931c-0.439-0.25-0.953-0.335-1.45-0.24-0.187 0.033-0.369 0.093-0.54 0.177-0.385 0.185-0.705 0.482-0.916 0.854-0.185 0.323-0.282 0.689-0.282 1.061-0.003 0.373 0.092 0.74 0.277 1.064s0.452 0.594 0.774 0.781l9.711 5.812c0.422 0.261 0.908 0.4 1.404 0.4h7.516c0.336 0 0.668-0.063 0.98-0.187l1.563-0.618v0.804h5.334v-10.669h-5.334v1.726zM24.71 30.822c-0.187 0.074-0.386 0.111-0.586 0.112h-7.516c-0.301-0-0.595-0.085-0.85-0.244l-9.724-5.817c-0.162-0.094-0.297-0.229-0.39-0.392s-0.141-0.347-0.14-0.534c0.001-0.187 0.050-0.371 0.143-0.534 0.106-0.184 0.266-0.332 0.458-0.423 0.084-0.041 0.174-0.070 0.266-0.086 0.067-0.013 0.136-0.019 0.205-0.019 0.183-0 0.362 0.048 0.521 0.138l5.875 3.175c0.007 0.033 0.007 0.065 0.016 0.098 0.123 0.453 0.391 0.853 0.764 1.138s0.829 0.44 1.298 0.44c0.297-0.027 0.591-0.080 0.879-0.157l5.541-1.483-0.275-1.031-5.523 1.476c-0.243 0.056-0.557 0.12-0.622 0.126-0.234 0-0.462-0.076-0.648-0.218s-0.321-0.341-0.382-0.567c-0.017-0.065-0.028-0.131-0.031-0.197 0 0-0.004-0.13 0-0.174 0.020-0.218 0.106-0.424 0.246-0.593s0.328-0.289 0.539-0.348l6.157-1.647c0.314-0.084 0.638-0.127 0.964-0.127h2.044c0.288 0 0.571 0.079 0.819 0.227l1.907 1.142v5.746l-1.951 0.773zM27.734 22.401h3.2v8.533h-3.2v-8.533z"></path>
<path fill="#2e186a" style="fill: var(--color2, #2e186a)" d="M21.997 4.266l-2.861-2.861c-0.445-0.447-0.974-0.802-1.556-1.043s-1.207-0.365-1.838-0.363h-6.705c-0.413 0.001-0.821 0.097-1.191 0.281l-1.195 0.595c-0.24 0.121-0.506 0.178-0.774 0.167l-0.542-0.019v-1.025h-5.335v11.733h5.334v-1.6h0.906l0.323 0.214c0.903 0.6 1.954 0.938 3.037 0.978v6.809h22.4v-13.867h-10.003zM4.266 10.666h-3.2v-9.6h3.2v9.6zM7.153 9.459l-0.595-0.392h-1.224v-6.971l0.503 0.018c0.446 0.016 0.89-0.080 1.29-0.279l1.191-0.595c0.223-0.111 0.468-0.169 0.717-0.169h6.705c0.491-0.002 0.977 0.093 1.43 0.28s0.866 0.462 1.212 0.809l2.107 2.107h-4.4l-1.295-1.294-0.754 0.755 3.768 3.768c0.196 0.201 0.305 0.471 0.304 0.752s-0.113 0.55-0.312 0.749-0.467 0.312-0.748 0.315c-0.281 0.003-0.552-0.105-0.753-0.301l-3.147-3.146-0.372 0.32c-0.5 0.424-1.132 0.662-1.788 0.671s-1.295-0.209-1.807-0.619l-0.309-0.251-0.67 0.828 0.313 0.253c0.327 0.261 0.694 0.468 1.086 0.612v2.577c-0.874-0.038-1.721-0.313-2.451-0.797zM14.74 8.959l0.804 0.805c0.402 0.395 0.943 0.617 1.507 0.617s1.105-0.221 1.507-0.617c-0.377 0.584-0.514 1.29-0.383 1.973s0.52 1.288 1.086 1.691c0.566 0.403 1.266 0.572 1.953 0.472s1.31-0.461 1.738-1.008c0.428-0.547 0.629-1.238 0.561-1.93s-0.401-1.33-0.928-1.783-1.208-0.685-1.902-0.648c-0.694 0.037-1.347 0.34-1.823 0.845 0.18-0.282 0.289-0.603 0.32-0.936s-0.019-0.668-0.145-0.978h7.144c0.111 0.655 0.423 1.259 0.892 1.73s1.073 0.783 1.728 0.896v2.222c-0.655 0.112-1.259 0.424-1.729 0.894s-0.782 1.074-0.894 1.728h-10.755c-0.112-0.655-0.424-1.259-0.894-1.728s-1.074-0.782-1.729-0.894v-2.222c0.762-0.128 1.452-0.53 1.94-1.129v-0.001zM19.2 11.2c0-0.316 0.094-0.626 0.27-0.889s0.426-0.468 0.718-0.589c0.292-0.121 0.614-0.153 0.924-0.091s0.596 0.214 0.819 0.438c0.224 0.224 0.376 0.509 0.438 0.819s0.030 0.632-0.091 0.924c-0.121 0.292-0.326 0.542-0.589 0.718s-0.573 0.27-0.889 0.27c-0.424 0-0.831-0.169-1.131-0.469s-0.469-0.707-0.469-1.131zM30.934 17.066h-20.267v-9.163c0.845 0.064 1.688-0.15 2.4-0.61l0.91 0.91c-0.197 0.268-0.455 0.487-0.753 0.637s-0.626 0.229-0.959 0.23h-0.534v4.266h0.534c0.566 0 1.109 0.225 1.509 0.625s0.625 0.943 0.625 1.509v0.53h12.8v-0.534c0-0.566 0.225-1.109 0.625-1.509s0.943-0.625 1.509-0.625h0.534v-4.266h-0.534c-0.566-0-1.108-0.225-1.508-0.625s-0.624-0.942-0.624-1.508v-0.533h-8.979l-1.066-1.067h13.779v11.734z"></path>
</symbol>
<symbol id="icon-icon5" viewBox="0 0 28 32">
<path  d="M10.111 15.794h-6.209c-0.119 0.005-0.231 0.056-0.314 0.142s-0.128 0.201-0.128 0.32 0.046 0.234 0.128 0.32c0.082 0.086 0.195 0.137 0.314 0.142h6.21c0.119-0.005 0.231-0.056 0.314-0.142s0.128-0.2 0.128-0.32-0.046-0.234-0.128-0.32c-0.082-0.086-0.195-0.137-0.314-0.142h-0.001z"></path>
<path  d="M10.111 19.822h-6.209c-0.062-0.003-0.125 0.007-0.183 0.029s-0.112 0.056-0.157 0.099c-0.045 0.043-0.081 0.095-0.105 0.152s-0.037 0.119-0.037 0.182 0.013 0.124 0.037 0.181c0.025 0.057 0.060 0.109 0.105 0.152s0.098 0.077 0.157 0.099 0.121 0.032 0.183 0.029h6.21c0.062 0.003 0.125-0.007 0.183-0.029s0.112-0.056 0.157-0.099c0.045-0.043 0.081-0.095 0.105-0.152s0.037-0.119 0.037-0.181-0.013-0.124-0.037-0.182c-0.025-0.057-0.060-0.109-0.105-0.152s-0.098-0.077-0.157-0.099-0.121-0.032-0.183-0.029h-0.001z"></path>
<path  d="M10.111 23.851h-6.209c-0.062-0.003-0.125 0.007-0.183 0.029s-0.112 0.056-0.157 0.099c-0.045 0.043-0.081 0.095-0.105 0.152s-0.037 0.119-0.037 0.182 0.013 0.124 0.037 0.181c0.025 0.057 0.060 0.109 0.105 0.152s0.098 0.077 0.157 0.099 0.121 0.032 0.183 0.029h6.21c0.062 0.003 0.125-0.007 0.183-0.029s0.112-0.056 0.157-0.099c0.045-0.043 0.081-0.095 0.105-0.152s0.037-0.119 0.037-0.181-0.013-0.124-0.037-0.182c-0.025-0.057-0.060-0.109-0.105-0.152s-0.098-0.077-0.157-0.099-0.121-0.032-0.183-0.029h-0.001z"></path>
<path  d="M15.292 19.246h0.978c0.062 0.003 0.125-0.007 0.183-0.029s0.112-0.056 0.157-0.099c0.045-0.043 0.081-0.095 0.105-0.152s0.037-0.119 0.037-0.181-0.013-0.124-0.037-0.182c-0.025-0.057-0.060-0.109-0.105-0.152s-0.099-0.077-0.157-0.099-0.121-0.032-0.183-0.029h-0.978c-0.119 0.005-0.231 0.056-0.314 0.142s-0.128 0.2-0.128 0.32 0.046 0.234 0.128 0.32c0.082 0.086 0.195 0.137 0.314 0.142v0z"></path>
<path  d="M19.25 18.323h-0.978c-0.119 0.005-0.231 0.056-0.314 0.142s-0.128 0.201-0.128 0.32c0 0.119 0.046 0.234 0.128 0.32s0.195 0.137 0.314 0.142h0.978c0.119-0.005 0.231-0.056 0.314-0.142s0.128-0.201 0.128-0.32c0-0.119-0.046-0.234-0.128-0.32s-0.195-0.137-0.314-0.142v0z"></path>
<path  d="M22.228 18.323h-0.978c-0.119 0.005-0.231 0.056-0.314 0.142s-0.128 0.2-0.128 0.32 0.046 0.234 0.128 0.32c0.082 0.086 0.195 0.137 0.314 0.142h0.978c0.062 0.003 0.125-0.007 0.183-0.029s0.112-0.056 0.157-0.099c0.045-0.043 0.081-0.095 0.105-0.152s0.037-0.119 0.037-0.181-0.013-0.124-0.037-0.182c-0.025-0.057-0.060-0.109-0.105-0.152s-0.098-0.077-0.157-0.099-0.121-0.032-0.183-0.029v0z"></path>
<path  d="M25.205 18.323h-0.978c-0.119 0.005-0.231 0.056-0.314 0.142s-0.128 0.2-0.128 0.32 0.046 0.234 0.128 0.32c0.082 0.086 0.195 0.137 0.314 0.142h0.978c0.062 0.003 0.125-0.007 0.183-0.029s0.112-0.056 0.157-0.099c0.045-0.043 0.081-0.095 0.105-0.152s0.037-0.119 0.037-0.181-0.013-0.124-0.037-0.182c-0.025-0.057-0.060-0.109-0.105-0.152s-0.098-0.077-0.157-0.099-0.121-0.032-0.183-0.029v0z"></path>
<path  d="M15.292 21.648h0.978c0.062 0.003 0.125-0.007 0.183-0.029s0.112-0.056 0.157-0.099c0.045-0.043 0.081-0.095 0.105-0.152s0.037-0.119 0.037-0.182-0.013-0.124-0.037-0.181c-0.025-0.057-0.060-0.109-0.105-0.152s-0.099-0.077-0.157-0.099-0.121-0.032-0.183-0.029h-0.978c-0.119 0.005-0.231 0.056-0.314 0.142s-0.128 0.2-0.128 0.32 0.046 0.234 0.128 0.32c0.082 0.086 0.195 0.137 0.314 0.142v0z"></path>
<path  d="M19.25 20.724h-0.978c-0.062-0.003-0.125 0.007-0.183 0.029s-0.112 0.056-0.157 0.099c-0.045 0.043-0.081 0.095-0.105 0.152s-0.037 0.119-0.037 0.181 0.013 0.124 0.037 0.182c0.025 0.057 0.060 0.109 0.105 0.152s0.098 0.077 0.157 0.099 0.121 0.032 0.183 0.029h0.978c0.119-0.005 0.231-0.056 0.314-0.142s0.128-0.201 0.128-0.32-0.046-0.233-0.128-0.32c-0.082-0.086-0.195-0.137-0.314-0.142v0z"></path>
<path  d="M22.228 20.724h-0.978c-0.062-0.003-0.125 0.007-0.183 0.029s-0.112 0.056-0.157 0.099c-0.045 0.043-0.081 0.095-0.105 0.152s-0.037 0.119-0.037 0.181 0.013 0.124 0.037 0.182c0.024 0.057 0.060 0.109 0.105 0.152s0.099 0.077 0.157 0.099 0.121 0.032 0.183 0.029h0.978c0.062 0.003 0.125-0.007 0.183-0.029s0.112-0.056 0.157-0.099c0.045-0.043 0.081-0.095 0.105-0.152s0.037-0.119 0.037-0.182-0.013-0.124-0.037-0.181c-0.025-0.057-0.060-0.109-0.105-0.152s-0.098-0.077-0.157-0.099c-0.058-0.022-0.121-0.032-0.183-0.029v0z"></path>
<path  d="M25.205 20.724h-0.978c-0.119 0.005-0.231 0.056-0.314 0.142s-0.128 0.2-0.128 0.32c0 0.119 0.046 0.234 0.128 0.32s0.195 0.137 0.314 0.142h0.978c0.062 0.003 0.125-0.007 0.183-0.029s0.112-0.056 0.157-0.099c0.045-0.043 0.081-0.095 0.105-0.152s0.037-0.119 0.037-0.182-0.013-0.124-0.037-0.181c-0.025-0.057-0.060-0.109-0.105-0.152s-0.098-0.077-0.157-0.099-0.121-0.032-0.183-0.029v0z"></path>
<path  d="M15.292 24.051h0.978c0.062 0.003 0.125-0.007 0.183-0.029s0.112-0.056 0.157-0.099c0.045-0.043 0.081-0.095 0.105-0.152s0.037-0.119 0.037-0.182-0.013-0.124-0.037-0.181c-0.025-0.057-0.060-0.109-0.105-0.152s-0.099-0.077-0.157-0.099-0.121-0.032-0.183-0.029h-0.978c-0.119 0.005-0.231 0.056-0.314 0.142s-0.128 0.201-0.128 0.32c0 0.119 0.046 0.234 0.128 0.32s0.195 0.137 0.314 0.142v0z"></path>
<path  d="M19.25 23.127h-0.978c-0.062-0.003-0.125 0.007-0.183 0.029s-0.112 0.056-0.157 0.099c-0.045 0.043-0.081 0.095-0.105 0.152s-0.037 0.119-0.037 0.181 0.013 0.124 0.037 0.182c0.025 0.057 0.060 0.109 0.105 0.152s0.098 0.077 0.157 0.099 0.121 0.032 0.183 0.029h0.978c0.119-0.005 0.231-0.056 0.314-0.142s0.128-0.201 0.128-0.32c0-0.119-0.046-0.233-0.128-0.32s-0.195-0.137-0.314-0.142v0z"></path>
<path  d="M22.228 23.127h-0.978c-0.119 0.005-0.231 0.056-0.314 0.142s-0.128 0.201-0.128 0.32c0 0.119 0.046 0.234 0.128 0.32s0.195 0.137 0.314 0.142h0.978c0.062 0.003 0.125-0.007 0.183-0.029s0.112-0.056 0.157-0.099c0.045-0.043 0.081-0.095 0.105-0.152s0.037-0.119 0.037-0.182-0.013-0.124-0.037-0.181c-0.025-0.057-0.060-0.109-0.105-0.152s-0.098-0.077-0.157-0.099-0.121-0.032-0.183-0.029v0z"></path>
<path  d="M25.205 23.127h-0.978c-0.119 0.005-0.231 0.056-0.314 0.142s-0.128 0.201-0.128 0.32c0 0.119 0.046 0.234 0.128 0.32s0.195 0.137 0.314 0.142h0.978c0.062 0.003 0.125-0.007 0.183-0.029s0.112-0.056 0.157-0.099c0.045-0.043 0.081-0.095 0.105-0.152s0.037-0.119 0.037-0.182-0.013-0.124-0.037-0.181c-0.025-0.057-0.060-0.109-0.105-0.152s-0.098-0.077-0.157-0.099-0.121-0.032-0.183-0.029v0z"></path>
<path  d="M4.924 11.194c-0.051-0.035-0.108-0.060-0.169-0.073s-0.123-0.013-0.184-0.002c-0.061 0.012-0.118 0.036-0.17 0.070s-0.095 0.079-0.129 0.131c-0.034 0.052-0.057 0.11-0.068 0.171s-0.010 0.123 0.004 0.184c0.014 0.060 0.039 0.117 0.075 0.168s0.082 0.093 0.134 0.125c0.506 0.369 1.113 0.575 1.739 0.592v0.622c0.005 0.119 0.056 0.231 0.142 0.314s0.2 0.128 0.32 0.128 0.234-0.046 0.32-0.128c0.086-0.082 0.137-0.195 0.142-0.314v-0.656c0.506-0.094 0.97-0.342 1.329-0.71s0.596-0.838 0.678-1.346c0.101-0.529 0.004-1.078-0.274-1.539s-0.717-0.805-1.232-0.963c-0.178-0.064-0.347-0.124-0.501-0.184v-2.583c0.271 0.050 0.525 0.165 0.74 0.337 0.092 0.075 0.208 0.112 0.326 0.103s0.228-0.062 0.308-0.149c0.080-0.087 0.123-0.202 0.121-0.32s-0.049-0.231-0.132-0.315c-0.389-0.324-0.862-0.529-1.364-0.591v-0.556c-0.005-0.119-0.056-0.231-0.142-0.314s-0.2-0.128-0.32-0.128c-0.119 0-0.234 0.046-0.32 0.128s-0.137 0.195-0.142 0.314v0.592c-0.091 0.018-0.184 0.042-0.279 0.070-0.363 0.114-0.687 0.326-0.937 0.613s-0.416 0.637-0.48 1.011c-0.074 0.323-0.059 0.661 0.046 0.976s0.293 0.595 0.545 0.81c0.34 0.253 0.71 0.462 1.102 0.622v3.232c-0.445-0.018-0.874-0.171-1.229-0.44v0zM7.080 8.768l0.19 0.070c0.309 0.087 0.573 0.288 0.741 0.562s0.225 0.601 0.162 0.916c-0.048 0.291-0.175 0.563-0.369 0.786s-0.445 0.387-0.727 0.475l0.003-2.808zM5.624 7.050c-0.119-0.111-0.205-0.253-0.249-0.41s-0.046-0.322-0.003-0.479c0.034-0.207 0.124-0.401 0.26-0.561s0.313-0.28 0.512-0.346h0.012v2.133c-0.189-0.095-0.368-0.208-0.536-0.337h0.004z"></path>
<path  d="M24.195 28.813c-0.061 0-0.121 0.012-0.177 0.035s-0.107 0.057-0.15 0.1c-0.043 0.043-0.077 0.094-0.1 0.15s-0.035 0.116-0.035 0.177v0.331c-0 0.265-0.106 0.52-0.294 0.708s-0.442 0.294-0.708 0.294h-20.804c-0.266-0-0.52-0.106-0.708-0.294s-0.293-0.442-0.294-0.708v-27.68c0-0.266 0.106-0.52 0.294-0.708s0.442-0.293 0.708-0.294h16.16c0.049 0 0.097 0.004 0.145 0.012v3.864c0.001 0.432 0.172 0.846 0.477 1.151s0.719 0.477 1.151 0.478h3.862c0.007 0.048 0.011 0.096 0.012 0.145v2.202c-0.003 0.062 0.007 0.125 0.029 0.183s0.056 0.112 0.099 0.157c0.043 0.045 0.095 0.081 0.152 0.105s0.119 0.037 0.181 0.037c0.063 0 0.124-0.013 0.182-0.037s0.109-0.060 0.152-0.105c0.043-0.045 0.077-0.098 0.099-0.157s0.032-0.121 0.029-0.183v-2.204c-0.009-0.504-0.207-0.987-0.555-1.352l-4.664-4.665c-0.36-0.355-0.846-0.554-1.352-0.554h-16.16c-0.511 0-1.001 0.203-1.363 0.564s-0.565 0.851-0.565 1.362v27.68c0 0.511 0.204 1 0.565 1.361s0.851 0.564 1.362 0.565h20.806c0.511-0 1-0.204 1.362-0.565s0.564-0.851 0.565-1.361v-0.331c0-0.061-0.012-0.121-0.035-0.177s-0.057-0.107-0.1-0.15c-0.043-0.043-0.094-0.077-0.15-0.1s-0.116-0.035-0.177-0.035v0zM19.155 1.577l3.925 3.925h-3.22c-0.187-0-0.366-0.074-0.497-0.206s-0.206-0.311-0.206-0.498v-3.221h-0.001z"></path>
<path  d="M26.468 10.481h-12.437c-0.424 0.001-0.83 0.171-1.13 0.47s-0.469 0.706-0.47 1.13v1.554c0.005 0.119 0.056 0.231 0.142 0.314s0.201 0.128 0.32 0.128 0.234-0.046 0.32-0.128c0.086-0.082 0.137-0.195 0.142-0.314v-1.554c0-0.18 0.072-0.353 0.199-0.481s0.3-0.199 0.481-0.199h12.437c0.18 0 0.353 0.072 0.481 0.199s0.199 0.3 0.199 0.481v13.893c-0 0.18-0.072 0.353-0.199 0.481s-0.3 0.199-0.481 0.199h-12.441c-0.18-0-0.353-0.072-0.481-0.199s-0.199-0.3-0.199-0.481v-10.177c0.003-0.062-0.007-0.125-0.029-0.183s-0.056-0.112-0.099-0.157c-0.043-0.045-0.095-0.081-0.152-0.105s-0.119-0.037-0.181-0.037-0.124 0.013-0.182 0.037c-0.057 0.025-0.109 0.060-0.152 0.105s-0.077 0.098-0.099 0.157-0.032 0.121-0.029 0.183v10.18c0.001 0.424 0.17 0.83 0.47 1.13s0.706 0.469 1.13 0.47h12.437c0.424-0.001 0.83-0.17 1.13-0.47s0.469-0.706 0.47-1.13v-13.893c-0-0.424-0.169-0.83-0.468-1.131s-0.705-0.47-1.129-0.473v0z"></path>
<path  d="M25.668 13.536c-0-0.217-0.086-0.424-0.24-0.577s-0.361-0.239-0.577-0.24h-9.204c-0.217 0-0.424 0.086-0.577 0.24s-0.239 0.361-0.24 0.577v2.364c0 0.217 0.086 0.424 0.24 0.577s0.361 0.239 0.577 0.239h9.204c0.217-0 0.424-0.086 0.577-0.239s0.239-0.361 0.24-0.577v-2.364zM24.744 15.793h-8.991v-2.15h8.991v2.15z"></path>
</symbol>
<symbol id="icon-icon7" viewBox="0 0 36 32">
<path   d="M13.5 0v4.5h18v22.5h-18v4.5h22.5v-31.5h-22.5zM9 9l-9 6.75 9 6.75v-4.5h18v-4.5h-18v-4.5z"></path>
</symbol>
<symbol id="icon-loan" viewBox="0 0 32 32">
<path fill="#2e186a" style="fill: var(--color2, #2e186a)" d="M17.533 12.957c-0.127-0.4-0.405-0.722-0.764-0.904l-0.009-0.004-1.039-0.52c-0.151-0.076-0.253-0.23-0.253-0.408 0-0.252 0.204-0.455 0.455-0.455 0 0 0.001 0 0.001 0h0.158c0.251 0 0.455 0.204 0.455 0.455v0.079h1.067v-0.079c-0.003-0.675-0.445-1.246-1.056-1.442l-0.011-0.003v-0.611h-1.067v0.611c-0.623 0.198-1.066 0.771-1.066 1.448 0 0.591 0.339 1.104 0.832 1.354l0.009 0.004 1.039 0.52c0.151 0.076 0.253 0.23 0.253 0.408 0 0.252-0.204 0.455-0.455 0.455-0 0-0.001 0-0.001 0h-0.158c-0.251-0-0.455-0.204-0.455-0.455v-0.079h-1.067v0.079c0.003 0.675 0.445 1.246 1.056 1.442l0.011 0.003v0.611h1.067v-0.611c0.623-0.198 1.066-0.771 1.066-1.448 0-0.161-0.025-0.316-0.071-0.461l0.003 0.011z"></path>
<path fill="#2e186a" style="fill: var(--color2, #2e186a)" d="M21.868 8.577v-4.31h-1.067v4.468c0 0 0 0 0 0 0 0.11 0.033 0.212 0.090 0.296l-0.001-0.002c0.613 0.912 0.979 2.036 0.979 3.244 0 3.24-2.626 5.866-5.866 5.866s-5.866-2.626-5.866-5.866c0-1.734 0.752-3.293 1.949-4.366l0.005-0.005c0.109-0.098 0.177-0.239 0.177-0.396v-5.373h-1.067v5.14c-1.315 1.264-2.131 3.037-2.131 5.001 0 3.829 3.104 6.933 6.933 6.933s6.933-3.104 6.933-6.933c0-1.371-0.398-2.649-1.085-3.726l0.017 0.028z"></path>
<path fill="#2e186a" style="fill: var(--color2, #2e186a)" d="M18.668 1.6v4.266c-0.788-0.337-1.704-0.533-2.666-0.533h-0c-0.174 0-0.351 0.008-0.533 0.024v-2.693h-1.067v3.298c0 0 0 0 0 0 0 0.163 0.073 0.309 0.188 0.406l0.001 0.001c0.093 0.078 0.214 0.126 0.347 0.126 0.031 0 0.060-0.003 0.090-0.007l-0.003 0c0.304-0.057 0.654-0.089 1.011-0.089 1.068 0 2.069 0.291 2.927 0.797l-0.027-0.015c0.077 0.045 0.169 0.072 0.267 0.072 0.294 0 0.533-0.239 0.533-0.533 0-0 0-0 0-0v0-5.12h-1.066z"></path>
<path fill="#2e186a" style="fill: var(--color2, #2e186a)" d="M16.535 0.533h1.067v2.134h-1.067v-2.134z"></path>
<path fill="#2e186a" style="fill: var(--color2, #2e186a)" d="M21.542 19.444c-1.505 1.178-3.424 1.889-5.509 1.889-0.012 0-0.024-0-0.036-0h0.002c-0.002 0-0.004 0-0.006 0-0.895 0-1.76-0.129-2.577-0.37l0.064 0.016-0.295 1.025c0.841 0.251 1.808 0.396 2.809 0.396 0.002 0 0.004 0 0.005 0h-0c0.010 0 0.022 0 0.034 0 2.332 0 4.477-0.795 6.181-2.129l-0.022 0.017z"></path>
<path fill="#2e186a" style="fill: var(--color2, #2e186a)" d="M9.808 4.244c-0.502 0.391-0.946 0.806-1.351 1.258l-0.008 0.010 0.792 0.713c0.37-0.412 0.768-0.784 1.197-1.118l0.020-0.015z"></path>
<path fill="#2e186a" style="fill: var(--color2, #2e186a)" d="M11.201 0h1.067v1.067h-1.067v-1.067z"></path>
<path fill="#2e186a" style="fill: var(--color2, #2e186a)" d="M20.802 2.134h1.067v1.067h-1.067v-1.067z"></path>
<path fill="#2e186a" style="fill: var(--color2, #2e186a)" d="M18.668 11.733h1.067v1.067h-1.067v-1.067z"></path>
<path fill="#2e186a" style="fill: var(--color2, #2e186a)" d="M12.268 11.733h1.067v1.067h-1.067v-1.067z"></path>
<path fill="#2e186a" style="fill: var(--color2, #2e186a)" d="M11.467 20.121l-0.531 0.92c0.309 0.183 0.678 0.371 1.060 0.536l0.065 0.025 0.415-0.984c-0.401-0.168-0.732-0.335-1.051-0.521l0.042 0.023z"></path>
<path fill="#2e186a" style="fill: var(--color2, #2e186a)" d="M31.393 13.764l-3.142-8.237c-0.19-0.491-0.56-0.877-1.026-1.085l-0.012-0.005c-0.236-0.107-0.512-0.17-0.802-0.17-0.262 0-0.513 0.051-0.742 0.144l0.013-0.005c-0.495 0.196-0.882 0.574-1.085 1.049l-0.005 0.013c-0.096 0.22-0.152 0.477-0.152 0.746s0.056 0.526 0.157 0.759l-0.005-0.012 1.468 3.458c-0.056-0.009-0.124-0.015-0.193-0.018l-0.004-0c-1.031 0-1.867 0.836-1.867 1.867v0 4.137c-0.001 0.44-0.106 0.855-0.292 1.222l0.007-0.015c-0.827 1.624-1.313 3.541-1.316 5.571v1.353c-0.294 0-0.533 0.239-0.533 0.533v0 4.267c0 0.294 0.239 0.533 0.533 0.533v0 2.134h1.067v-2.135h5.333v2.134h1.067v-2.134c0.294 0 0.533-0.239 0.533-0.533v0-4.267c0-0.294-0.239-0.533-0.533-0.533v0h-0.204l1.653-3.982c0.435-1.033 0.687-2.234 0.687-3.494 0-1.184-0.223-2.315-0.629-3.355l0.022 0.063zM29.334 28.8h-6.4v-3.2h6.4zM30.331 20.145l-1.822 4.388h-5.042v-1.352c0.002-1.857 0.446-3.61 1.232-5.16l-0.030 0.065c0.25-0.49 0.396-1.070 0.396-1.683 0-0 0-0 0-0v0-4.137c0.003-0.44 0.36-0.795 0.8-0.795 0.378 0 0.695 0.262 0.778 0.614l0.001 0.005c0.006 0.070 0.021 0.138 0.021 0.209v6.367h1.067v-6.4c0-0.010 0-0.021 0-0.032-0.007-0.446-0.102-0.868-0.269-1.252l0.008 0.021-1.893-4.459c-0.043-0.098-0.068-0.212-0.068-0.333s0.025-0.235 0.070-0.338l-0.002 0.005c0.095-0.221 0.271-0.392 0.491-0.478l0.006-0.002c0.1-0.041 0.216-0.065 0.337-0.065 0.134 0 0.262 0.029 0.377 0.081l-0.006-0.002c0.219 0.096 0.388 0.271 0.473 0.488l0.002 0.006 3.141 8.237c0.34 0.864 0.537 1.866 0.537 2.913 0 1.113-0.223 2.174-0.626 3.141l0.020-0.054z"></path>
<path fill="#2e186a" style="fill: var(--color2, #2e186a)" d="M27.201 26.667h1.067v1.067h-1.067v-1.067z"></path>
<path fill="#2e186a" style="fill: var(--color2, #2e186a)" d="M9.601 24.533v-1.352c-0.003-2.031-0.488-3.948-1.348-5.643l0.033 0.071c-0.179-0.352-0.284-0.766-0.285-1.206v-4.137c0-1.031-0.836-1.867-1.867-1.867v0c-0.073 0.004-0.141 0.011-0.207 0.021l0.011-0.001 1.469-3.458c0.096-0.221 0.152-0.478 0.152-0.748s-0.056-0.527-0.157-0.76l0.005 0.012c-0.208-0.488-0.595-0.866-1.077-1.057l-0.013-0.005c-0.216-0.088-0.466-0.139-0.729-0.139-0.29 0-0.566 0.063-0.815 0.175l0.012-0.005c-0.477 0.213-0.845 0.599-1.031 1.077l-0.005 0.013-3.141 8.237c-0.385 0.978-0.608 2.111-0.608 3.295 0 1.26 0.253 2.462 0.71 3.556l-0.023-0.061 1.649 3.981h-0.2c-0.294 0-0.533 0.239-0.533 0.533v0 4.267c0 0.294 0.239 0.533 0.533 0.533v0 2.134h1.064v-2.133h5.333v2.134h1.067v-2.134c0.294 0 0.533-0.239 0.533-0.533v0-4.267c0 0 0 0 0 0 0-0.294-0.239-0.533-0.533-0.533-0 0-0.001 0-0.001 0h0zM1.673 20.149c-0.383-0.913-0.606-1.974-0.606-3.087 0-1.049 0.198-2.052 0.558-2.974l-0.019 0.056 3.146-8.239c0.087-0.223 0.256-0.399 0.47-0.492l0.006-0.002c0.109-0.050 0.237-0.079 0.371-0.079 0.122 0 0.238 0.024 0.344 0.067l-0.006-0.002c0.225 0.088 0.402 0.259 0.494 0.474l0.002 0.006c0.043 0.098 0.068 0.213 0.068 0.333s-0.025 0.235-0.070 0.339l0.002-0.005-1.891 4.459c-0.16 0.363-0.256 0.785-0.265 1.228l-0 0.003c0 0.011 0 0.021 0 0.032v6.4h1.061v-6.366c0-0.071 0.014-0.139 0.021-0.209 0.088-0.353 0.403-0.61 0.777-0.61 0.437 0 0.792 0.35 0.8 0.785v4.138c0 0 0 0 0 0 0 0.613 0.146 1.192 0.406 1.704l-0.010-0.021c0.756 1.485 1.2 3.238 1.202 5.094v1.352h-5.040zM9.068 28.8h-6.4v-3.2h6.4z"></path>
<path fill="#2e186a" style="fill: var(--color2, #2e186a)" d="M3.735 26.667h1.067v1.067h-1.067v-1.067z"></path>
</symbol>
<symbol id="icon-money" viewBox="0 0 33 32">
<path fill="#2e186a" style="fill: var(--color2, #2e186a)" d="M28.127 10.51h-27.653c-0 0-0 0-0.001 0-0.261 0-0.473 0.211-0.473 0.472v13.274c0 0 0 0 0 0.001 0 0.261 0.212 0.473 0.473 0.473h18.804c0.262 0 0.474-0.212 0.474-0.474s-0.212-0.474-0.474-0.474v0h-18.33v-12.325h26.705v1.185c0 0 0 0 0 0.001 0 0.261 0.212 0.473 0.473 0.473v0c0 0 0 0 0.001 0 0.261 0 0.473-0.212 0.473-0.473v0-1.66c0-0 0-0 0-0.001 0-0.261-0.211-0.473-0.472-0.473h-0z"></path>
<path fill="#2e186a" style="fill: var(--color2, #2e186a)" d="M24.916 8.31l-22.122-4.977c-0.031-0.007-0.067-0.011-0.103-0.011-0.226 0-0.416 0.159-0.463 0.371l-0.001 0.003-1.106 4.977c-0.007 0.031-0.011 0.066-0.011 0.103 0 0.262 0.212 0.474 0.474 0.474 0.226 0 0.414-0.157 0.462-0.368l0.001-0.003 1.002-4.514 21.658 4.873c0.030 0.007 0.065 0.012 0.101 0.012 0.001 0 0.002 0 0.003 0h-0c0.261-0.001 0.473-0.213 0.473-0.474 0-0.225-0.157-0.413-0.366-0.462l-0.003-0.001z"></path>
<path fill="#2e186a" style="fill: var(--color2, #2e186a)" d="M22.223 5.568l-13.273-5.53c-0.054-0.023-0.117-0.037-0.183-0.037-0.185 0-0.346 0.106-0.424 0.26l-0.001 0.003-1.106 2.212c-0.036 0.065-0.057 0.143-0.057 0.226 0 0.263 0.213 0.476 0.476 0.476 0.18 0 0.336-0.1 0.417-0.247l0.001-0.002c0.005-0.009 0.009-0.018 0.014-0.028v0l0.907-1.814 12.867 5.359c0.061 0.031 0.133 0.048 0.209 0.048 0.263 0 0.475-0.213 0.475-0.475 0-0.207-0.133-0.384-0.318-0.449l-0.003-0.001z"></path>
<path fill="#2e186a" style="fill: var(--color2, #2e186a)" d="M22.56 12.722h-4.39c-0.262 0-0.474 0.212-0.474 0.474s0.212 0.474 0.474 0.474v0h4.39c0.262 0 0.474-0.212 0.474-0.474s-0.212-0.474-0.474-0.474v0z"></path>
<path fill="#2e186a" style="fill: var(--color2, #2e186a)" d="M13.747 12.754c-2.688 0-4.867 2.179-4.867 4.867s2.179 4.867 4.867 4.867c2.688 0 4.867-2.179 4.867-4.867v0c0-2.688-2.179-4.867-4.867-4.867v0zM13.747 21.603c-2.199 0-3.982-1.783-3.982-3.982s1.783-3.982 3.982-3.982c2.199 0 3.982 1.783 3.982 3.982v0c0 2.199-1.783 3.982-3.982 3.982v0z"></path>
<path fill="#2e186a" style="fill: var(--color2, #2e186a)" d="M27.020 14.302c-2.931 0-6.084 0.692-6.084 2.212v13.273c0 1.52 3.152 2.212 6.084 2.212s6.084-0.692 6.084-2.212v-13.273c0-1.52-3.153-2.212-6.084-2.212zM32.001 29.781c-0.083 0.307-1.742 1.114-4.977 1.114s-4.894-0.808-4.977-1.106v-0.871c1.481 0.551 3.192 0.87 4.977 0.87s3.496-0.319 5.079-0.903l-0.102 0.033zM32.001 27.569c-0.083 0.307-1.742 1.114-4.977 1.114s-4.894-0.808-4.977-1.106v-0.871c1.481 0.551 3.192 0.87 4.977 0.87s3.496-0.319 5.079-0.903l-0.102 0.033zM32.001 25.357c-0.083 0.307-1.742 1.114-4.977 1.114s-4.894-0.808-4.977-1.106v-0.871c1.481 0.551 3.192 0.87 4.977 0.87s3.496-0.319 5.079-0.903l-0.102 0.033zM32.001 23.145c-0.083 0.307-1.742 1.114-4.977 1.114s-4.894-0.808-4.977-1.106v-0.871c1.481 0.551 3.192 0.87 4.977 0.87s3.496-0.319 5.079-0.902l-0.102 0.033zM32.001 20.932c-0.083 0.307-1.742 1.114-4.977 1.114s-4.894-0.808-4.977-1.106v-0.871c1.481 0.551 3.192 0.87 4.977 0.87s3.496-0.319 5.079-0.903l-0.102 0.033zM32.001 18.72c-0.083 0.307-1.742 1.114-4.977 1.114s-4.894-0.808-4.977-1.106v-0.871c1.481 0.551 3.192 0.87 4.977 0.87s3.496-0.319 5.079-0.903l-0.102 0.033zM27.023 17.622c-3.23 0-4.888-0.805-4.977-1.096v0c0.089-0.308 1.747-1.113 4.977-1.113 3.208 0 4.867 0.793 4.977 1.106-0.114 0.308-1.773 1.101-4.98 1.101z"></path>
<path fill="#2e186a" style="fill: var(--color2, #2e186a)" d="M9.323 21.57h-4.181l-1.981-2.168v-3.595l2.189-2.137h3.973c0.262 0 0.474-0.212 0.474-0.474s-0.212-0.474-0.474-0.474v0h-4.166c-0 0-0.001 0-0.001 0-0.129 0-0.245 0.051-0.331 0.134l0-0-2.468 2.41c-0.090 0.103-0.145 0.239-0.145 0.387v3.933c0 0.123 0.047 0.235 0.124 0.32l-0-0 2.25 2.458c0.087 0.095 0.211 0.154 0.35 0.155h4.387c0.262 0 0.474-0.212 0.474-0.474s-0.212-0.474-0.474-0.474v0z"></path>
<path fill="#2e186a" style="fill: var(--color2, #2e186a)" d="M14.024 17.068h-0.553c-0.172 0-0.277-0.097-0.277-0.138s0.104-0.139 0.277-0.139h1.379c0.305 0 0.553-0.248 0.553-0.553s-0.248-0.553-0.553-0.553h-0.552c0-0.305-0.248-0.553-0.553-0.553s-0.553 0.248-0.553 0.553v0.025c-0.61 0.089-1.077 0.594-1.106 1.214l-0 0.003c0.040 0.698 0.615 1.248 1.319 1.248 0.021 0 0.042-0 0.063-0.001l-0.003 0h0.553c0.172 0 0.277 0.097 0.277 0.138s-0.104 0.139-0.277 0.139h-1.379c-0.305 0-0.553 0.248-0.553 0.553s0.248 0.553 0.553 0.553h0.553c0 0.305 0.248 0.553 0.553 0.553s0.553-0.248 0.553-0.553v0-0.025c0.61-0.089 1.077-0.594 1.106-1.214l0-0.003c-0.040-0.698-0.615-1.248-1.319-1.248-0.021 0-0.043 0-0.064 0.002l0.003-0z"></path>
</symbol>
<symbol id="icon-Page-1" viewBox="0 0 31 32">
<path fill="#2e186a" style="fill: var(--color2, #2e186a)" d="M1.107 2.519c0.008 0 0.779 0.139 2.576 1.982 0.1 0.103 0.24 0.167 0.395 0.167 0.305 0 0.553-0.247 0.553-0.553 0-0.15-0.060-0.287-0.157-0.386l0 0c-2.092-2.144-3.071-2.313-3.32-2.313-0.002-0-0.005-0-0.008-0-0.308 0-0.558 0.246-0.566 0.551v0.001c-0 0.006-0 0.013-0 0.020 0 0.293 0.237 0.531 0.53 0.532h0z"></path>
<path fill="#2e186a" style="fill: var(--color2, #2e186a)" d="M8.418 8.457c-0.087 0.099-0.141 0.23-0.141 0.374 0 0.020 0.001 0.040 0.003 0.059l-0-0.002 0.413 3.696 1.489 0.745c0.571 0.29 1.245 0.459 1.958 0.459s1.387-0.17 1.984-0.471l-0.025 0.012c0.709-0.365 1.548-0.58 2.436-0.58 0.006 0 0.012 0 0.019 0h-0.001c0.002 0 0.004 0 0.006 0 0.621 0 1.219 0.104 1.775 0.295l-0.038-0.011c0.278 0.095 0.512 0.196 0.735 0.312l-0.029-0.014c0.015 0.004 0.028 0.012 0.039 0.022l-0-0c0.089 0.044 0.177 0.083 0.27 0.122 0.487 0.2 1.052 0.317 1.644 0.317 0.716 0 1.392-0.17 1.99-0.472l-0.025 0.012 1.495-0.745 0.413-3.696c0.002-0.018 0.003-0.039 0.003-0.060 0-0.305-0.247-0.552-0.552-0.552-0.001 0-0.002 0-0.003 0h-3.043l1.301-3.51 5.373-3.762c0.151-0.1 0.249-0.269 0.249-0.461 0-0.304-0.247-0.551-0.551-0.551-0.123 0-0.236 0.040-0.328 0.108l0.002-0.001-5.521 3.866c-0.092 0.064-0.162 0.152-0.203 0.256l-0.001 0.004-1.501 4.058h-11.221c-0.163 0.001-0.31 0.071-0.413 0.182l-0 0z"></path>
<path fill="#2e186a" style="fill: var(--color2, #2e186a)" d="M26.496 29.763c1.131-0.111 2.142-0.55 2.955-1.221l-0.009 0.007-2.951-2.946z"></path>
<path fill="#2e186a" style="fill: var(--color2, #2e186a)" d="M25.391 25.604l-2.945 2.935c0.803 0.667 1.814 1.112 2.922 1.225l0.023 0.002z"></path>
<path fill="#2e186a" style="fill: var(--color2, #2e186a)" d="M21.669 27.759l2.94-2.94-4.165-0.005c0.115 1.131 0.559 2.141 1.232 2.954l-0.007-0.009z"></path>
<path fill="#2e186a" style="fill: var(--color2, #2e186a)" d="M20.444 23.711l4.159 0.006-2.946-2.951c-0.663 0.804-1.103 1.815-1.212 2.923l-0.002 0.023z"></path>
<path fill="#2e186a" style="fill: var(--color2, #2e186a)" d="M5.373 3.477c0.409-0.084 0.765-0.272 1.050-0.536l-0.001 0.001c0.262-0.284 0.449-0.64 0.529-1.035l0.002-0.014c0.008-0.036 0.013-0.077 0.013-0.119 0-0.302-0.245-0.547-0.547-0.547-0.045 0-0.088 0.005-0.13 0.016l0.004-0.001c-0.405 0.084-0.757 0.27-1.040 0.531l0.001-0.001c-0.264 0.283-0.453 0.639-0.536 1.034l-0.002 0.014c-0.009 0.037-0.014 0.079-0.014 0.122 0 0.305 0.247 0.552 0.552 0.552 0.043 0 0.085-0.005 0.126-0.014l-0.004 0.001z"></path>
<path fill="#2e186a" style="fill: var(--color2, #2e186a)" d="M13.213 17.932c0 0.521-0.423 0.944-0.944 0.944s-0.944-0.423-0.944-0.944c0-0.521 0.423-0.944 0.944-0.944s0.944 0.423 0.944 0.944z"></path>
<path fill="#2e186a" style="fill: var(--color2, #2e186a)" d="M17.107 24.258c-0-0.009-0-0.020-0-0.031 0-2.199 0.808-4.21 2.144-5.75l-0.009 0.011c0.199-0.23 0.486-0.378 0.808-0.392l0.002-0c0.003-0 0.007-0 0.011-0 0.313 0 0.597 0.124 0.805 0.326l-0-0 2.61 2.604 0.795-7.133-0.855 0.425c-0.716 0.362-1.561 0.574-2.455 0.574-0.731 0-1.428-0.142-2.067-0.399l0.037 0.013q-0.207-0.083-0.413-0.182c-0.017-0.011-0.033-0.017-0.050-0.027-0.152-0.077-0.336-0.154-0.526-0.218l-0.031-0.009c-0.405-0.133-0.87-0.209-1.354-0.209-0.714 0-1.389 0.167-1.988 0.463l0.026-0.012c-0.715 0.365-1.559 0.579-2.454 0.579s-1.739-0.214-2.485-0.593l0.031 0.014-0.849-0.425 1.781 16.069 0.171 1.55c0.033 0.278 0.267 0.491 0.551 0.491 0 0 0.001 0 0.001 0h10.33c-2.739-1.541-4.561-4.427-4.568-7.738v-0.001zM10.487 17.934c0-0.001 0-0.002 0-0.004 0-1.067 0.865-1.931 1.931-1.931s1.931 0.865 1.931 1.931c0 1.067-0.865 1.931-1.931 1.931-0.001 0-0.003 0-0.004 0h0c-1.065-0.002-1.927-0.866-1.927-1.931 0 0 0 0 0 0v0zM11.038 22.072c0-0.305 0.247-0.552 0.552-0.552s0.552 0.247 0.552 0.552c0 0.305-0.247 0.552-0.552 0.552v0c0 0 0 0 0 0-0.305 0-0.552-0.247-0.552-0.552 0-0.001 0-0.003 0-0.004v0zM11.59 24.831c0-0 0-0.001 0-0.001 0-0.305 0.247-0.552 0.552-0.552s0.552 0.247 0.552 0.552c0 0.305-0.247 0.552-0.552 0.552-0 0-0.001 0-0.001 0h0c-0.305-0.001-0.551-0.248-0.551-0.552 0-0.001 0-0.003 0-0.004v0z"></path>
<path fill="#2e186a" style="fill: var(--color2, #2e186a)" d="M30.22 29.333c-0.566 0.481-1.226 0.873-1.946 1.143l-0.046 0.015c-0.679 0.256-1.463 0.406-2.283 0.409h-0.001c-3.663-0.007-6.63-2.974-6.637-6.636v-0.005c0-0 0-0 0-0 0-1.633 0.593-3.127 1.574-4.279l-0.008 0.009-0.789-0.789c-1.164 1.349-1.873 3.119-1.873 5.054 0 3.207 1.947 5.96 4.724 7.14l0.051 0.019h0.011v0.006c0.867 0.366 1.874 0.579 2.931 0.579 0.005 0 0.010 0 0.015 0h0.005c0.006 0 0.013 0 0.020 0 1.926 0 3.687-0.706 5.038-1.873l-0.010 0.008 0.011-0.011z"></path>
<path fill="#2e186a" style="fill: var(--color2, #2e186a)" d="M2.785 4.751c-0.409 0.084-0.765 0.272-1.050 0.536l0.001-0.001c-0.261 0.284-0.448 0.64-0.527 1.035l-0.002 0.014c-0.008 0.035-0.013 0.076-0.013 0.118 0 0.302 0.245 0.546 0.546 0.546 0.042 0 0.082-0.005 0.121-0.013l-0.004 0.001c0.409-0.081 0.765-0.268 1.050-0.531l-0.002 0.001c0.262-0.283 0.451-0.637 0.533-1.031l0.002-0.014c0.009-0.037 0.014-0.079 0.014-0.122 0-0.305-0.247-0.552-0.552-0.552-0.043 0-0.086 0.005-0.126 0.014l0.004-0.001z"></path>
<path fill="#2e186a" style="fill: var(--color2, #2e186a)" d="M8.314 20.733c-0.328 0.212-0.714 0.368-1.128 0.444l-0.019 0.003v-0.221c-0.011-0.112-0.017-0.242-0.017-0.373 0-1.367 0.684-2.575 1.728-3.299l0.013-0.009c0.146-0.101 0.241-0.267 0.241-0.456 0-0.305-0.247-0.552-0.552-0.552-0.099 0-0.192 0.026-0.272 0.072l0.003-0.001c-0.889 0.568-1.559 1.411-1.896 2.408l-0.009 0.032c0.042-0.181-0.079-0.423-0.331-0.661-0.39-0.347-0.871-0.6-1.402-0.719l-0.021-0.004c-0.278-0.050-0.599-0.079-0.926-0.079-0.279 0-0.552 0.021-0.82 0.061l0.030-0.004c-0.285 0.023-0.508 0.26-0.508 0.549 0 0.192 0.098 0.36 0.246 0.459l0.002 0.001c0.437 0.337 0.944 0.612 1.491 0.8l0.037 0.011c0.254 0.070 0.545 0.111 0.845 0.111 0.269 0 0.531-0.032 0.782-0.094l-0.022 0.005c0.252-0.042 0.463-0.191 0.588-0.398l0.002-0.004c-0.21 0.617-0.332 1.328-0.332 2.067 0 0.027 0 0.055 0 0.082l-0-0.004v0.221c-0.437-0.078-0.827-0.236-1.17-0.46l0.012 0.007c-0.202-0.132-0.434-0.254-0.678-0.354l-0.028-0.010c-0.322-0.143-0.698-0.226-1.093-0.226-0.229 0-0.452 0.028-0.665 0.081l0.019-0.004c-0.763 0.225-1.38 0.737-1.739 1.408l-0.008 0.015c-0.46 0.922-0.729 2.008-0.729 3.157 0 0.794 0.129 1.559 0.366 2.273l-0.015-0.051c0.905 3.233 3.332 5.428 5.406 4.898 0.233-0.062 0.436-0.146 0.625-0.255l-0.012 0.007c0.076-0.041 0.166-0.065 0.262-0.065 0.1 0 0.194 0.026 0.276 0.073l-0.003-0.001c0.173 0.1 0.373 0.183 0.584 0.239l0.017 0.004c0.194 0.045 0.417 0.071 0.647 0.071 0.575 0 1.111-0.162 1.567-0.442l-0.013 0.007-1.217-10.912c-0.049 0.032-0.104 0.059-0.159 0.094zM3.006 22.349c-0.116 0.027-0.254 0.171-0.378 0.392-0.273 0.603-0.433 1.308-0.433 2.050 0 0.587 0.1 1.151 0.283 1.675l-0.011-0.036c0.013 0.045 0.021 0.096 0.021 0.149 0 0.25-0.166 0.461-0.394 0.529l-0.004 0.001c-0.042 0.014-0.090 0.022-0.141 0.022-0.003 0-0.006-0-0.009-0h0c-0 0-0.001 0-0.001 0-0.251 0-0.462-0.169-0.527-0.399l-0.001-0.004c-0.2-0.578-0.315-1.245-0.315-1.938 0-0.945 0.214-1.839 0.596-2.638l-0.016 0.037c0.218-0.431 0.592-0.757 1.046-0.906l0.013-0.004c0.040-0.010 0.086-0.016 0.133-0.016 0.257 0 0.473 0.173 0.539 0.41l0.001 0.004c0.011 0.041 0.018 0.089 0.018 0.138 0 0.256-0.174 0.472-0.411 0.534l-0.004 0.001z"></path>
<path fill="#2e186a" style="fill: var(--color2, #2e186a)" d="M4.661 8.596c0.743 0.659 1.625 1.18 2.594 1.512l0.054 0.016-0.122-1.117c-0.006-0.054-0.010-0.116-0.010-0.178 0-0.914 0.74-1.656 1.653-1.658h1.198c-0.348-0.954-0.847-1.776-1.474-2.479l0.007 0.007c-0.419-0.417-0.973-0.698-1.592-0.771l-0.013-0.001c-0.647 0.461-1.452 0.739-2.321 0.745h-0.002c-0.002 0.873-0.281 1.681-0.753 2.341l0.008-0.012c0.075 0.628 0.355 1.18 0.771 1.597l-0-0zM7.728 5.515c0.305 0 0.552 0.247 0.552 0.552s-0.247 0.552-0.552 0.552c-0.305 0-0.552-0.247-0.552-0.552 0-0 0-0.001 0-0.001v0c0.001-0.305 0.248-0.551 0.552-0.551 0 0 0 0 0 0v0zM6.072 7.169c0 0 0.001 0 0.001 0 0.305 0 0.552 0.247 0.552 0.552s-0.247 0.552-0.552 0.552c-0.305 0-0.552-0.247-0.552-0.552v0c0.002-0.303 0.248-0.548 0.552-0.548 0 0 0 0 0 0v0z"></path>
</symbol>
<symbol id="icon-user" viewBox="0 0 32 32">
<path  d="M16 0c-0.002 0-0.005 0-0.008 0-8.832 0-15.992 7.16-15.992 15.992 0 3.884 1.385 7.444 3.687 10.215l-0.021-0.026c0.006 0.008 0.007 0.018 0.013 0.026 1.609 1.933 3.633 3.464 5.939 4.468l0.103 0.040 0.080 0.034c0.187 0.079 0.376 0.152 0.566 0.224 0.075 0.029 0.149 0.057 0.225 0.084q0.246 0.088 0.494 0.168c0.106 0.034 0.212 0.068 0.319 0.1q0.22 0.065 0.442 0.126c0.13 0.035 0.261 0.068 0.392 0.099s0.267 0.064 0.4 0.092c0.149 0.032 0.3 0.060 0.452 0.088 0.121 0.023 0.243 0.046 0.365 0.065 0.168 0.027 0.335 0.049 0.503 0.070 0.109 0.014 0.218 0.030 0.328 0.042 0.192 0.020 0.385 0.034 0.58 0.048 0.091 0.007 0.179 0.016 0.271 0.021q0.425 0.024 0.858 0.024c0.288 0 0.575-0.008 0.859-0.023 0.090-0.005 0.18-0.014 0.271-0.021 0.194-0.014 0.388-0.028 0.58-0.048 0.11-0.012 0.219-0.028 0.328-0.042 0.168-0.022 0.335-0.044 0.503-0.070 0.122-0.020 0.244-0.044 0.365-0.065 0.151-0.028 0.302-0.056 0.452-0.088 0.134-0.029 0.267-0.060 0.4-0.092s0.262-0.065 0.392-0.099c0.148-0.039 0.296-0.084 0.442-0.126 0.107-0.032 0.214-0.065 0.319-0.1q0.251-0.084 0.494-0.168c0.075-0.027 0.15-0.056 0.225-0.084 0.19-0.071 0.38-0.145 0.567-0.224l0.080-0.034c2.409-1.044 4.433-2.576 6.021-4.483l0.021-0.026c0.007-0.008 0.007-0.018 0.013-0.026 2.281-2.744 3.665-6.304 3.665-10.188 0-8.833-7.16-15.993-15.992-15.993h-0zM22.484 29.451l-0.023 0.012c-0.19 0.091-0.384 0.178-0.579 0.262l-0.132 0.056q-0.256 0.107-0.517 0.204c-0.073 0.027-0.145 0.054-0.218 0.080-0.154 0.055-0.308 0.108-0.465 0.158-0.097 0.031-0.194 0.060-0.292 0.089-0.138 0.042-0.278 0.084-0.419 0.119-0.118 0.032-0.238 0.060-0.357 0.089s-0.251 0.060-0.376 0.084-0.277 0.054-0.419 0.080c-0.112 0.021-0.225 0.043-0.335 0.061-0.156 0.024-0.314 0.044-0.472 0.064-0.1 0.013-0.199 0.028-0.3 0.039-0.179 0.019-0.361 0.032-0.542 0.044-0.084 0.005-0.161 0.014-0.242 0.018q-0.396 0.021-0.794 0.021t-0.794-0.021c-0.084-0.004-0.161-0.013-0.242-0.018-0.181-0.013-0.362-0.025-0.542-0.044-0.101-0.011-0.2-0.026-0.3-0.039-0.158-0.020-0.315-0.039-0.472-0.064-0.114-0.018-0.225-0.040-0.335-0.061-0.139-0.025-0.278-0.050-0.419-0.080s-0.251-0.057-0.376-0.084-0.239-0.057-0.357-0.089c-0.14-0.038-0.28-0.078-0.419-0.119-0.097-0.029-0.195-0.058-0.292-0.089q-0.235-0.075-0.465-0.158l-0.218-0.080q-0.261-0.097-0.517-0.204l-0.132-0.056c-0.195-0.084-0.389-0.168-0.58-0.262l-0.023-0.012c-1.904-0.937-3.513-2.191-4.822-3.71l-0.016-0.020c1.077-3.833 3.945-6.823 7.621-8.050l0.083-0.024c0.074 0.045 0.152 0.084 0.228 0.128 0.044 0.025 0.089 0.052 0.134 0.075 0.159 0.084 0.32 0.163 0.485 0.234 0.127 0.055 0.257 0.102 0.387 0.15l0.077 0.029c0.686 0.255 1.478 0.402 2.304 0.402s1.619-0.147 2.352-0.417l-0.047 0.015 0.077-0.029c0.13-0.048 0.261-0.095 0.387-0.15 0.168-0.071 0.326-0.15 0.485-0.234 0.045-0.024 0.090-0.050 0.134-0.075 0.076-0.043 0.154-0.084 0.229-0.129 3.759 1.251 6.628 4.242 7.685 7.992l0.020 0.083c-1.325 1.538-2.933 2.793-4.748 3.691l-0.088 0.039zM10.133 11.732c0-0.001 0-0.003 0-0.005 0-3.24 2.626-5.866 5.866-5.866s5.866 2.626 5.866 5.866c0 2.053-1.055 3.86-2.653 4.908l-0.022 0.014c-0.183 0.121-0.398 0.243-0.62 0.351l-0.034 0.015-0.080 0.039c-0.723 0.333-1.568 0.527-2.459 0.527s-1.736-0.194-2.496-0.542l0.037 0.015-0.080-0.039c-0.256-0.122-0.47-0.244-0.675-0.378l0.021 0.013c-1.618-1.061-2.672-2.866-2.673-4.917v-0zM28.122 24.704c-1.254-3.604-3.963-6.423-7.405-7.796l-0.087-0.031c1.417-1.275 2.304-3.114 2.304-5.161 0-3.829-3.104-6.934-6.934-6.934s-6.934 3.104-6.934 6.934c0 2.047 0.887 3.886 2.297 5.156l0.006 0.006c-3.529 1.404-6.238 4.222-7.464 7.736l-0.027 0.090c-1.753-2.416-2.805-5.441-2.805-8.711 0-8.246 6.684-14.93 14.93-14.93s14.93 6.684 14.93 14.93c0 0.002 0 0.005 0 0.007v-0c0 0.004 0 0.008 0 0.013 0 3.265-1.054 6.284-2.84 8.735l0.029-0.042z"></path>
</symbol>
<symbol id="icon-video-camera" viewBox="0 0 55 32">
<path fill="#2e186a" style="fill: var(--color2, #2e186a)" d="M19.307 18.771l4.8-2.772-4.8-2.77z"></path>
<path fill="#2e186a" style="fill: var(--color2, #2e186a)" d="M40.106 0h-38.507c-0.883 0-1.6 0.716-1.6 1.6v0 28.801c0 0.883 0.716 1.6 1.6 1.6v0h38.507c0.883 0 1.6-0.716 1.6-1.6v0-28.801c0-0.883-0.716-1.6-1.6-1.6v0zM28.106 17.385l-9.601 5.542c-0.229 0.134-0.504 0.213-0.798 0.213-0.884 0-1.6-0.716-1.601-1.599v-11.086c0.001-0.883 0.718-1.599 1.601-1.599 0.294 0 0.569 0.079 0.806 0.217l-0.008-0.004 9.601 5.542c0.482 0.282 0.801 0.797 0.801 1.387s-0.319 1.105-0.793 1.383l-0.008 0.004z"></path>
<path fill="#2e186a" style="fill: var(--color2, #2e186a)" d="M52.303 3.368l-7.396 3.665v17.997l7.405 3.609c0.204 0.101 0.445 0.161 0.699 0.161 0.883 0 1.6-0.715 1.601-1.598v-22.401c-0.002-0.883-0.718-1.598-1.601-1.598-0.258 0-0.502 0.061-0.718 0.17l0.009-0.004z"></path>
</symbol>
</defs>
</svg>
