<svg xmlns="http://www.w3.org/2000/svg" width="1608.396" height="786.333" viewBox="0 0 1608.396 786.333"><g transform="matrix(1, 0.017, -0.017, 1, 15.639, 0)"><g transform="translate(-3)"><rect width="1455.1" height="257.3" transform="translate(73.9 498)" fill="#feba91"/><g transform="translate(610 88)"><path d="M334,0H9.8A9.816,9.816,0,0,0,0,9.8V209.3a9.816,9.816,0,0,0,9.8,9.8H136.5l-19.1,73.3H236.7l-18.5-73.3H334a9.816,9.816,0,0,0,9.8-9.8V9.8A9.752,9.752,0,0,0,334,0Z" transform="translate(0.3 0.8)" fill="#fe7624"/><path d="M287,186.9H11a10.968,10.968,0,0,1-11-11V11A10.968,10.968,0,0,1,11,0H287a10.968,10.968,0,0,1,11,11V175.8A11.054,11.054,0,0,1,287,186.9Z" transform="translate(16.7 13.9)" fill="#fff"/><g transform="translate(137 3)"><path d="M17.4,36.2A16.947,16.947,0,0,1,5.084,30.887a18.111,18.111,0,0,1-3.721-5.755,18.824,18.824,0,0,1,0-14.064A18.112,18.112,0,0,1,5.084,5.313a16.931,16.931,0,0,1,24.632,0,18.112,18.112,0,0,1,3.721,5.755,18.824,18.824,0,0,1,0,14.064,18.111,18.111,0,0,1-3.721,5.755A16.949,16.949,0,0,1,17.4,36.2ZM17.4,6C11.114,6,6,11.428,6,18.1s5.114,12.1,11.4,12.1,11.4-5.428,11.4-12.1S23.686,6,17.4,6Z" transform="translate(21.3 232.4)" fill="#2e186a"/><path d="M2.34.074a3,3,0,0,1,3.543,2.1l.044.171,16,70.9a3,3,0,0,1-5.809,1.492l-.044-.171-16-70.9A3,3,0,0,1,2.34.074Z" transform="translate(67.599 214.199)" fill="#2e186a"/><path d="M83.8,0a3,3,0,0,1,.176,5.995L83.8,6H3A3,3,0,0,1,2.824.005L3,0Z" transform="translate(-2.9 213.8)" fill="#2e186a"/><path d="M3,0A13.366,13.366,0,0,1,16.2,13.187l0,.313V208.6a3,3,0,0,1-5.995.176L10.2,208.6V13.5A7.376,7.376,0,0,0,3,6,3,3,0,0,1,3,0Z" transform="translate(177.3 -2.2)" fill="#2e186a"/></g><g transform="translate(58 54)"><path d="M6.4,13.9H3.3A3.329,3.329,0,0,1,0,10.6V3.3A3.329,3.329,0,0,1,3.3,0H6.4A3.329,3.329,0,0,1,9.7,3.3v7.3A3.329,3.329,0,0,1,6.4,13.9Z" transform="translate(70.6 0.7)" fill="#feba91"/><path d="M62.2,13.8H4.5A4.481,4.481,0,0,1,0,9.3V4.5A4.481,4.481,0,0,1,4.5,0H62.2a4.481,4.481,0,0,1,4.5,4.5V9.3A4.419,4.419,0,0,1,62.2,13.8Z" transform="translate(0.1 0.8)" fill="#5d21d1"/><path d="M68.2,13.8H4.5A4.481,4.481,0,0,1,0,9.3V4.5A4.481,4.481,0,0,1,4.5,0H68.2a4.481,4.481,0,0,1,4.5,4.5V9.3A4.546,4.546,0,0,1,68.2,13.8Z" transform="translate(0.2 65.3)" fill="#5d21d1"/><path d="M108.3,13.8H4.5A4.481,4.481,0,0,1,0,9.3V4.5A4.481,4.481,0,0,1,4.5,0H108.3a4.481,4.481,0,0,1,4.5,4.5V9.3A4.481,4.481,0,0,1,108.3,13.8Z" transform="translate(18.6 43.8)" fill="#feba91"/><path d="M56.4,13.8H4.5A4.481,4.481,0,0,1,0,9.3V4.5A4.481,4.481,0,0,1,4.5,0H56.4a4.481,4.481,0,0,1,4.5,4.5V9.3A4.481,4.481,0,0,1,56.4,13.8Z" transform="translate(137.8 43.8)" fill="#feba91"/><path d="M6.4,13.9H3.3A3.329,3.329,0,0,1,0,10.6V3.3A3.329,3.329,0,0,1,3.3,0H6.4A3.329,3.329,0,0,1,9.7,3.3v7.3A3.206,3.206,0,0,1,6.4,13.9Z" transform="translate(209.6 22.2)" fill="#5d21d1"/><path d="M112.1,13.8H4.5A4.481,4.481,0,0,1,0,9.3V4.5A4.481,4.481,0,0,1,4.5,0H112.1a4.481,4.481,0,0,1,4.5,4.5V9.3A4.419,4.419,0,0,1,112.1,13.8Z" transform="translate(0.2 22.3)" fill="#5d21d1"/><path d="M62.2,13.8H4.5A4.481,4.481,0,0,1,0,9.3V4.5A4.481,4.481,0,0,1,4.5,0H62.2a4.481,4.481,0,0,1,4.5,4.5V9.3A4.481,4.481,0,0,1,62.2,13.8Z" transform="translate(84.6 0.8)" fill="#5d21d1"/><path d="M77.8,14H4.6A4.588,4.588,0,0,1,0,9.4V4.6A4.588,4.588,0,0,1,4.6,0H77.8a4.588,4.588,0,0,1,4.6,4.6V9.4A4.526,4.526,0,0,1,77.8,14Z" transform="translate(122 22.1)" fill="#fe7624"/></g></g><g transform="translate(399 89)"><path d="M208.8,155.668l15.3-25.6s-14.6-64.9-23.8-97.1c-8.2-28.9-27.4-36-41.7-31.9l-102,17.3c-.8-.1-1.5-.1-2.2-.2-17.9-.4-47.4,64.3-54.4,101.9,9.3-3,30.2-6.1,56.8-2.6.8-1.6,3.6-6.3,7.4-13,.4.8.9,1.5,1.3,2.2,6.3,10.5,23.4,46.1,34.9,49.7l108.5,3.4-1.3-4.2A2.745,2.745,0,0,0,208.8,155.668Z" transform="translate(11.6 132.732)" fill="#2e186a"/><g transform="translate(64)"><path d="M27.219,25.6l-3,1.9s-17.8,9.7-23.4-8.3c-4.2-13.6,8.8-17.9,15.4-19.2" transform="translate(22.681 75.5)" fill="#fff"/><path d="M18.641.057A3,3,0,1,1,19.8,5.944C9.587,7.956,3.992,12.586,6.686,21.309c1.711,5.5,4.583,8.051,8.467,8.66a16.885,16.885,0,0,0,8.012-1c.725-.253,1.389-.523,1.973-.791l.367-.173.208-.1,2.9-1.838a3,3,0,0,1,4.037.778l.1.151a3,3,0,0,1-.778,4.037l-.151.1-3,1.9-.17.1a24.616,24.616,0,0,1-3.516,1.5A22.6,22.6,0,0,1,14.224,35.9C8.047,34.928,3.337,30.744.955,23.086-1.31,15.752.546,9.825,5.558,5.677,9.028,2.806,13.61,1.048,18.641.057Z" transform="translate(19.679 72.499)" fill="#2e186a"/><path d="M70.2,15,63.4,30.1l10.1-2.2c1.1,2,14.2,30.3-17.6,37.6C35,70.3,10.9,53.3,0,37.9l17.6-3.2L32,0Z" transform="translate(21 110.4)" fill="#fff"/><path d="M51.622,72.3h0a47.487,47.487,0,0,1-14.075-2.278A65.9,65.9,0,0,1,23.636,63.75,77.234,77.234,0,0,1,10.95,54.34,73.17,73.17,0,0,1,.554,42.634a3,3,0,0,1,1.912-4.685l15.993-2.909L32.232,1.851A3,3,0,0,1,36.1.208l38.2,15a3,3,0,0,1,1.639,4.025L71.583,28.9l4.281-.931a3,3,0,0,1,3.171,1.323l.1.163a35.016,35.016,0,0,1,2.438,6.3,35.109,35.109,0,0,1,1.463,12.162,22.86,22.86,0,0,1-6.3,14.744C72.773,66.772,67,69.72,59.575,71.425A35.6,35.6,0,0,1,51.622,72.3ZM36.644,6.868,23.374,38.85a2.987,2.987,0,0,1-2.235,1.8L8.374,42.972l.24.291a70.2,70.2,0,0,0,9.353,9.2,70.5,70.5,0,0,0,10.818,7.3C36.638,64.034,44.54,66.3,51.635,66.3a29.814,29.814,0,0,0,6.077-.6l.519-.114a37.729,37.729,0,0,0,8.216-2.813,21.434,21.434,0,0,0,5.731-4.007,16.208,16.208,0,0,0,3.461-5.114,18.933,18.933,0,0,0,1.407-6.133A29.165,29.165,0,0,0,75.808,37.43c-.253-.87-.539-1.733-.851-2.566l-.2-.514-7.718,1.682a3.1,3.1,0,0,1-.658.072,2.987,2.987,0,0,1-2.46-1.315,2.945,2.945,0,0,1-.32-2.768l.064-.153,5.506-12.228Z" transform="translate(17.997 107.399)" fill="#2e186a"/><path d="M77.434,40.383c2.4,8.2,9.4,47.4-15.7,57.1s-48.6-9.8-57.5-33.9-3.3-47.6,12.4-54.1S59.834-19.317,77.434,40.383Z" transform="translate(36.166 26.817)" fill="#fff"/><path d="M51.52,106.039h0a40.463,40.463,0,0,1-14.632-2.791A48.662,48.662,0,0,1,23.606,95.4a59.778,59.778,0,0,1-11.1-12.12A69.476,69.476,0,0,1,4.414,67.672c-4.541-12.3-5.624-24.983-3.05-35.726C3.954,21.138,10.033,13.259,18.481,9.761l.548-.231c.631-.271,1.327-.586,2.188-.992L22.351,8l1.027-.5.011-.005c.92-.447,2.18-1.06,2.963-1.437l1-.477A72.974,72.974,0,0,1,37.824,1.422,31.714,31.714,0,0,1,46.846,0,26,26,0,0,1,52.91.72a25.55,25.55,0,0,1,9.064,4.2,37.211,37.211,0,0,1,8.073,8.219,69.1,69.1,0,0,1,7.1,12.477,133.324,133.324,0,0,1,6.156,16.971l.132.461a87.631,87.631,0,0,1,2.44,28.645c-.715,7.912-2.7,14.577-5.9,19.811a28.156,28.156,0,0,1-14.167,11.83A39.521,39.521,0,0,1,51.52,106.039ZM46.934,6.021a26.99,26.99,0,0,0-7.9,1.319,70.3,70.3,0,0,0-9.667,3.924l-5.227,2.53c-1.076.511-1.95.91-2.753,1.254l-.608.257a20.381,20.381,0,0,0-8.77,7.124A31.371,31.371,0,0,0,7.015,34.138c-2.062,9.414-.987,20.585,3.028,31.456A63.51,63.51,0,0,0,17.3,79.662a53.729,53.729,0,0,0,9.847,10.864,42.9,42.9,0,0,0,11.685,7A34.845,34.845,0,0,0,51.6,100.01a33.309,33.309,0,0,0,12.049-2.275c9.526-3.681,15-12.626,16.257-26.584a81.1,81.1,0,0,0-2.354-26.875l-.21-.707a127.641,127.641,0,0,0-5.564-15.315A64.072,64.072,0,0,0,65.6,17.189a32.226,32.226,0,0,0-6.756-7.127A19.406,19.406,0,0,0,46.934,6.021Z" transform="translate(33.171 23.767)" fill="#2e186a"/><path d="M1.9,1.778A17.333,17.333,0,0,0,13,.178a1.59,1.59,0,0,1,2.3,1.2c.5,3.1.4,8.5-6.4,10.1-7.1,1.7-8.6-4.5-8.9-8A1.68,1.68,0,0,1,1.9,1.778Z" transform="translate(86 97.122)" fill="#2e186a"/><path d="M1.979.18A3,3,0,0,1,5.756,1.815l.065.164,10.8,29.8a3,3,0,0,1-1.9,3.878l-.175.05-7.8,2a3,3,0,0,1-1.66-5.763l.169-.049,4.6-1.179L.18,4.023A3,3,0,0,1,1.815.245Z" transform="translate(86.299 52.999)" fill="#2e186a"/><path d="M2.783,3.607C5.874.358,9.808-1.06,14.132.885a3,3,0,0,1-2.3,5.539l-.163-.068c-1.6-.721-3.022-.209-4.539,1.385A10.7,10.7,0,0,0,6,9.161l-.143.22c-.063.1-.113.181-.149.243l-.054.1a3,3,0,0,1-5.308-2.8A15.449,15.449,0,0,1,2.783,3.607Z" transform="translate(63.399 57.179)" fill="#2e186a"/><path d="M3.063,2.878c3.548-3.009,7.772-4,11.959-1.31a3,3,0,0,1-3.088,5.141l-.157-.094c-1.562-1-3.082-.647-4.834.839A10.474,10.474,0,0,0,5.8,8.588L5.6,8.834c-.055.068-.1.122-.124.158l-.022.03a3,3,0,1,1-4.9-3.46A15.057,15.057,0,0,1,3.063,2.878Z" transform="translate(87.4 40.708)" fill="#2e186a"/><ellipse cx="2.7" cy="4.2" rx="2.7" ry="4.2" transform="translate(79.037 71.299) rotate(-11.63)" fill="#2e186a"/><ellipse cx="2.7" cy="4.2" rx="2.7" ry="4.2" transform="translate(104.539 66.213) rotate(-11.63)" fill="#2e186a"/><g transform="translate(31 40)"><path d="M19.15,50.1c-5.168,0-10-2.622-13.605-7.382A26.489,26.489,0,0,1,1.481,34.75a32.5,32.5,0,0,1,0-19.4A26.49,26.49,0,0,1,5.545,7.382C9.15,2.622,13.982,0,19.15,0s10,2.622,13.605,7.382a26.49,26.49,0,0,1,4.064,7.968,32.5,32.5,0,0,1,0,19.4,26.489,26.489,0,0,1-4.064,7.968C29.15,47.479,24.319,50.1,19.15,50.1Zm0-45.6a10.969,10.969,0,0,0-5.63,1.6,15.584,15.584,0,0,0-4.665,4.376A25.025,25.025,0,0,0,4.5,25.051,25.023,25.023,0,0,0,8.855,39.627,15.584,15.584,0,0,0,13.52,44a10.719,10.719,0,0,0,11.261,0,15.584,15.584,0,0,0,4.665-4.376A25.023,25.023,0,0,0,33.8,25.051a25.025,25.025,0,0,0-4.355-14.577A15.584,15.584,0,0,0,24.781,6.1,10.97,10.97,0,0,0,19.15,4.5Z" transform="matrix(0.986, -0.167, 0.167, 0.986, 18.637, 12.782)" fill="#fe7624"/><path d="M19.15,50.1c-5.168,0-10-2.622-13.605-7.382A26.489,26.489,0,0,1,1.481,34.75a32.5,32.5,0,0,1,0-19.4A26.49,26.49,0,0,1,5.545,7.382C9.15,2.622,13.982,0,19.15,0s10,2.622,13.605,7.382a26.49,26.49,0,0,1,4.064,7.968,32.5,32.5,0,0,1,0,19.4,26.489,26.489,0,0,1-4.064,7.968C29.15,47.479,24.319,50.1,19.15,50.1Zm0-45.6a10.969,10.969,0,0,0-5.63,1.6,15.584,15.584,0,0,0-4.665,4.376A25.025,25.025,0,0,0,4.5,25.051,25.023,25.023,0,0,0,8.855,39.627,15.584,15.584,0,0,0,13.52,44a10.719,10.719,0,0,0,11.261,0,15.584,15.584,0,0,0,4.665-4.376A25.023,25.023,0,0,0,33.8,25.051a25.025,25.025,0,0,0-4.355-14.577A15.584,15.584,0,0,0,24.781,6.1,10.97,10.97,0,0,0,19.15,4.5Z" transform="matrix(0.986, -0.167, 0.167, 0.986, 62.441, 4.38)" fill="#fe7624"/><path d="M12.246.037a2.25,2.25,0,0,1,.966,4.392l-.157.034-10.4,1.9a2.25,2.25,0,0,1-.966-4.392l.157-.034Z" transform="translate(55.25 20.95)" fill="#fe7624"/><path d="M24.931.119a2.25,2.25,0,0,1,1.59,4.207l-.15.057-23.4,7.9A2.25,2.25,0,0,1,1.38,8.076l.15-.057Z" transform="translate(-1.351 27.049)" fill="#fe7624"/></g><path d="M120.3,21.457c-19.1-39.2-52-16.9-73.9,5.4-17.1-.3-38.8,17-43.4,30.9-5.6,16.7-3.6,40.7,8,56.1,22.4,24.6,41.5,19.3,55.2,7.5-8-4.2-14.9-11-20.1-19.1-2,1-17.9,8.5-23.2-8.4-2.3-7.2.4-11.9,4.3-14.8,1.6.5,3.6.2,6.3-1,13.1-6,17.9-20.9,19.7-30.3l62.4-16.2A7.1,7.1,0,0,0,120.3,21.457Z" transform="translate(0.599 0.743)" fill="#2e186a"/></g><g transform="translate(11 248)"><path d="M140.475,13.715c-26.6-1.3-87.9-9.8-87.9-9.8l1-2.7c-22.2-2.6-40.2-.6-50.2,2-3.1,8.8-4.3,16.3-2.6,21.3,2.2,6.6,9.8,12.2,16.7,13.2,57.4,8.3,125.7,2.1,125.7,2.1l19.4-14.8C162.475,24.815,141.675,13.815,140.475,13.715Z" transform="translate(0.725 0.785)" fill="#fff"/><path d="M89.683,48.065h0c-15.957,0-31.208-.572-45.331-1.7-8.556-.683-16.733-1.584-24.3-2.678a25.164,25.164,0,0,1-11.693-5.23A22.078,22.078,0,0,1,.937,28.484,23.058,23.058,0,0,1,.23,18.459,62.937,62.937,0,0,1,3.548,5.222,3,3,0,0,1,5.622,3.315,98.49,98.49,0,0,1,19.436.868,151,151,0,0,1,35.961,0,180.9,180.9,0,0,1,56.927,1.239,3,3,0,0,1,59.574,4.4l0,.032,3.922.528,7.379.976c8.172,1.068,16.157,2.072,23.734,2.984,2.623.316,5.362.64,8.141.962l4.034.462c15.3,1.733,27.209,2.843,35.388,3.3l1.456.076.1.006c.98.082,3.285,1.134,9.486,4.329l3.705,1.921c1.189.619,2.38,1.243,3.538,1.855l3.21,1.7c.584.312,1.077.577,1.5.809l1.266.695,1.242.715c.428.254.429.284.432.411a1.073,1.073,0,0,0,.149.509l.078.169A3,3,0,0,1,167.4,30.4L148,45.2a3,3,0,0,1-1.548.6l-2.245.187-3.566.269c-3.333.239-6.882.462-10.55.663l-2.412.13C114.758,47.725,101.975,48.065,89.683,48.065ZM35.95,6A122.821,122.821,0,0,0,8.883,8.691l-.2.046-.2.609a52.367,52.367,0,0,0-2.305,9.911,17.675,17.675,0,0,0,.359,7.059l.082.253a16.137,16.137,0,0,0,5.539,7.246,19.084,19.084,0,0,0,8.745,3.934c7.436,1.075,15.484,1.962,23.921,2.635,13.959,1.114,29.049,1.679,44.85,1.679,12.96,0,26.444-.38,40.081-1.129,4.155-.228,8.147-.484,11.866-.761l1.71-.131,1.715-.14,15.04-11.474-1.594-.846c-1.091-.577-2-1.057-2.874-1.512l-2.606-1.359c-2.01-1.043-3.805-1.962-5.337-2.733l-1.586-.791c-.866-.429-1.594-.78-2.163-1.046l-.58-.265-.42-.182-1.11-.059c-7.486-.418-18.02-1.372-31.309-2.834l-4.388-.49-4.068-.465c-1.764-.2-3.354-.391-4.861-.571l-3.308-.4c-8.534-1.027-17.662-2.181-27.131-3.43l-4.06-.539L55.234,9.9l-.251-.041a3,3,0,0,1-2.407-2.967l0-.085-.886-.082C46.41,6.244,41.114,6,35.95,6Z" transform="translate(-2.277 -2.219)" fill="#2e186a"/><path d="M0,.079a155.22,155.22,0,0,1,26.9,1.5c8.3,1.3,22.3,3.4,23.7,5.3,3.3,4.4-9.3,6.7-15.3,3" transform="translate(135.4 14.521)" fill="#fff"/><path d="M29.342,1.471l1.788.271,3.462.543,3.018.486,1.65.275A94.962,94.962,0,0,1,52.36,5.89,6.916,6.916,0,0,1,56,8.087a4.924,4.924,0,0,1-.48,6.812A10.854,10.854,0,0,1,50,17.371c-4.5.855-9.776.225-13.272-1.931a3,3,0,0,1,2.991-5.2l.158.091c2.089,1.288,5.865,1.74,9,1.144q.255-.048.49-.1l.242-.06-.117-.035c-2.124-.618-5.356-1.294-9.608-2.037l-1.621-.278c-.882-.149-1.792-.3-2.769-.457l-6.045-.953A146.907,146.907,0,0,0,5.129,6.028L4.3,6.046c-.572.014-.966.028-1.163.037A3,3,0,0,1,2.687.1L2.92.087,4.15.048A153.847,153.847,0,0,1,29.342,1.471Z" transform="translate(132.4 11.513)" fill="#2e186a"/><path d="M34.2,15.9c11.7,3.1,17.8,3.6,15.3-1-1.4-2.6-21-11.6-24.8-12.6S0,0,0,0" transform="translate(131.4 13.8)" fill="#fff"/><path d="M3.01,0l.464.024L7.158.269,9.7.448C11.818.6,13.9.76,15.891.924l2.317.2c2.224.2,4.164.386,5.764.571l1.122.135a28.633,28.633,0,0,1,3.371.572l.319.09A114.509,114.509,0,0,1,41.147,7.74l1.166.562c7.4,3.6,11.729,6.133,12.823,8.165,2.379,4.378-.053,7.706-4.891,7.819-2.907.068-7.3-.761-13.813-2.487A3,3,0,1,1,37.968,16l1.046.274A79.4,79.4,0,0,0,47.508,18.1l.544.069-.363-.221-.635-.378-.747-.429c-1.681-.952-3.767-2.039-6.081-3.174l-1.251-.608A110.34,110.34,0,0,0,26.937,8.2a28.524,28.524,0,0,0-2.982-.47l-1.069-.125c-1.865-.209-4.2-.429-6.9-.655L15.4,6.9c-1.965-.162-4.032-.32-6.128-.471L5.738,6.186,2.814,5.994A3,3,0,0,1,3.01,0Z" transform="translate(128.4 10.8)" fill="#2e186a"/><path d="M9.5,0A138.46,138.46,0,0,1,23.6,5.2c6.1,2.8,9.8,5.8,9.4,7s-5,3.6-9,2.2C18.4,11.3,5.8,8.1,5.8,8.1c1.3-.3,10.1,3.3,14.9,4.9,4.8,1.5,8.7,6.2-3,5.5L0,17.9" transform="translate(141.5 22.7)" fill="#fff"/><path d="M9.63,2.129A3,3,0,0,1,13.2.084l.214.06.911.285,1.43.462q.5.165,1.041.346c2.557.858,5.116,1.782,7.514,2.74q1.878.75,3.539,1.5l.734.342c7.126,3.362,11.438,6.8,10.26,10.333-.747,2.241-3.9,4.005-7.34,4.5l-.225.03-.027.11a4.836,4.836,0,0,1-3.379,3.152l-.225.072a20.089,20.089,0,0,1-6.555.508l-.5-.027L2.9,23.9a3,3,0,0,1,.027-6H3.1l17.778.6.362.02.643.027-1.53-.542L14.82,15.986l-1.032-.373-.5-.15-1.022-.3-1.026-.293c-.671-.19-1.3-.364-1.887-.521l-1.29-.34a3,3,0,0,1,.064-5.831l.195-.041c1.2-.23,2.366.007,6.037,1.3l1.4.5.825.25c.816.251,1.624.507,2.418.768l1.179.393a57.9,57.9,0,0,1,7.67,3.1l.334.175.053.018a6.172,6.172,0,0,0,3.36-.12l.076-.025-.033-.024a36.465,36.465,0,0,0-5.8-3.322l-.474-.221c-1.006-.455-2.1-.918-3.278-1.387-2.283-.911-4.74-1.8-7.2-2.624l-1-.333-1.709-.55-.549-.171A3,3,0,0,1,9.63,2.129Z" transform="translate(138.5 19.699)" fill="#2e186a"/></g><g transform="translate(204 146)"><path d="M0,22.343s18.7-.6,30.9-7.7c7.3-4.3,16.7-10.1,17.2-12.6.9-4.7-10.7.1-12.5.7" transform="translate(106.3 17.357)" fill="#fff"/><path d="M43.978.785a16.338,16.338,0,0,1,5.733-.74c2.939.3,4.935,2.43,4.331,5.587-.7,3.482-6.127,7.238-18.633,14.6a50.514,50.514,0,0,1-10.957,4.58A89,89,0,0,1,9.8,27.773c-1.741.21-3.36.362-4.816.464l-1.32.081c-.231.012-.42.02-.563.024a3,3,0,0,1-.368-5.986L3.77,22.3q.364-.021.79-.051c1.359-.1,2.878-.237,4.516-.435a83.15,83.15,0,0,0,13.661-2.749,44.664,44.664,0,0,0,9.64-4.008l2.312-1.372c3.512-2.1,6.332-3.879,8.654-5.485q.921-.637,1.694-1.211l.57-.431-.068.019q-.833.225-1.755.521l-.893.3c-1.257.432-3.348,1.2-3.342,1.195a3,3,0,0,1-2.063-5.632l1.8-.655c.748-.268,1.591-.565,2.149-.75C42.321,1.261,43.167,1,43.978.785Z" transform="translate(103.3 14.357)" fill="#2e186a"/><path d="M115.676,23.2s10-5.2,14.4-10.5,7.4-9.4,6.6-10.5c-.8-1-6.5-.9-9.5,2.1-3.8,5.4-15.5,11.2-15.5,11.2,1.3-.2,8.9-5.4,12.6-8.9,3.7-3.4,5.4-9.8-4.8-4.7,0,0-10.8,5.8-14.9,7.4,0,0-17,2.1-22.5,7.9h0c-3.7,3.9-32.6,33.3-54.2,51.8-12.5,8.1-46.8,67.8-14.2,68.1,6.7.3,15.4-4.2,18.9-9.1l64.9-90.6c10.4-1.7,17.8-4.3,22.8-7,6.4-3.5,26.1-19.8,26.5-21.9,1-5.7-8.7-5.5-15.9,3.6" transform="translate(3.824 3.298)" fill="#fff"/><path d="M17.3,143.115c-.128,0-.255,0-.378,0l-.306-.011-.382-.006a17.854,17.854,0,0,1-10.508-3.186A14.048,14.048,0,0,1,.519,131.42l-.075-.348c-1.2-5.89.018-13.682,3.615-23.16a125.944,125.944,0,0,1,11.929-23.08C20.739,77.571,25.481,72.037,29,69.648l.066-.045.514-.44C37.952,61.954,48.189,52.479,60,41l4.206-4.1c7.958-7.806,15.9-15.816,18.69-18.76,2.307-2.432,6.137-4.436,11.709-6.125a79.376,79.376,0,0,1,8.646-2.058c.823-.151,1.631-.288,2.4-.408l.963-.142.189-.027.5-.212c1.241-.535,2.991-1.367,5.2-2.473l1.12-.564c1.263-.64,2.645-1.352,4.108-2.117l3.391-1.793A18.14,18.14,0,0,1,127.893.01c.125-.007.251-.01.373-.01a4.722,4.722,0,0,1,4.284,2.219l.117.221.217-.074a14.323,14.323,0,0,1,4.4-.737,6.154,6.154,0,0,1,4.6,1.544l.132.156.084.109a4.025,4.025,0,0,1,.745,1.634l.008.054.135-.037c.361-.1.733-.178,1.105-.245l.365-.059a10.8,10.8,0,0,1,1.58-.119,7,7,0,0,1,5.513,2.255,6.1,6.1,0,0,1,1.169,5.144c-.18.947-1.135,2.293-2.919,4.115-1.633,1.668-4.033,3.816-7.552,6.76l-1.564,1.3c-6.744,5.576-12.87,10.1-15.987,11.8-5.708,3.083-13.146,5.452-22.108,7.042l-.4.069L38.018,132.745a25.061,25.061,0,0,1-9.106,7.319A26.751,26.751,0,0,1,17.3,143.115ZM126,6.6h0l-.1.039c-.615.243-1.288.548-2,.9l-1.272.678-1.049.553c-1.481.779-2.894,1.513-4.2,2.181l-1.778.9-1.658.824c-2.343,1.154-4.068,1.943-5.272,2.413a2.971,2.971,0,0,1-.538.154l-1.149.164-.826.128c-.583.094-1.194.2-1.816.313a73.384,73.384,0,0,0-7.988,1.9c-4.424,1.342-7.57,2.9-9.1,4.513L85.778,23.8C82.292,27.4,75.12,34.612,67.612,41.964l-2.538,2.478C52.48,56.7,41.631,66.74,32.828,74.28a3.061,3.061,0,0,1-.32.239c-2.934,1.9-7.163,6.914-11.6,13.753A120.847,120.847,0,0,0,9.67,110.04c-3.144,8.282-4.3,15.141-3.345,19.834a8.289,8.289,0,0,0,3.09,5.306,11.883,11.883,0,0,0,6.93,1.915l.467.009c.165.007.335.011.5.011a20.568,20.568,0,0,0,8.68-2.3,20,20,0,0,0,6.965-5.319l.176-.239,64.9-90.6a3.022,3.022,0,0,1,1.955-1.214,93.883,93.883,0,0,0,12.444-2.846,52.5,52.5,0,0,0,9.4-3.825c2.714-1.484,8.753-5.968,15.027-11.156l1.013-.842c2.52-2.106,4.746-4.058,6.438-5.643l.507-.481c.652-.623,1.186-1.16,1.589-1.6l.3-.334L146.6,10.7a3.1,3.1,0,0,0-.5-.037,5.192,5.192,0,0,0-.753.06c-2.917.433-6.409,2.826-9.113,6.244a2.982,2.982,0,0,1-.831.725l-.136.073-.192.226a35.587,35.587,0,0,1-5.912,5.214l-.522.376c-1.778,1.268-3.755,2.54-5.878,3.78l-.815.47c-.285.162-.534.3-.761.428l-.969.527-.105.056-.048.025a3,3,0,0,1-2.768-5.323l.65-.349.675-.375c.369-.208.744-.423,1.114-.639,1.972-1.152,3.8-2.324,5.422-3.485a30.221,30.221,0,0,0,5.616-4.907l.977-1.186c1.363-1.669,2.426-3.036,3.252-4.181l.386-.545-.077.017a6.75,6.75,0,0,0-2.843,1.376l-.023.023-.046.063c-.155.208-.327.426-.511.648l-.276.324a35.571,35.571,0,0,1-6.914,5.783c-1.557,1.05-3.268,2.108-5.087,3.144l-.768.431-.189.116a13.915,13.915,0,0,1-3.388,1.644l-.129.024a3.428,3.428,0,0,1-.518.041,2.944,2.944,0,0,1-2.844-2.26,2.9,2.9,0,0,1,1.416-3.351l.82-.422.687-.363c.24-.129.49-.264.743-.4l.39-.215.336-.19.142-.091c.519-.334,1.089-.715,1.7-1.134l.36-.25a65.151,65.151,0,0,0,6.887-5.437,8.16,8.16,0,0,0,.707-.737L126,6.6Z" transform="translate(0.823 0.299)" fill="#2e186a"/></g><g transform="translate(46 91)"><ellipse cx="28.8" cy="25" rx="28.8" ry="25" transform="translate(0.29 50.846) rotate(-60.705)" fill="#2e186a"/><ellipse cx="20.8" cy="18.1" rx="20.8" ry="18.1" transform="translate(44.935 81.359) rotate(-80.166)" fill="#2e186a"/><ellipse cx="18.599" cy="16.199" rx="18.599" ry="16.199" transform="matrix(0.569, -0.823, 0.823, 0.569, 60.54, 97.935)" fill="#2e186a"/><ellipse cx="15.4" cy="13.4" rx="15.4" ry="13.4" transform="matrix(0.766, -0.643, 0.643, 0.766, 79.769, 115.934)" fill="#2e186a"/><path d="M3.969,21.384c6.7,3.5,7.7,8.3,7.2,12a1.934,1.934,0,0,0,3.2,1.7c7.6-6.9,19.3-20.2,9.7-30.9-4.5-5.1-12.7-5.7-18.8-.9C-.931,8.084-2.031,18.184,3.969,21.384Z" transform="translate(99.231 128.716)" fill="#2e186a"/><path d="M11.466,1.791A4,4,0,0,1,18.248,6.03l-.113.18-10.8,16.3A4,4,0,0,1,.553,18.271l.113-.18Z" transform="translate(45.1 41.3)" fill="#fe7624"/><path d="M15.166.752A4,4,0,0,1,20,7.12l-.169.128-13.5,9.7A4,4,0,0,1,1.5,10.58l.169-.128Z" transform="translate(66.9 70.7)" fill="#fe7624"/><path d="M6.875.392A4,4,0,0,1,10.51,7.516l-.183.094-4.6,2.2A4,4,0,0,1,2.092,2.686l.183-.094Z" transform="translate(87.699 99.699)" fill="#fe7624"/><path d="M6.812.423a4,4,0,0,1,3.759,7.059l-.182.1-4.6,2.3A4,4,0,0,1,2.03,2.82l.182-.1Z" transform="translate(101.499 124.399)" fill="#fe7624"/></g><g transform="translate(0 291)"><path d="M78.3,8.1,57.5,75.8s36.6,9,32.7,40.1L0,115.4,25.8,0Z" transform="translate(50.5 256.7)" fill="#fe7624"/><path d="M81,8.5,59.5,78.3s37.9,9.5,33.9,41.8L0,119.6,26.7,0Z" transform="translate(170.2 253.8)" fill="#fe7624"/><path d="M221.824,3.6h-62.7l-2.3-3.6-24.5,3.6h-11l-.3,1.7L13.124,21.4c-.8,2.7-27.7,50.1-2.1,83.8,10.2,13.5,46.7,17,86.8,16.3l-37.4,187.6h95.8l26.7-115.9-15.9,116.5h95.7l8.1-267.4C270.824,42.4,270.824.2,221.824,3.6Z" transform="translate(0.776 0.4)" fill="#5d21d1"/></g></g><g transform="translate(165)"><g transform="translate(62 585)"><path d="M19.8,2.6,0,112.2l.4,48.5H23.3l1.4-47.9s9.3,46.9,41.3,49,59.7-6.7,59.5-7.9c-.1-.6,1-10.1,2-19.2.9-8-6.7-15.8-14.9-15.3-12.3.7-28.5-.3-38.3-8.4C56.8,96.4,82,0,82,0Z" transform="translate(0.9 9.9)" fill="#2e186a"/><path d="M0,16.6,1.4,170.3H24.3l1.4-47.9s9.3,46.9,41.3,49,59.7-6.7,59.5-7.9c-.1-.6,1-10.1,2-19.2.9-8-6.7-15.8-14.9-15.3-12.3.7-28.5-.3-38.3-8.4C57.8,106,60,0,60,0Z" transform="translate(138.3 0.3)" fill="#2e186a"/></g><path d="M176.812,171.2l7.2-.7c21,8.5,45,2.7,66.6-10.3-2.7-2.3-7.7-8.2-7.7-11.4,0-20.8,4.5-39.7,20.5-64l-32.1,20.5s-13.5-21-25.6-43.3c-1.2-15.1-4.3-28.4-10.4-37.2-18.6-22.1-60.6-19.4-60.6-19.4L65.412.2l-.4-.2c-12.9,0-30.4,13.7-32.3,28.6-3.6,27.6,5.1,64.4,8.8,96.3-.6,3.3-1.2,5.9-1.5,7.6,0,0-72.9,101.4-21.9,152.4.3.4,80.1-.5,80.1-.5l-32,179.5,198.4,3.7s21.6-179.3,17.1-199.2C272.712,228,176.812,171.2,176.812,171.2Z" transform="translate(0.688 213.1)" fill="#fe7624"/><g transform="translate(3)"><g transform="translate(95 177)"><path d="M2.36,1.716A3,3,0,0,1,7.782,4.285,22.408,22.408,0,0,0,6.335,17.14C7.693,25.881,12.794,32,17.2,31.644l.2-.02a3,3,0,0,1,.744,5.954C9.763,38.625,2.221,29.741.409,18.077A28.333,28.333,0,0,1,2.36,1.716Z" transform="translate(-2.271 0.699)" fill="#fe7624"/><path d="M2.36,1.716A3,3,0,0,1,7.782,4.285,22.408,22.408,0,0,0,6.335,17.14C7.693,25.881,12.794,32,17.2,31.644l.2-.02a3,3,0,0,1,.744,5.954C9.763,38.625,2.221,29.741.409,18.077A28.333,28.333,0,0,1,2.36,1.716Z" transform="translate(86.029 -2.401)" fill="#fe7624"/></g><path d="M102.741,107c12.3-11.6,14.8-64.9-26-95.5-41.4-30.9-67.8,9.1-73.5,19.5s-7.7,37.3,27.4,58.2S88.741,120.2,102.741,107Z" transform="translate(0.859 0.599)" fill="#2e186a"/><path d="M30.931,31.445l-.8.6a11.625,11.625,0,0,1-15.8-1.2l-11.5-12.6a10.376,10.376,0,0,1,.9-15.1l.8-.6a11.625,11.625,0,0,1,15.8,1.2l11.5,12.6A10.376,10.376,0,0,1,30.931,31.445Z" transform="translate(95.069 96.855)" fill="#fe7624"/><ellipse cx="12" cy="12.6" rx="12" ry="12.6" transform="translate(88.502 174.079) rotate(-64.514)" fill="#fff"/><path d="M15,31.2A14.611,14.611,0,0,1,4.381,26.619,15.827,15.827,0,0,1,0,15.6,15.828,15.828,0,0,1,4.381,4.581a14.6,14.6,0,0,1,21.239,0A15.828,15.828,0,0,1,30,15.6,15.827,15.827,0,0,1,25.62,26.619,14.611,14.611,0,0,1,15,31.2ZM15,6c-4.963,0-9,4.307-9,9.6s4.037,9.6,9,9.6,9-4.306,9-9.6S19.963,6,15,6Z" transform="translate(84.503 175.496) rotate(-64.514)" fill="#2e186a"/><ellipse cx="12" cy="12.6" rx="12" ry="12.6" transform="translate(174.757 170.028) rotate(-64.514)" fill="#fff"/><path d="M15,31.2A14.611,14.611,0,0,1,4.381,26.619,15.827,15.827,0,0,1,0,15.6,15.828,15.828,0,0,1,4.381,4.581a14.6,14.6,0,0,1,21.239,0A15.828,15.828,0,0,1,30,15.6,15.827,15.827,0,0,1,25.62,26.619,14.611,14.611,0,0,1,15,31.2ZM15,6c-4.963,0-9,4.307-9,9.6s4.037,9.6,9,9.6,9-4.306,9-9.6S19.963,6,15,6Z" transform="translate(170.758 171.446) rotate(-64.514)" fill="#2e186a"/><path d="M64.8,34.9l.7,17.9,15,3.3c.8,2.4,1.8,44.6-36.7,39.3C18.5,92,6.7,69.4,0,48.7l21.4,1.5L21.5,0Z" transform="translate(91.3 169.3)" fill="#fff"/><path d="M53.282,101.871h0a50.728,50.728,0,0,1-6.879-.492,45.333,45.333,0,0,1-17.11-5.848A50.791,50.791,0,0,1,15.588,83.42,74.774,74.774,0,0,1,6.953,69.683a124.013,124.013,0,0,1-6.8-17.054,3,3,0,0,1,2.845-3.924c.072,0,.146,0,.219.008l18.2,1.275L21.5,3A2.953,2.953,0,0,1,22.43.832,3.075,3.075,0,0,1,24.517,0a2.953,2.953,0,0,1,1.868.67l43.3,34.9A3,3,0,0,1,70.8,37.788l.608,15.585,12.739,2.8a3,3,0,0,1,2.133,1.8l.068.185c.623,1.871.635,5.891.03,10.491a54.113,54.113,0,0,1-3.741,14.2A31.617,31.617,0,0,1,71.413,96.841C66.421,100.178,60.321,101.871,53.282,101.871ZM7.294,55.013h0L7.688,56.1c4.344,11.862,9.458,20.748,15.634,27.166a41.188,41.188,0,0,0,10.545,8A40.049,40.049,0,0,0,46.6,95.348l.608.086a45.015,45.015,0,0,0,6.1.441,30.666,30.666,0,0,0,8.164-1.032,22.191,22.191,0,0,0,11.81-7.853,30.108,30.108,0,0,0,3.854-6.549,45.16,45.16,0,0,0,3.39-13.716,44.407,44.407,0,0,0,.2-4.96l-.005-.2L67.858,58.736A2.992,2.992,0,0,1,65.517,56.1l-.013-.177-.647-16.537L27.49,9.266,27.4,53.212a3,3,0,0,1-3,2.994c-.07,0-.142,0-.212-.007l-16.9-1.185Z" transform="translate(88.297 166.294)" fill="#2e186a"/><ellipse cx="39.699" cy="50.998" rx="39.699" ry="50.998" transform="translate(100.431 121.09) rotate(-10.411)" fill="#fff"/><path d="M42.7,108A35.019,35.019,0,0,1,26,103.732,43.452,43.452,0,0,1,12.436,92.127a56.4,56.4,0,0,1-9.107-17.17,67.641,67.641,0,0,1,0-41.918,56.4,56.4,0,0,1,9.107-17.171A43.453,43.453,0,0,1,26,4.263a34.837,34.837,0,0,1,33.4,0A43.453,43.453,0,0,1,72.961,15.869a56.4,56.4,0,0,1,9.107,17.171,67.641,67.641,0,0,1,0,41.918,56.4,56.4,0,0,1-9.107,17.17A43.452,43.452,0,0,1,59.4,103.732,35.017,35.017,0,0,1,42.7,108Zm0-102A29.138,29.138,0,0,0,28.493,9.752,37.916,37.916,0,0,0,16.819,20.005,50.594,50.594,0,0,0,8.91,35.255a61.806,61.806,0,0,0,0,37.485,50.591,50.591,0,0,0,7.909,15.25A37.915,37.915,0,0,0,28.493,98.244a28.768,28.768,0,0,0,28.411,0A37.915,37.915,0,0,0,68.578,87.991a50.592,50.592,0,0,0,7.909-15.25,61.806,61.806,0,0,0,0-37.485,50.6,50.6,0,0,0-7.909-15.25A37.916,37.916,0,0,0,56.9,9.752,29.136,29.136,0,0,0,42.7,6Z" transform="translate(96.938 118.681) rotate(-10.411)" fill="#2e186a"/><path d="M5.426.1A3,3,0,0,1,9.048,2.058l.05.169,5.486,20.55A4.174,4.174,0,0,1,10.8,28.1l-7.677.3a3,3,0,0,1-.413-5.983l.176-.012,5.337-.211L3.3,3.775A3,3,0,0,1,5.257.153Z" transform="translate(149.3 150.799)" fill="#2e186a"/><path d="M3.688,1.9C6.977.046,10.5-.644,13.973.7A10.925,10.925,0,0,1,17.3,2.77a3,3,0,0,1-3.851,4.6L13.3,7.246A4.942,4.942,0,0,0,11.8,6.3c-1.494-.58-3.29-.229-5.167.829a11.644,11.644,0,0,0-1.253.816l-.309.24L5,8.243a3,3,0,0,1-4-4.47A15.693,15.693,0,0,1,3.688,1.9Z" transform="translate(128.3 137.692)" fill="#2e186a"/><path d="M3.7.476A15.825,15.825,0,0,1,10.242.239,10.227,10.227,0,0,1,17.659,5.7a3,3,0,0,1-5.227,2.94l-.09-.159a4.269,4.269,0,0,0-3.224-2.35,10.082,10.082,0,0,0-4.062.188l-.348.086c-.266.069-.469.131-.6.174L4.047,6.6A3,3,0,1,1,1.955.981,14.858,14.858,0,0,1,3.7.476Z" transform="translate(158.899 138.008)" fill="#2e186a"/><ellipse cx="4.5" cy="3" rx="4.5" ry="3" transform="translate(139.487 165.032) rotate(-88.136)" fill="#2e186a"/><ellipse cx="3" cy="4.5" rx="3" ry="4.5" transform="matrix(0.997, -0.072, 0.072, 0.997, 167.59, 157.43)" fill="#2e186a"/><path d="M43.422,2.473l-.1.1c-12.9,1.9-27.3,7.8-35.4,16.4-14.2,15.3-7.7,48.2,6.8,50.4,1.2.2,2.4.3,3.6.4-.1-.8-.2-1.7-.3-2.5a69.289,69.289,0,0,1-.4-9c19.8-7.4,19.7-37,19.7-39.5,4.2,3.3,9.7,9.1,8.3,15.3l43.7,2.8a64.793,64.793,0,0,1,8.2,24.9v.4c4.1-5.9,4.3-15,.9-24.6l14.8.9S126.722-11.527,43.422,2.473Z" transform="translate(90.878 99.527)" fill="#2e186a"/><g transform="translate(104 170)"><path d="M2.544.119c8.359-1.286,15,8.022,16.921,20.409,1.823,11.847-2.808,22.713-11.309,24.021a3,3,0,0,1-.3.031l-.153,0H7.5a3,3,0,0,1-.176-5.995l.105,0c4.319-.86,7.378-8.07,6.164-16.751l-.057-.39C12.077,12.05,7.57,5.625,3.63,6.027l-.173.022A3,3,0,0,1,2.544.119Z" transform="translate(87.3 -2.384)" fill="#fe7624"/><path d="M2.544.127c8.5-1.308,16.2,7.666,18.021,19.509S17.757,42.349,9.257,43.657a3,3,0,0,1-.3.031l-.153,0H8.6A3,3,0,0,1,8.424,37.7l.1,0h.013c4.311-.859,7.369-8.069,6.154-16.755l-.057-.39C13.274,11.7,8.094,5.55,3.655,6.031l-.2.026A3,3,0,0,1,2.544.127Z" transform="translate(-2.1 1.708)" fill="#fe7624"/></g><path d="M12.909,20.971c-.376,0-.753-.015-1.12-.046A10.785,10.785,0,0,1,3.4,16.047C1.335,13.016.193,8.664,0,3.11A2.959,2.959,0,0,1,.83.931,3.051,3.051,0,0,1,3.01,0a2.975,2.975,0,0,1,1.7.537l18.1,12.5a3,3,0,0,1-.127,5.02A20.824,20.824,0,0,1,19.7,19.519,18.259,18.259,0,0,1,12.909,20.971ZM6.813,9.284h0l.034.126c.961,3.5,2.739,5.312,5.435,5.535.2.016.4.024.605.024a9.617,9.617,0,0,0,1.706-.163l.167-.033L6.813,9.284Z" transform="translate(132.7 175.594)" fill="#2e186a"/></g><g transform="translate(41 262)"><path d="M10.316.931A20.14,20.14,0,0,1,22.238.875a18.661,18.661,0,0,1,2.607.911,3,3,0,0,1-2.326,5.528l-.367-.153-.188-.072c-.388-.146-.837-.294-1.338-.434a14.374,14.374,0,0,0-8.4-.036,11.753,11.753,0,0,0-6.593,5.936A3,3,0,1,1,.368,9.676,17.715,17.715,0,0,1,10.316.931Z" transform="translate(40.699 56.585)" fill="#2e186a"/><path d="M.663,10.458C9.961-1.1,19.694-2.289,27.874,3.053a19.948,19.948,0,0,1,2.582,2l.326.306c.3.291.53.533.684.71a3,3,0,0,1-4.4,4.072l-.249-.268c-.094-.1-.234-.233-.416-.4a13.981,13.981,0,0,0-1.8-1.4,11.034,11.034,0,0,0-7.486-1.91c-3.7.452-7.64,2.918-11.769,8.052A3,3,0,0,1,.663,10.458Z" transform="translate(34 47.662)" fill="#2e186a"/><g transform="translate(147 13)"><path d="M0,26.243l15.7-6S28,6.643,33.4,2.643c5.4-4.1,16.1-3.6,8.9,2.7s-8.2,10.1-8.2,10.1,18.9-5.5,29.3-12c10.6-6.6,8.3,4.7,8.3,4.7s8,1.1,4.9,5.2c0,0,6.2,3.5,0,7.1,0,0,8.7.9,3.7,6.1-3.6,7.4-28.8,21.5-44.3,20.3l-8.6,3.8-10.9,5.4" transform="translate(0.3 0.357)" fill="#fff"/><path d="M34.587,3.255A16.5,16.5,0,0,1,46.059.133c5.632.92,6.151,5.987,1.432,10.277l-.215.192q-.967.846-1.8,1.649l-.48.465.92-.324c2.287-.817,4.544-1.672,6.722-2.556l1.3-.534A80.04,80.04,0,0,0,64.362,4.176l.453-.279c3.727-2.32,6.742-3.1,9.238-2.108,2.374.939,3.487,3.042,3.781,5.632q.056.491.071.984l.006.421.295.1.353.127a7.766,7.766,0,0,1,3.869,2.725,4.815,4.815,0,0,1,.839,3.473l-.026.149A6.49,6.49,0,0,1,85.35,19.72l.007.284a5.458,5.458,0,0,1-.34,1.908l-.044.11.122.072a5.747,5.747,0,0,1,2.211,2.318l.12.252c.953,2.143.3,4.392-1.56,6.521l-.092.1-.084.153C80.329,40.845,54.78,53.464,39.7,52.888l-.148-.007-7.882,3.483L20.833,61.732a3,3,0,0,1-3.934-1.2l-.086-.161a3,3,0,0,1,1.2-3.934l.161-.086,10.9-5.4.119-.056,8.6-3.8a3,3,0,0,1,1.444-.247c6.522.5,15.85-2.069,25.05-6.623,8.225-4.071,14.916-9.112,16.321-12a3,3,0,0,1,.535-.767q.135-.141.244-.265l.16-.194-.166-.069-.164-.062a9.016,9.016,0,0,0-1.347-.356l-.36-.062-.213-.029a3,3,0,0,1-1.35-5.484l.153-.094a5.281,5.281,0,0,0,1.114-.812l.066-.073-.065-.086c-.052-.065-.113-.134-.183-.206l-.111-.109a4.947,4.947,0,0,0-.726-.569l-.064-.038A3,3,0,0,1,76.917,15l.059-.111-.1-.046-.269-.115-.15-.058a11.064,11.064,0,0,0-1.512-.434l-.248-.051c-.188-.037-.329-.061-.4-.071a3,3,0,0,1-2.561-3.4l.058-.337c.012-.077.026-.175.041-.292A8.691,8.691,0,0,0,71.872,8.1a3.367,3.367,0,0,0-.137-.674l-.022-.055H71.7a3.066,3.066,0,0,0-.393.068l-.141.034A11.522,11.522,0,0,0,68.29,8.8l-.3.183a82.937,82.937,0,0,1-11.748,5.85c-4.01,1.675-8.292,3.247-12.573,4.674l-1.256.414c-.819.267-1.6.517-2.337.747l-1.711.525-.426.126A3,3,0,0,1,34.2,17.681,13.111,13.111,0,0,1,36,14.1a40.487,40.487,0,0,1,6.876-7.617l.484-.428-.129.016a11.6,11.6,0,0,0-4.8,1.8l-.248.18a70.675,70.675,0,0,0-6.58,5.979l-.685.684Q30.3,15.34,29.655,16C28,17.684,26.291,19.474,24.6,21.281l-1.362,1.461-2.309,2.514a3,3,0,0,1-.968.712l-.186.078-15.7,6a3,3,0,0,1-2.3-5.537l.163-.068L16.962,20.7l1.53-1.662.7-.754c2.054-2.209,4.154-4.418,6.181-6.484l.872-.884.428-.431A80.632,80.632,0,0,1,34.587,3.255Z" transform="translate(-2.701 -2.644)" fill="#2e186a"/><path d="M0,11.1S19.2,6.4,25.6,0" transform="translate(46.4 8.5)" fill="#fff"/><path d="M26.479.879a3,3,0,1,1,4.243,4.243c-2.669,2.669-7.064,5.072-12.793,7.34C14.812,13.7,11.49,14.809,8.17,15.789l-1.132.329q-.827.236-1.583.441l-1.609.422-.132.033a3,3,0,0,1-1.6-5.781l1.3-.339.955-.259c.659-.182,1.362-.382,2.1-.6,3.16-.933,6.318-1.992,9.249-3.152C20.743,4.894,24.54,2.818,26.479.879Z" transform="translate(43.399 5.5)" fill="#2e186a"/><path d="M0,13.1C2.1,12.2,17.4,9.4,27.1,0" transform="translate(48.9 13)" fill="#fff"/><path d="M28.013.846a3,3,0,0,1,4.175,4.309,43.527,43.527,0,0,1-10.37,7.277A70.692,70.692,0,0,1,10.17,17.111l-1.359.407c-1.929.565-4.5,1.284-4.629,1.339a3,3,0,1,1-2.364-5.515c.6-.256,5.227-1.544,6.57-1.961A64.877,64.877,0,0,0,19.06,7.1,37.639,37.639,0,0,0,28.013.846Z" transform="translate(45.899 10)" fill="#2e186a"/><path d="M0,11.7C4.3,9.9,13.9,10.4,25.6,0" transform="translate(51.4 21.3)" fill="#fff"/><path d="M6.39,16.822l-.281.066-.509.126c-.474.122-.85.233-1.156.344l-.285.11a3,3,0,0,1-2.317-5.535,16.841,16.841,0,0,1,2.488-.787l.937-.22c.758-.167,3.177-.7,4.047-.921a41.107,41.107,0,0,0,5.01-1.566A40.055,40.055,0,0,0,26.608.758a3,3,0,0,1,3.986,4.484,46.034,46.034,0,0,1-14.1,8.792,45.917,45.917,0,0,1-4.981,1.6l-.746.191C9.618,16.113,6.231,16.858,6.39,16.822Z" transform="translate(48.399 18.3)" fill="#2e186a"/></g><path d="M55.156.095a3,3,0,0,1,3.651,2.161q.729,2.843,1.4,5.8a329.337,329.337,0,0,1,6.022,36.55c.448,4.02.8,7.776,1.079,11.187l.135,1.747,77.964-21.237a3,3,0,0,1,3.291,1.24l.1.157,17.1,29.7a3,3,0,0,1-1.3,4.2l-4.766,2.321q-4.062,1.987-9.468,4.657l-6.651,3.295q-14.4,7.151-32.966,16.516l-8.675,4.383c-22.18,11.111-40.412,17.167-56.5,17.288-21.387.162-37.011-10.65-45.4-34.154a3,3,0,0,1,5.651-2.017c7.525,21.088,20.856,30.313,39.7,30.171C60.483,113.95,77.97,108.14,99.4,97.405l14.184-7.161q14.148-7.126,25.7-12.867l9.14-4.529q4.973-2.456,8.773-4.314l1.893-.926L144.756,42.7,65.489,64.3a3,3,0,0,1-3.77-2.559l-.019-.259-.114-1.808q-.053-.771-.118-1.653l-.069-.908c-.278-3.569-.65-7.548-1.127-11.835A323.5,323.5,0,0,0,54.363,9.4Q53.7,6.513,52.995,3.745A3,3,0,0,1,55.156.095Z" transform="translate(0.199 0.499)" fill="#2e186a"/></g></g><g transform="translate(793 72)"><g transform="translate(0 329)"><g transform="translate(0 258)"><path d="M122.4,0V94.6H0S-.4,59.9,56,53.5V3Z" transform="translate(101.8)" fill="#2e186a"/><path d="M122.4,0V94.6H0S-.4,59.9,56,53.5V3Z" transform="translate(0.7)" fill="#2e186a"/></g><g transform="translate(42)"><path d="M117.3,12.6,24,73.7C13,85.8,6.6,102.1,6,119.3L0,288.1H77s106.5,1.9,106.5-5.8c0-6.2,6.3-119,8.8-163.6a19.916,19.916,0,0,1,18.9-18.8c18.2-.9,45.2-2.2,57.1-2.5,93.2-3.2,68.3-41.7,57.3-69.1C321.3,17.7,317.2,7.7,314,0" transform="translate(0.6 0.2)" fill="#fff"/><path d="M315.848.23a3,3,0,0,1,3.922,1.619l3.616,8.748c2.462,5.984,5.2,12.678,8,19.586l.481,1.184c.223.542.459,1.11.715,1.72l2.563,6.008c2.2,5.167,3.577,8.619,4.775,12.185,4.964,14.777,4.412,25.931-4.1,34.779-9.978,10.373-30.577,16.178-64.443,17.34l-3.476.1c-10.649.342-28.934,1.179-53.552,2.4a16.914,16.914,0,0,0-16.052,15.971L194.863,183.4c-3.276,59.13-5.364,98.222-5.364,101.9,0,1.87-1.126,3.112-2.8,3.991a17.659,17.659,0,0,1-4.087,1.389,92.513,92.513,0,0,1-11.847,1.7l-.634.058c-9.239.837-21.783,1.369-36.825,1.645-13.732.251-28.3.273-42.134.15l-8.589-.1L80,294.1H3a3,3,0,0,1-3-2.932v-.175L6,122.2c.626-17.934,7.315-34.9,18.778-47.513A3,3,0,0,1,25.2,74.3l.156-.109,93.3-61.1a3,3,0,0,1,3.437,4.915l-.15.1L28.968,79l-.209.235C18.7,90.548,12.745,105.654,12.026,121.678l-.029.729L6.107,288.1l74.134,0,6.853.093.7.008c14.791.158,30.593.155,45.4-.116l3.833-.077c12.583-.276,23.224-.747,31.36-1.439l1.2-.105a94.351,94.351,0,0,0,11.338-1.556l.311-.071a17.528,17.528,0,0,0,2.075-.6l.212-.084.075-1.99c.456-11.11,2.461-48.378,5.429-101.9l3.277-58.741A22.916,22.916,0,0,1,214.051,99.9l18.808-.914c17.826-.847,30.856-1.4,38.337-1.588,32.417-1.113,51.676-6.54,60.3-15.5,6.622-6.884,7.064-15.825,2.736-28.709l-.266-.78c-.9-2.6-1.938-5.254-3.406-8.754l-3.312-7.775c-.409-.97-.769-1.834-1.1-2.651l-5.013-12.317c-2.526-6.18-4.886-11.911-6.9-16.761A3,3,0,0,1,315.848.23Z" transform="translate(-2.399 -2.801)" fill="#2e186a"/><path d="M129.152.229A3,3,0,0,1,131.607,5.7l-.161.072L24.575,49.978l-.091.058C17.706,54.386,14.272,64.09,12.908,79.513l-.159,1.918c-.195,2.5-.317,4.711-.473,8.47L12,97,6,285.5a3,3,0,0,1-6-.015v-.176L6,96.779l.312-7.912c.17-3.975.308-6.221.56-9.219,1.493-17.788,5.535-29.262,14.759-34.907a3,3,0,0,1,.276-.15l.143-.064Z" transform="translate(83.201 2.899)" fill="#2e186a"/></g></g><path d="M274.48,156.728c-27.7-165.2-72.9-141.9-95.9-141.1l-52.4,2.1a18.321,18.321,0,0,0-.2-2.1c-.4-1.9-2.5-3.4-5.1-4.7v-.1c6.7-1.7,19.5-5.4,19.4-8.3-.2-4.1-25.8-2.1-33.7-1.6-4,.2-11.8,2.6-18.4,4.9a32.555,32.555,0,0,0-19.3,17.6c-1.4,3.2-5.7,14.1-7,17.2l-16.6-7.5s-31.7,72.4-39,91.2a72.141,72.141,0,0,0-2.1,7.2c-15.5,46.4,17.1,70.5,17.1,70.5l159.3,1.6-18.5,15.7c-2.7,3.1,86.9-3.9,90-3.5,1.6.2-6.5-12.1-14.7-24.1C256.78,183.828,275.68,172.028,274.48,156.728Z" transform="translate(108.32 108.572)" fill="#5d21d1"/><g transform="translate(169 158)"><path d="M.2,2.65a3,3,0,1,1,5.959.7c-.646,5.491.706,13.068,3.734,22.119,1.624,4.855,3.686,10,6.083,15.319,2.211,4.9,4.581,9.672,6.952,14.118l.61,1.137q.3.554.586,1.078l.4.73.492-.3c11.568-6.946,22.2-8.295,31-6.205l.4.1a18.651,18.651,0,0,1,3.121,1.031,3,3,0,0,1-2.357,5.515l-.3-.125c-.071-.028-.168-.065-.291-.109-.455-.164-1-.332-1.638-.492-8.083-2.029-18.265-.54-29.787,7.313a3,3,0,0,1-4.179-.8l-.218-.362-.641-1.123-.694-1.241c-.562-1.013-1.166-2.123-1.8-3.32-2.429-4.556-4.858-9.443-7.127-14.474A170.847,170.847,0,0,1,4.2,27.373C.919,17.558-.572,9.206.2,2.65Z" transform="translate(118.321 20.8)" fill="#2e186a"/><path d="M85.229,1.755a3,3,0,0,1-1.324,3.9l-1.051.486L22.036,33.979c-10.166,4.672-16.45,7.58-17.485,8.1l-.114.059a3,3,0,0,1-3.031-5.175l.158-.092c.895-.488,11.325-5.3,29.444-13.608L64.83,7.777,81.254.272A3,3,0,0,1,85.229,1.755Z" transform="translate(59.899 80.099)" fill="#2e186a"/><path d="M21.457,1.788A3,3,0,0,1,25.251.19l.163.067,9.5,4.2a3,3,0,0,1,1.671,3.571L36.53,8.2l-30.7,87A3,3,0,0,1,.118,93.37L.172,93.2,29.947,8.821,22.988,5.745a3,3,0,0,1-1.6-3.794Z" transform="translate(-2.301 -3.001)" fill="#2e186a"/></g><g transform="translate(194)"><path d="M58.4,46.7,40.1,0,0,25.5,4.9,48.1l-1.3,48Z" transform="translate(31.9 85.3)" fill="#fff"/><path d="M6.619,102.107h0a3.071,3.071,0,0,1-2.187-.926A2.955,2.955,0,0,1,3.6,99.02L4.892,51.382.068,29.137a3,3,0,0,1,1.159-3.055l.163-.112L41.49.47a3,3,0,0,1,4.4,1.436l18.3,46.7a3.015,3.015,0,0,1-.785,3.323l-54.8,49.4A2.934,2.934,0,0,1,6.619,102.107ZM41.635,7.487,6.374,29.909l4.459,20.557a3.145,3.145,0,0,1,.064.476l0,.24L9.788,92.188,57.849,48.862Z" transform="translate(28.9 82.299)" fill="#2e186a"/><path d="M16,.764s33.9,21.6,17.3,41.7c0,0-7.4,8.4-13.5,6.7,0,0,4.5-7.1-.6-10.9,0,0-1.7,21.4-19.2,17,0,0,6.5-9.5,4.8-20.8C1.3,10.664,6.8-3.536,16,.764Z" transform="translate(0 33.336)" fill="#2e186a"/><path d="M75.463,50.063s6.8-41.8-35.5-49.3c-3.9-.7-31-4.9-36.1,17.5-3.4,15-4.1,31.2-3.8,43.9,0,.1.2,23.9,9.5,37.2s30.2,12.2,41.2,5.8c11.1-6.4,13.1-9.8,16.3-17.5s8.4-37.5,8.4-37.6Z" transform="translate(10.937 18.337)" fill="#fff"/><path d="M35.382,115.758h0c-1.035,0-2.072-.039-3.08-.115a33.418,33.418,0,0,1-12.768-3.422,25.526,25.526,0,0,1-9.427-8.138C6.083,98.329,3.18,90.225,1.48,80,.943,76.769.545,73.423.3,70.053.216,68.947.153,67.866.112,66.84c-.016-.4-.027-.725-.034-1l-.039-1.9A214.434,214.434,0,0,1,.763,41.56,156.968,156.968,0,0,1,3.938,20.6l.109-.462A24.7,24.7,0,0,1,11.441,7.283,28.259,28.259,0,0,1,24.746.916,45.306,45.306,0,0,1,34.047,0C34.86,0,35.7.019,36.53.057A53.008,53.008,0,0,1,43.488.81l.6.11c8.566,1.6,15.828,4.677,21.584,9.152A39.824,39.824,0,0,1,78.132,26.706a53.5,53.5,0,0,1,3.522,24.913c-.1,1.082-.192,1.709-.228,1.928l-.026.272c-.327,2.643-1.813,10.393-3.456,18.029a190.6,190.6,0,0,1-4.862,19.331l-.169.446-.077.192c-1.725,4.15-3.406,7.51-6.006,10.421-2.325,2.6-5.4,4.911-10.606,7.968l-.95.553A40.676,40.676,0,0,1,35.382,115.758ZM34.052,6a39.325,39.325,0,0,0-8.07.787,22.262,22.262,0,0,0-10.563,5,17.3,17.3,0,0,0-3.471,4.378A21.61,21.61,0,0,0,9.789,21.93l-.241,1.088C6.906,35.189,5.7,49.751,6.064,65.132l0,.211c0,.243.011.5.021.768l.062,1.428c.019.359.038.688.058,1.007l.073,1.068c.234,3.182.61,6.344,1.118,9.4a74.983,74.983,0,0,0,2.991,12.17,38.648,38.648,0,0,0,4.633,9.462,18.383,18.383,0,0,0,3.889,4.034,22.555,22.555,0,0,0,4.976,2.862,30.859,30.859,0,0,0,11.887,2.271,33.234,33.234,0,0,0,16.491-4.248c5.03-2.9,7.637-4.748,9.618-6.816a26.5,26.5,0,0,0,5.1-8.489l.387-.926c1.234-3.081,3.018-10.313,5.157-20.914l.37-1.85c.584-2.942,1.175-6.042,1.758-9.214l.088-.483.633-3.523.067-.291c.012-.04.017-.04.018-.04s0,.005.005.016v.029a2.994,2.994,0,0,1,.04-.481l.074-.554c.036-.3.07-.621.1-.957l.051-.6a47.429,47.429,0,0,0-3.151-21.489,35.878,35.878,0,0,0-4.466-7.948A32.924,32.924,0,0,0,61.7,14.579a37.828,37.828,0,0,0-8.511-4.817A52.35,52.35,0,0,0,42.434,6.717a47.223,47.223,0,0,0-6.173-.666C35.518,6.017,34.775,6,34.052,6Z" transform="translate(7.935 15.336)" fill="#2e186a"/><path d="M4.366,2.385a3,3,0,0,1,5.9,1.058l-.031.174L6.833,19.849l3.2-.51a3,3,0,0,1,3.4,2.315l.033.173a3,3,0,0,1-2.315,3.4l-.173.033-7.5,1.2A3,3,0,0,1,.035,23.056l.031-.171Z" transform="translate(21.198 68.299)" fill="#2e186a"/><ellipse cx="3.3" cy="2.1" rx="3.3" ry="2.1" transform="matrix(0.093, -0.996, 0.996, 0.093, 16.531, 72.66)" fill="#2e186a"/><ellipse cx="2.1" cy="3.3" rx="2.1" ry="3.3" transform="translate(36.796 68.817) rotate(-5.439)" fill="#2e186a"/><path d="M2.658.092a12.483,12.483,0,0,1,9.324,2.576,13.026,13.026,0,0,1,1.91,1.819,9.1,9.1,0,0,1,.736.971A3,3,0,0,1,9.674,8.838l-.1-.151A6.014,6.014,0,0,0,8.3,7.406,6.484,6.484,0,0,0,3.671,6.022l-.329.031A3,3,0,0,1,2.658.092Z" transform="translate(39.2 50.127)" fill="#2e186a"/><path d="M7.3.029A15.363,15.363,0,0,1,12.8.746a16.344,16.344,0,0,1,2.07.767A3,3,0,0,1,12.5,7.024l-.344-.149c-.245-.1-.627-.243-1.1-.388a9.636,9.636,0,0,0-3.342-.472,2.908,2.908,0,0,0-2.183.951l-.11.14A3,3,0,0,1,.581,3.558,8.74,8.74,0,0,1,7.3.029Z" transform="translate(10 47.268)" fill="#2e186a"/><path d="M3.591,5.028s-16.4,56,20.9,62c0,0,21.7,4,26.7-3.6,0,0-15.7-8.5-13.6-17.4,0,0,17.6,19.5,33.1,5.7,0,0-25.7-4.5-23.2-27.6C49.091,7.428,9.391-8.372,3.591,5.028Z" transform="translate(49.809 31.972)" fill="#2e186a"/><path d="M115.8,45.323l-22.7-3.6c-2.2-15.3-11-37.3-42.3-41.2-49-6-50.8,41.6-50.8,41.6l113.5,17.8a7.5,7.5,0,0,0,8.5-6.2A7.351,7.351,0,0,0,115.8,45.323Z" transform="translate(5.7 0.077)" fill="#fe7624"/><path d="M13.659,1.782a3,3,0,0,1,5.483,2.437,9.357,9.357,0,0,1-.773,1.354,13.439,13.439,0,0,1-2.235,2.55c-3.29,2.925-7.86,4.3-13.627,3.337a3,3,0,0,1,.986-5.918c3.952.659,6.7-.168,8.654-1.9a7.47,7.47,0,0,0,1.24-1.41l.175-.273c.043-.072.072-.124.087-.153Z" transform="translate(30.3 92.599)" fill="#2e186a"/></g><g transform="translate(164 106)"><path d="M0,40.489c.5-1.3,1-2.5,1.4-3.7,2.1-5.5,3.9-9.9,5.5-13.4a32.555,32.555,0,0,1,19.3-17.6c6.6-2.3,14.3-4.6,18.4-4.9,7.9-.5,33.5-2.4,33.7,1.6.2,2.9-12.7,6.6-19.4,8.3l-5.3,20.4s-6.2.7-9.3,2.4c-6.3,3.4-12.5,9.1-17.1,8.6,0,0-.3,3.3-1.3,8.9" transform="translate(0.3 0.811)" fill="#fff"/><path d="M63.221.072,64.553.04a97.59,97.59,0,0,1,11.359.28,20.787,20.787,0,0,1,4.8.94c2.049.735,3.482,1.96,3.585,4.025.152,2.208-1.185,3.681-3.44,5.052A33.8,33.8,0,0,1,75.233,12.9c-2.948,1.1-6.487,2.175-10.193,3.169l-.68.181L59.5,34.944a3,3,0,0,1-2.374,2.2l-.193.028-.413.052-.557.078c-.2.029-.4.06-.612.095-1.207.195-2.411.435-3.517.721a14.3,14.3,0,0,0-3.114,1.113l-.486.267c-.975.544-1.987,1.164-3.306,2.015l-4.147,2.7a35.986,35.986,0,0,1-3.6,2.121,18.11,18.11,0,0,1-3.995,1.583l-.3.067-.063.482c-.2,1.457-.443,3.065-.741,4.812l-.233,1.336a3,3,0,0,1-5.907-1.055l.224-1.285c.286-1.68.522-3.221.711-4.613l.069-.515q.076-.582.135-1.073l.127-1.159a3,3,0,0,1,3.134-2.725l.368.03c1.632.087,3.65-.973,9.528-4.816l1.111-.726c1.83-1.187,3.14-1.986,4.5-2.722a19.627,19.627,0,0,1,4.482-1.652c1.044-.269,2.136-.5,3.235-.695l.623-.106L59,13.035a3,3,0,0,1,1.981-2.1l.185-.053,1.538-.4C66.528,9.477,70.2,8.373,73.144,7.278c.8-.3,1.533-.589,2.189-.872l.211-.093-.234-.024-.753-.069A103.765,103.765,0,0,0,64,6.054l-.614.016c-2.626.072-5.39.2-8.4.366l-2.924.174-4.241.272c-3.17.232-9.474,1.942-16.653,4.4l-1.007.348A29.565,29.565,0,0,0,12.827,27.2l-.574,1.265C10.986,31.3,9.572,34.733,7.948,38.923L7.226,40.8l-.065.194c-.117.341-.243.69-.39,1.079l-.97,2.5A3,3,0,0,1,.2,42.413l.74-1.9.3-.792c.059-.161.114-.312.166-.459l.146-.426L1.6,38.72l.76-1.977c1.824-4.706,3.4-8.5,4.8-11.575A35.546,35.546,0,0,1,27.723,6.127l1.609-.556C36.924,2.971,43.555,1.178,47.411.9L52.18.591,53.619.5,55.663.389C58.339.245,60.831.138,63.221.072Z" transform="translate(-2.701 -2.19)" fill="#2e186a"/><path d="M0,0S18.5,2.3,19.9,8.6,16,15.2,16,15.2" transform="translate(44.3 7.9)" fill="#fff"/><path d="M.023,2.63A3,3,0,0,1,3.37.023l.93.13.893.139c.464.075.954.159,1.465.252a68.77,68.77,0,0,1,7.186,1.682l.811.247C20.915,4.43,24.942,6.957,25.829,10.95c.95,4.276-.38,7.488-3.24,9.17a8.051,8.051,0,0,1-2.26.9,6.939,6.939,0,0,1-1.16.179,3,3,0,0,1-.515-5.975l.176-.018c.02,0,.066-.013.132-.028a2.128,2.128,0,0,0,.584-.226c.58-.341.82-.92.425-2.7-.258-1.163-3.184-2.895-7.832-4.273A62.931,62.931,0,0,0,5.586,6.448l-.916-.16-.435-.072L2.874,6.01,2.63,5.977A3,3,0,0,1,.023,2.63Z" transform="translate(41.3 4.9)" fill="#2e186a"/><path d="M0,0S16.3,3.5,17.2,9.8s-4.3,6.3-4.3,6.3" transform="translate(43.6 15.3)" fill="#fff"/><path d="M.067,2.371A3,3,0,0,1,3.63.067l.661.152.934.232c.4.1.83.218,1.275.342A58,58,0,0,1,12.752,2.9c5.984,2.437,9.827,5.329,10.419,9.473s-.827,7.181-3.607,8.731a7.933,7.933,0,0,1-2.427.866A6.923,6.923,0,0,1,15.9,22.1a3,3,0,0,1-.176-5.995L15.9,16.1c-.036,0,.025,0,.14-.026a2.013,2.013,0,0,0,.6-.208c.561-.313.837-.9.589-2.642-.176-1.233-2.659-3.1-6.743-4.765a52.147,52.147,0,0,0-5.6-1.887L4.106,6.36q-.378-.1-.729-.187l-.8-.193-.2-.046A3,3,0,0,1,.067,2.371Z" transform="translate(40.599 12.299)" fill="#2e186a"/><path d="M.856,0s19.6,4.5,12.1,11.4-11.3,6.1-11.3,6.1-5.4-3.4,3.3-8.7" transform="translate(41.644 24.5)" fill="#fff"/><path d="M.978,2.329A3,3,0,0,1,4.573.077L5.04.189C5.516.308,6.149.477,6.9.7a49.375,49.375,0,0,1,5.057,1.756c3.227,1.337,5.695,2.84,7.208,4.718,2.387,2.963,2.028,6.534-1.13,9.439-5.846,5.379-10.4,7.221-13.545,6.89a4.02,4.02,0,0,1-.4-.062,3,3,0,0,1-.98-.4,6.732,6.732,0,0,1-1.52-1.352C-1.51,18.031-.163,13.262,6.441,9.239a3,3,0,0,1,3.122,5.124,13.391,13.391,0,0,0-2.814,2.159,3.909,3.909,0,0,0-.573.756l-.034.065.094-.028q.162-.052.346-.118l.391-.15a23.892,23.892,0,0,0,6.64-4.527l.607-.556c.589-.55.594-.622.324-.962l-.054-.067A13.235,13.235,0,0,0,9.659,8,43.521,43.521,0,0,0,5.221,6.456c-.4-.117-.779-.221-1.129-.314L3.23,5.925A3,3,0,0,1,.978,2.329Z" transform="translate(38.598 21.499)" fill="#2e186a"/></g><g transform="translate(173 275)"><path d="M31.9,0c-3.1.6-6.5,1.2-10.1,1.9C20.6,2.1,0,15.2,0,15.2L21.2,28.9s1.5,1.5,33.6-.5C52.6,20.4,40.6,8.1,31.9,0Z" transform="translate(28.2 2.9)" fill="#fff"/><path d="M32.145,35.45a66.125,66.125,0,0,1-6.836-.268l-.581-.075a4.776,4.776,0,0,1-2.243-.74l-.037-.029L1.372,20.72A2.959,2.959,0,0,1,0,18.285a2.992,2.992,0,0,1,1.227-2.5l.163-.112,4.352-2.752c1.022-.645,2.087-1.314,3.164-1.99L11.987,9l3.281-2.036c6.048-3.738,8.057-4.862,8.959-5.011l10.1-1.9.2-.032A3,3,0,0,1,36.944.8,170.926,170.926,0,0,1,52.828,17.34c4.23,5.205,6.876,9.668,7.865,13.264a3,3,0,0,1-2.705,3.79c-11.227.7-19.921,1.054-25.841,1.054h0ZM33.961,6.23,25.647,7.791l-.3.157-.5.274c-.432.242-.973.556-1.652.958l-1.969,1.18c-1.541.933-3.411,2.083-5.717,3.516l-3.419,2.136L8.568,18.226,25.475,29.152l.3.042a55.354,55.354,0,0,0,6.313.258c4.526,0,10.822-.218,18.713-.647l2.606-.148-.232-.418C50.1,22.823,43.584,15.33,34.319,6.569l-.358-.339Z" transform="translate(25.2 -0.1)" fill="#2e186a"/><path d="M52.062,0a152.388,152.388,0,0,0-27.6,3.8c-8.4,2-22.7,5.4-24,7.4-3.1,4.9,10.2,6.1,16,1.8" transform="translate(3.938 4.4)" fill="#fff"/><path d="M58.055,2.911a3,3,0,0,1-2.734,3.077l-.74.033c-.384.017-.818.039-1.3.067l-.371.022c-1.818.111-3.855.274-6.06.5a144.3,144.3,0,0,0-17.4,2.8l-5.613,1.338c-1.746.422-3.113.761-4.657,1.153l-1.342.344q-2.3.594-4.228,1.138l-.972.278c-1.892.548-3.467,1.052-4.694,1.507l-.606.231.144.028c.217.04.449.076.695.107l.25.028c3.2.327,6.929-.408,9.02-1.816l.225-.159a3,3,0,0,1,3.573,4.82c-3.368,2.5-8.737,3.6-13.43,3.124a11.067,11.067,0,0,1-5.875-2.055,5.02,5.02,0,0,1-1-6.914C2.1,10.779,5.045,9.6,11.13,7.854l.849-.241q2-.564,4.348-1.171l3.089-.784c1.98-.493,4.005-.981,7.337-1.774A147.959,147.959,0,0,1,46.239.641C48.275.433,50.174.275,51.9.162l.64-.041C53.211.081,53.8.049,54.316.027L54.968,0A3,3,0,0,1,58.055,2.911Z" transform="translate(0.943 1.4)" fill="#2e186a"/><path d="M16.334,19.2c-11.8,4.2-18.1,5.2-15.9.3,1.3-2.8,20.7-13.7,24.5-15,3.9-1.4,25.3-4.5,25.3-4.5" transform="translate(9.866 3.4)" fill="#fff"/><path d="M56.2,2.57a3,3,0,0,1-2.365,3.369l-4.2.631-2.586.4c-1.718.267-3.416.537-5.058.806l-1.22.2q-1.4.233-2.686.456l-1.442.253A73.864,73.864,0,0,0,29.006,10.3l-.106.037a115.7,115.7,0,0,0-12.634,6.683l-1.055.627C12.959,19,10.946,20.273,9.348,21.37l-.361.25q-.658.458-1.2.86l-.073.055.079-.014a74.684,74.684,0,0,0,10.017-2.967l.51-.181a3,3,0,1,1,2.012,5.653L18.7,25.6c-5.648,1.952-9.644,3-12.4,3.158-4.931.289-7.692-2.853-5.6-7.521.927-2,4.772-4.758,11.215-8.614l1.294-.769A118.007,118.007,0,0,1,26.769,4.729l.147-.052a63.39,63.39,0,0,1,8.147-1.806l1.349-.24q.955-.167,1.979-.341l1.393-.234c2.035-.338,4.172-.681,6.338-1.017L49.257.558,52.8.031A3,3,0,0,1,56.2,2.57Z" transform="translate(6.871 0.4)" fill="#2e186a"/><path d="M23.247,0a133.591,133.591,0,0,0-14.1,6.5c-6.1,3.4-9.6,6.8-9.1,8s5.4,3.3,9.4,1.5c5.5-3.7,18.3-8,18.3-8-1.4-.2-10.1,4.3-15,6.3-4.8,2-8.4,7.1,3.6,5.4l18.2-2.1" transform="translate(17.353 14.1)" fill="#fff"/><path d="M29.052,1.917A3,3,0,0,1,27.338,5.8l-.862.342L25.6,6.5c-.456.187-.939.388-1.443.6-2.4,1.013-4.8,2.093-7.025,3.19-1.271.625-2.449,1.239-3.516,1.833a38,38,0,0,0-6.2,4.19l-.189.167.24.056a6.33,6.33,0,0,0,3.528-.172l.045-.02.123-.08q.778-.5,1.708-1.018l.473-.26c1.656-.895,3.627-1.823,5.851-2.775,1.55-.664,3.169-1.316,4.811-1.947l.267-.1,1.6-.718c3.151-1.391,4-1.571,5.13-1.434l.176.023a3,3,0,0,1,.707,5.749l-1.035.36c-.417.146-.864.3-1.335.473l-.974.354q-.512.188-1.022.379l-.862.324-2.119.97-4.377,2.014c-.856.388-1.55.7-2.177.966l-.745.313.049,0q.632-.061,1.354-.157l.367-.05,18.2-2.1a3,3,0,0,1,.862,5.935l-.175.025-18.123,2.09a22.179,22.179,0,0,1-7.343.119,5.012,5.012,0,0,1-3.918-2.907l-.077-.226H8.4c-3.557-.147-6.979-1.636-8.035-3.823l-.08-.179c-1.492-3.58,3-7.647,10.409-11.774,1.162-.648,2.43-1.308,3.788-1.976,2.343-1.153,4.842-2.279,7.34-3.334l1.5-.625L24.6.429,25.17.2A3,3,0,0,1,29.052,1.917Z" transform="translate(14.346 11.099)" fill="#2e186a"/></g></g><g transform="translate(1052 68)"><g transform="translate(0 324)"><path d="M58.1,19.8l1.3,81.6s-47,11-59.4,50.1l104-.1L120.6,0Z" transform="translate(120.3 210.6)" fill="#fe7624"/><path d="M67.8,9.3,55.9,88.9S11.7,99.5,0,136.3l97.7-.1L128.6,0Z" transform="translate(0.3 225.2)" fill="#fe7624"/><path d="M382.4,64,377.4.3,183.8,0l-3.7,21.8L150.2,21C74.4,17.6,62.3,74.7,62.3,74.7L0,318.1l92.6.4,47.2-171.9L118.4,316.8l94.2,1.4L231,143.1c22.2-5.1,94.3-22,112.8-31.9C362.5,104.3,383.3,80.7,382.4,64Z" transform="translate(21.1 0.2)" fill="#2e186a"/></g><path d="M330.8,109.25a221.587,221.587,0,0,0-67.3-66.6c11.7-19.1,9.6-38.4-39.5-42.4-79.6-2.8-87.7,18.5-87.8,35.2C110,56.35,94,78.65,84.5,99.65,73.1,89.05,52,69.75,46.6,66.15c-7.5-5-12.3,3.8-18.3.7-6.1-3.1-8.1-4-8.1-4S14.9,81.45,0,86.55c0,0,.3,2.8,3.6,8.6s-3.9,10,1.5,17.2c5.3,7.2,51.7,66.4,51.7,66.4,5.6,5.5,18.6,25,32.7,19.1v-1.3c.4.5.6.7.6.7s48.4.2,100.1.5l-2.7,16.6c126.8,12.2,117.9,69.9,153,47.1l-3.8-76.8C348.7,170.45,353.7,144.75,330.8,109.25Z" transform="translate(69.9 113.35)" fill="#fe7624"/><path d="M72.9.055l12.7,8.5s-47.3,28.9-53.5,103.3c-4.1,49.4-5,106.8-5,106.8l-22,3.1s7.3-135-1.3-160.1-.7-53.4,5.1-57.9C14.6-.745,72.9.055,72.9.055Z" transform="translate(230.203 134.945)" fill="#fff"/><g transform="translate(37 142)"><path d="M33.248,16.7c-.8-.5-23.5-15-29.5-16.5-5.9-1.5-6.7,5.6,11.6,15.7a19.6,19.6,0,0,0-3.6,22c1.7,3.9,17.2,19.3,22.5,19.9s25.3-4.6,21.1-17C51.248,28.4,44.048,23.9,33.248,16.7Z" transform="translate(0.552 0.7)" fill="#fff"/><path d="M38.225,63.835h0a11.716,11.716,0,0,1-1.306-.068c-1.4-.158-3.426-1.126-6.036-2.877a73.378,73.378,0,0,1-7.711-6.1c-5.514-4.927-10-10.03-11.162-12.7A23.81,23.81,0,0,1,9.883,30.859a22.285,22.285,0,0,1,3.144-9.889c.186-.316.389-.641.6-.966l.184-.275-.325-.2C6.985,15.57,2.627,11.653.885,8.207L.77,7.971C-.24,5.839-.26,3.818.714,2.278A5.311,5.311,0,0,1,5.369,0,8.605,8.605,0,0,1,7.484.276c2.4.6,6.663,2.684,13.4,6.556l1.419.821L24.254,8.8c2.852,1.685,5.954,3.569,9.22,5.6.581.361,1.178.734,1.879,1.174l2.538,1.6,4.928,3.3c.569.387,1.009.691,1.427.985l1.789,1.286a45.129,45.129,0,0,1,9.45,8.905A36.936,36.936,0,0,1,61.2,42.824a11.941,11.941,0,0,1-.584,9.724C59.136,55.357,56.5,57.8,52.794,59.8a35.841,35.841,0,0,1-7.523,2.942A28.325,28.325,0,0,1,38.225,63.835ZM6.724,6.313l.059.088c1.939,2.769,6.686,6.363,13.022,9.859a3,3,0,0,1,.6,4.817l-.09.088c-.049.052-.126.132-.217.234l-.305.352a16.811,16.811,0,0,0-1.6,2.27c-2.88,4.879-3.111,10.15-.688,15.667.9,2.06,5.353,6.685,9.37,10.354,6.035,5.513,9.493,7.625,10.717,7.763a6.489,6.489,0,0,0,.722.037,22.342,22.342,0,0,0,5.443-.9,30.458,30.458,0,0,0,6.184-2.417A12.717,12.717,0,0,0,55.07,50.1a6.282,6.282,0,0,0,.437-5.373A31.341,31.341,0,0,0,50.8,35.41a38.088,38.088,0,0,0-7.875-7.5l-.869-.639c-.926-.67-1.548-1.112-2.579-1.813l-4.812-3.224-1.913-1.209c-.873-.549-1.673-1.049-2.446-1.529l-1.53-.949c-2.684-1.656-5.233-3.2-7.573-4.581l-.454-.267-.193-.113-1.269-.742A97.667,97.667,0,0,0,6.749,6.323Z" transform="translate(-2.455 -2.287)" fill="#2e186a"/><path d="M22.7,6.726S3-1.074,1,.126c-2.8,1.6.3,9.6,9.1,13.5,0,0-6.1,7.9-2.7,14" transform="translate(22.401 18.974)" fill="#fff"/><path d="M2.492.569C4.543-.662,7.748.126,15.349,2.72l.427.146q.958.328,1.964.684c1.577.558,3.183,1.146,4.769,1.74l2.426.921,1.906.741a3,3,0,1,1-2.209,5.579l-1.849-.719-.831-.318c-2.049-.78-4.159-1.56-6.213-2.287q-.977-.346-1.907-.664l-1.454-.491c-2.037-.677-3.793-1.209-5.187-1.566l-.576-.142-.364-.084a7.523,7.523,0,0,0,.469,1.06l.126.229a16.126,16.126,0,0,0,7.506,6.35,3,3,0,0,1,1.269,4.425l-.249.341c-.081.115-.187.269-.312.459a19.952,19.952,0,0,0-1.114,1.92,11.874,11.874,0,0,0-1.526,5.886,5.3,5.3,0,0,0,.5,1.994l.133.257A3,3,0,1,1,7.815,32.1,11.206,11.206,0,0,1,6.43,27.313,17.487,17.487,0,0,1,8.6,18.326l.284-.545-.026-.016a21.155,21.155,0,0,1-7.019-6.9l-.209-.357C-.559,6.659-.736,2.59,2.294.687Z" transform="translate(19.365 15.959)" fill="#2e186a"/><path d="M4.5,32.9C.6,27,0,24.3,0,24.3,14.3,21.1,21.4,0,21.4,0s2.8.7,9.1,4.3c2.6,1.4,4.9.3,6.7,0C39.7,24.1,14.4,39.5,5.6,43.8,4.6,39.6,7.5,37.3,4.5,32.9Z" transform="translate(30.3 33.7)" fill="#2e186a"/></g><g transform="translate(186 255)"><path d="M53.608,3.049a161.589,161.589,0,0,0-27.7-3c-8.7-.1-23.4-.2-25.1,1.4-4.1,4,8.4,8.4,15.1,5.6" transform="translate(0.092 2.251)" fill="#fff"/><path d="M1.749,2.277,1.9,2.141C4.379.062,11.146-.142,28.947.062A156.089,156.089,0,0,1,48.029,1.585c1.883.261,3.654.536,5.288.815l1.366.24c.562.1,1.073.2,1.53.285l1.015.2a3,3,0,0,1-1.072,5.9l-.771-.152c-.506-.1-1.1-.211-1.767-.332-1.92-.346-4.075-.692-6.413-1.016A150.2,150.2,0,0,0,28.871,6.062l-4.382-.04c-4.26-.026-7.563,0-10.661.1l-1.009.037c-1.966.078-3.618.19-4.917.336l-.593.072.085.041c.211.1.439.2.684.29l.25.094c3,1.088,6.775,1.274,9.153.407l.268-.1a3,3,0,0,1,2.314,5.536c-3.887,1.624-9.348,1.408-13.779-.2A11.1,11.1,0,0,1,1.095,9.221,5.035,5.035,0,0,1,1.749,2.277Z" transform="translate(-2.905 -0.762)" fill="#2e186a"/><path d="M49.1,1.4C43.1,1,34.8.5,24.3,0,23.1-.1,0,7.7,0,7.7L17.3,26.1s1,1.7,28.3,6.8" transform="translate(23.5 4.299)" fill="#fff"/><path d="M27.443,0l4.765.232C39.6.609,46.278,1,52.3,1.4a3,3,0,1,1-.4,5.987L49.014,7.2c-4.895-.313-10.2-.62-15.956-.916l-5.626-.28-.182.044-.493.129-.655.183c-.562.161-1.245.365-2.04.608l-1.14.352c-1.468.457-3.2,1.012-5.163,1.647L15.521,9.7l-2.612.858c-.883.291-1.776.587-2.674.885l-1.841.613,13.817,14.7.277.115c.5.2,1.246.45,2.274.754l.8.23c4.539,1.279,12.176,2.966,23.593,5.1a3,3,0,1,1-1.1,5.9l-4.029-.762c-17.058-3.267-23.848-5.158-25.83-6.91l-.051-.047-.025.025-17.3-18.4A3,3,0,0,1,1.868,7.919l1.161-.4,2.609-.874c1.8-.6,3.619-1.206,5.394-1.791l4.5-1.475C23.146.9,26.114.006,27.361,0Z" transform="translate(20.499 1.303)" fill="#2e186a"/><path d="M16.369,12.351c-12.5,1.2-18.8.7-15.5-3.6,1.9-2.4,23.4-8.3,27.4-8.7,4.1-.4,25.6,1.7,25.6,1.7" transform="translate(4.031 3.349)" fill="#fff"/><path d="M30.981.064l.3-.025a98.65,98.65,0,0,1,10.76.427L44.8.676l2.58.209c1.387.115,2.78.236,4.154.358l3.177.289,2.454.232a3,3,0,0,1-.407,5.984l-.243-.019L53.7,7.464,51,7.219c-1.364-.121-2.746-.241-4.121-.355l-2.553-.207-2.944-.222a96.654,96.654,0,0,0-9.712-.409l-.1.009A122.735,122.735,0,0,0,17.643,9.525l-1.18.356c-2.711.829-5.124,1.638-7,2.355l-.716.28q-.342.137-.65.267l-.177.074.1.008a72.6,72.6,0,0,0,9.995-.4l1.068-.1a3,3,0,0,1,.573,5.973l-1.139.106c-6.332.572-10.6.641-13.377.118C.3,17.649-1.59,13.941,1.521,9.888,2.947,8.086,7.63,6.27,15.435,3.923l1.324-.394A114.713,114.713,0,0,1,30.981.064Z" transform="translate(1.027 0.35)" fill="#2e186a"/><path d="M25.915,0a138.357,138.357,0,0,0-15.2,2.9c-6.7,1.8-11,4.3-10.7,5.5s4.5,4.5,8.8,3.7c6.3-2.2,19.7-3.4,19.7-3.4-1.3-.5-10.9,1.7-16.1,2.5-5.1.8-9.9,4.8,2.2,6.1l18.1,2.4" transform="translate(10.485 11)" fill="#fff"/><path d="M31.9,2.615a3,3,0,0,1-2.59,3.36l-.957.132-.972.142c-.506.076-1.041.158-1.6.247-2.66.425-5.319.913-7.788,1.456-1.248.275-2.416.557-3.489.845a39.049,39.049,0,0,0-6.682,2.389l-.41.2.2.1a6.161,6.161,0,0,0,3.42.693l.064-.01.109-.037a56.661,56.661,0,0,1,7.774-1.815l.592-.1c1.464-.248,2.984-.477,4.528-.687l.494-.067,2.023-.364c3.522-.614,4.655-.652,5.727-.3L32.6,8.9a3,3,0,0,1-.809,5.788l-.95.092-1.474.156q-.52.057-1.075.122c-.753.087-1.506.18-2.255.276l-.443.058-1.715.319-4.78.9c-1.081.2-1.854.335-2.586.453l-.233.037.011,0q.631.1,1.358.18l.37.041,18.1,2.4a3,3,0,0,1-.613,5.966l-.175-.018L17.3,23.283a22.462,22.462,0,0,1-7.158-1.674,4.983,4.983,0,0,1-3.1-3.794l-.013-.15-.164-.048c-3.237-1-6.042-3.134-6.706-5.308l-.05-.181C-.874,8.173,4.629,5.238,12.947,3c1.167-.313,2.423-.617,3.756-.91C18.928,1.6,21.28,1.16,23.649.765L24.834.572C25.415.479,25.97.393,26.5.315L28.54.025A3,3,0,0,1,31.9,2.615Z" transform="translate(7.475 8)" fill="#2e186a"/><path d="M7.8,41C1.9,38.8,0,37,0,37,7.7,25,0,5.1,0,5.1s2-.5,8.2-1.8A6.814,6.814,0,0,0,12.9,0C25.7,14.5,18,39.9,14.6,49.1,11.6,46.5,12.3,42.7,7.8,41Z" transform="translate(63 0.2)" fill="#2e186a"/></g><g transform="translate(157 191)"><path d="M18.618.014a3,3,0,0,1,.739,5.952l-.339.043a10.909,10.909,0,0,0-1.748.461,14.979,14.979,0,0,0-4.762,2.691c-3.153,2.627-5.468,6.6-6.561,12.3A3,3,0,0,1,.054,20.336C1.407,13.278,4.44,8.073,8.668,4.551A20.945,20.945,0,0,1,15.335.79,15.114,15.114,0,0,1,18.618.014Z" transform="translate(163.899 44.8)" fill="#2e186a"/><path d="M19,.3a3,3,0,0,1,1.482,3.835l-.093.207L19.912,5.35,19.4,6.473c-.4.875-.825,1.834-1.278,2.87-1.726,3.947-3.452,8.174-5.061,12.506-1.657,4.461-3.1,8.781-4.251,12.861A81.15,81.15,0,0,0,5.986,48.494a3,3,0,1,1-5.971-.587,86.835,86.835,0,0,1,3.02-14.833c1.2-4.246,2.69-8.715,4.4-13.317,1.652-4.445,3.42-8.775,5.188-12.819L13.3,5.4q.329-.738.636-1.414L15,1.7A3,3,0,0,1,19,.3Z" transform="translate(111.3 -3.001)" fill="#2e186a"/><path d="M2.321.079a3,3,0,0,1,3.6,2.242l.2.886.243,1.135q.128.607.266,1.289L6.979,7.4c.406,2.1.808,4.357,1.188,6.722a175.021,175.021,0,0,1,2.125,19.721,89.606,89.606,0,0,1-.309,13.586,3,3,0,1,1-5.964-.652A83.8,83.8,0,0,0,4.3,34.109,169.2,169.2,0,0,0,2.243,15.072C1.82,12.443,1.371,9.956.919,7.67L.576,5.977l-.385-1.8c-.052-.233-.09-.4-.112-.5A3,3,0,0,1,2.321.079Z" transform="translate(65.999 -1.901)" fill="#2e186a"/><path d="M22.033.055l.241-.018C25.88-.2,37.578.724,55.618,2.517l3.914.393q2.754.279,5.629.576c6.126.634,12.417,1.3,18.625,1.983L93.138,6.5l4.1.461a3,3,0,0,1-.678,5.962l-9.718-1.084c-6.155-.678-12.442-1.355-18.613-2L60.31,9.019l-8.034-.8C36.03,6.629,25.161,5.8,22.569,6.03a5.043,5.043,0,0,0-4.5,2.518l-.4.567c-1.92,2.723-3.436,4.029-6.448,4.663l-2.533.541-1.834.4.161.569q.163.587.322,1.2l.157.624A50.98,50.98,0,0,1,9.1,31.919a27.934,27.934,0,0,1-1.95,9.192l-.24.555.288.156a34.79,34.79,0,0,0,3.648,1.652l.443.172c2.785,1.083,4.05,2.552,5.432,5.407l.384.808.2.407a4.669,4.669,0,0,0,3.577,2.8l.245.063c2.278.57,11.489,1.535,25.5,2.718l3.988.332q3.469.285,7.226.582l5.821.454c4.59.353,9.312.707,14.074,1.055l9.754.7,8.215.574a3,3,0,1,1-.408,5.986l-10.014-.7L77.3,64.257c-6.813-.5-13.546-1.007-19.929-1.512l-4.894-.391q-1.788-.145-3.5-.287l-5.962-.5c-12.751-1.1-20.784-1.972-23.336-2.61a10.621,10.621,0,0,1-7.831-6.194l-.4-.836c-.809-1.716-1.184-2.209-2.166-2.62l-.145-.058a36.847,36.847,0,0,1-6.169-2.938A11.945,11.945,0,0,1,.88,44.764a3,3,0,0,1-.419-3.717,19.634,19.634,0,0,0,2.648-9.455,45.227,45.227,0,0,0-1.443-13.04C1.338,17.22.987,15.994.638,14.9l-.174-.531-.158-.46c-.057-.162-.095-.266-.111-.31A3,3,0,0,1,2.238,9.641l.782-.194.967-.228c1.5-.348,3.484-.784,6-1.313a3.565,3.565,0,0,0,2.475-1.824l.572-.8C15.329,2.038,17.6.452,22.033.055Z" transform="translate(90.499 58.057)" fill="#2e186a"/><path d="M.321,1.653A3,3,0,0,1,4.349.321l.624.326c.263.141.58.315.947.52,1.2.674,2.539,1.47,3.974,2.385a90.039,90.039,0,0,1,12.021,9.126A65.792,65.792,0,0,1,32.284,24.417a3,3,0,0,1-4.966,3.367,59.877,59.877,0,0,0-9.43-10.658A84.109,84.109,0,0,0,6.67,8.612C5.5,7.867,4.405,7.208,3.408,6.64l-.646-.364L1.8,5.759l-.151-.078A3,3,0,0,1,.321,1.653Z" transform="translate(-2.801 18.699)" fill="#2e186a"/></g><path d="M43.3,0C31.8,19.2,6.1,38.2,0,41v.1c17.2.8,57.4-21.4,64.2-25.3C55.9,9.5,49,3.7,43.3,0Z" transform="translate(290.4 155.5)" fill="#2e186a"/><path d="M14.4,9.5C14.3,6.7,14,3.4,14,0h-.1C9,3.9,4.4,7.8,0,11.8,5.2,21.9,15.7,37.2,27.2,44.3,23.9,37,15.1,27.5,14.4,9.5Z" transform="translate(192 148.3)" fill="#2e186a"/><g transform="translate(174)"><path d="M7,0S22,.3,19.3,13.7,0,19.4,0,19.4L2.2.3Z" transform="translate(118.6 81.9)" fill="#fff"/><path d="M12.573,27.6A25.656,25.656,0,0,1,5.1,26.368a29.74,29.74,0,0,1-3-1.086l-.359-.16A3,3,0,0,1,.02,22.056l2.2-19.1A3,3,0,0,1,5.013.306l4.8-.3C9.877,0,9.937,0,10,0h.064a17.826,17.826,0,0,1,2.379.238A21.013,21.013,0,0,1,17.5,1.67a13.167,13.167,0,0,1,6.725,5.881,14.4,14.4,0,0,1,1.015,9.741,12.7,12.7,0,0,1-4.336,7.7A12.851,12.851,0,0,1,12.884,27.6ZM10.037,6h0l-2.144.134-1.647,14.3.2.066.416.131a19.712,19.712,0,0,0,5.717.968l.209,0a6.919,6.919,0,0,0,4.361-1.3,6.856,6.856,0,0,0,2.212-4.2c.911-4.518-.4-7.271-4.234-8.928a15.069,15.069,0,0,0-3.617-1.014c-.422-.066-.826-.114-1.2-.143L10.037,6Z" transform="translate(115.6 78.9)" fill="#2e186a"/><path d="M35.214.148c-4-.3-31-2-34,20.6s.2,47.5,2.7,58.9,54.4,6.1,57.3,5.1,6.4-4.5,6.4-4.5l7.1-34.7S77.614,3.648,35.214.148Z" transform="translate(47.686 39.452)" fill="#fff"/><path d="M34.295,92.851c-9.472-.033-16.431-.733-21.276-2.139C7.7,89.168,4.742,86.742,3.986,83.294a185.534,185.534,0,0,1-3.7-28.9,172.311,172.311,0,0,1,.958-31.034,24.786,24.786,0,0,1,6.05-13.7A27.836,27.836,0,0,1,19.953,2,46.676,46.676,0,0,1,31.494.069C32.461.023,33.375,0,34.287,0c1.381,0,2.708.051,4.176.162,9.209.76,17.1,3.306,23.467,7.567A39.847,39.847,0,0,1,75.961,24.478a52.663,52.663,0,0,1,4.277,15,51.561,51.561,0,0,1,.5,8.742l-.006.139-.02.4a3.252,3.252,0,0,1-.054.394l-7.1,34.7a2.992,2.992,0,0,1-.818,1.52,30.974,30.974,0,0,1-3.065,2.65,21.136,21.136,0,0,1-2.739,1.792,11.846,11.846,0,0,1-1.739.773c-2.6.9-17.362,2.177-28.9,2.26ZM34.285,6c-.817,0-1.636.02-2.5.062A40.711,40.711,0,0,0,21.729,7.73a21.937,21.937,0,0,0-9.923,5.894,17.152,17.152,0,0,0-3.014,4.636,21.538,21.538,0,0,0-1.6,5.885A166.311,166.311,0,0,0,6.278,54.1,179.435,179.435,0,0,0,9.846,82.009c.146.667.828,1.3,2.025,1.878A21.828,21.828,0,0,0,16.8,85.4a92.8,92.8,0,0,0,17.079,1.45l1.527,0c5.857-.01,12.331-.308,18.722-.86,4.636-.4,8.657-.921,9.105-1.076l.153-.057a6.436,6.436,0,0,0,.706-.332,15.108,15.108,0,0,0,1.946-1.282c.578-.438,1.173-.934,1.77-1.473l.054-.05,6.866-33.557.018-.517a46.557,46.557,0,0,0-.458-7.355,46.657,46.657,0,0,0-3.779-13.3,36.634,36.634,0,0,0-5.047-8.081,32.43,32.43,0,0,0-7-6.286,36.674,36.674,0,0,0-9.108-4.315A51.181,51.181,0,0,0,37.992,6.143C36.711,6.047,35.5,6,34.285,6Z" transform="translate(44.684 36.448)" fill="#2e186a"/><path d="M58.8,0l.9,28.1,8,9.1h0A229.544,229.544,0,0,0,21.6,77.4S3.2,58,0,27.5l43.2,5.3,3.4-16.9Z" transform="translate(61.2 100.2)" fill="#fff"/><path d="M24.6,83.405h0a2.973,2.973,0,0,1-2.176-.935c-.826-.871-1.979-2.254-3.164-3.793l-.5-.656a95.034,95.034,0,0,1-7.836-12.287A94.335,94.335,0,0,1,.017,30.818,2.961,2.961,0,0,1,.77,28.5,3,3,0,0,1,2.993,27.5a3.073,3.073,0,0,1,.373.023l40.441,4.962L46.66,18.313a2.967,2.967,0,0,1,.428-1.048l.132-.187,12.2-15.9A2.916,2.916,0,0,1,61.773,0a3.115,3.115,0,0,1,2.054.782A2.947,2.947,0,0,1,64.8,2.909l.865,27.023,7.29,8.292a3,3,0,0,1-.519,4.429l-.159.105-.022.014c-.1.061-.246.154-.445.281l-1.06.689c-.354.233-.68.451-1,.665l-1.1.747c-3.115,2.137-6.389,4.538-9.733,7.138a235.916,235.916,0,0,0-29.6,27.334c-.845.929-1.676,1.858-2.469,2.759A3,3,0,0,1,24.6,83.405ZM6.464,33.953h0l.134.862a89.028,89.028,0,0,0,9.193,27.3l.417.785A89.069,89.069,0,0,0,23.545,74.4c.316.417.635.83.949,1.228l.164.207.228-.25A241.806,241.806,0,0,1,54.126,48.423l1.109-.867c3-2.336,5.963-4.522,8.793-6.5l1.229-.851.906-.618-5.716-6.5a2.98,2.98,0,0,1-.729-1.654L59.7,31.2l-.632-19.71L52.4,20.179,49.142,36.4A3.008,3.008,0,0,1,46.2,38.8c-.063,0-.127,0-.189-.006l-.179-.016L6.464,33.953Z" transform="translate(58.2 97.195)" fill="#2e186a"/><path d="M71.2,0c-2.6,2.5-9.5,16.8-11.1,23.5,0,0-17-5.6-41.5-6,0,0-13.3.3-18.6,1.8,0,0,1.2,23.7,11.9,36s33.6,8.8,44.3,1.5c10.7-7.4,12.5-10.9,15-18.8S80.2.7,80.2.7Z" transform="translate(46.1 84.7)" fill="#968bb4"/><path d="M123.945,89.617s7-10.9,9.8-22.2a23.3,23.3,0,0,0-12.3-26.6c-8.3-4-14.4-.9-14.4-.9s8.8-14.9-4.4-28.1a23.975,23.975,0,0,0-17.6-7,23,23,0,0,0-21,14s-17.2-31.6-52.4-12.9c-3.6,1.9-7.6,7.1-9.5,10.7-11.6,21.4,26.7,46.8,46.7,48.9,21.9,2.2,34.8-1.4,41.8-6.8C85.445,61.817,91.345,94.617,123.945,89.617Z" transform="translate(0.355 0.183)" fill="#2e186a"/><path d="M2.319,2.667a3,3,0,0,1,5.977.49l-.014.176L6.468,19.582,9.435,18.8a3,3,0,0,1,3.616,1.966l.05.169a3,3,0,0,1-1.966,3.616l-.169.05-7.2,1.9A3,3,0,0,1,0,23.441l.014-.174Z" transform="translate(60.199 90.2)" fill="#2e186a"/><ellipse cx="2.1" cy="3.3" rx="2.1" ry="3.3" transform="translate(54.8 88.4)" fill="#2e186a"/><ellipse cx="2.1" cy="3.3" rx="2.1" ry="3.3" transform="translate(74.3 87.9)" fill="#2e186a"/><path d="M2.563.154a12.563,12.563,0,0,1,9.5,2.287,12.71,12.71,0,0,1,1.875,1.675,8.769,8.769,0,0,1,.737.9A3,3,0,0,1,9.838,8.571L9.73,8.424a5.7,5.7,0,0,0-1.212-1.14,6.551,6.551,0,0,0-4.76-1.235l-.319.041A3,3,0,0,1,2.563.154Z" transform="translate(75.3 71.278)" fill="#2e186a"/><path d="M5.8.286A11.3,11.3,0,0,1,10.174.15l.346.058c.212.039.387.077.52.111A3,3,0,0,1,9.734,6.172L9.5,6.12c-.051-.01-.13-.024-.232-.04a5.557,5.557,0,0,0-2.059.037A1.549,1.549,0,0,0,5.93,7.211l-.049.155a3,3,0,0,1-5.76-1.68A7.509,7.509,0,0,1,5.8.286Z" transform="translate(48.599 70.874)" fill="#2e186a"/><path d="M6.838,2.53a3,3,0,0,1,5.926.941,9.545,9.545,0,0,1-.3,1.235A11.291,11.291,0,0,1,11.375,7.2a8.062,8.062,0,0,1-8.933,3.949,3,3,0,0,1,.944-5.923l.174.028A2.16,2.16,0,0,0,6.218,4.131,5.377,5.377,0,0,0,6.726,2.96l.059-.207c.016-.06.028-.109.037-.147Z" transform="translate(71.899 115.7)" fill="#2e186a"/></g></g><g transform="translate(121 380)"><path d="M1351.2,379.7H3a3,3,0,0,1-3-3V3A3,3,0,0,1,3,0H1351.2a3,3,0,0,1,3,3V376.7A3,3,0,0,1,1351.2,379.7ZM6,6V373.7H1348.2V6Z" transform="translate(0.5 -1.7)" fill="#2e186a"/><rect width="1352.4" height="48.1" transform="translate(0.9 0.5)" fill="#2e186a"/></g><path d="M1595.1,0a3,3,0,0,1,.176,5.995L1595.1,6H3A3,3,0,0,1,2.824.005L3,0Z" transform="translate(0.6 752.6)" fill="#2e186a"/></g></g></svg>